<?xml version="1.0" standalone="no"?>
<!DOCTYPE svg PUBLIC "-//W3C//DTD SVG 1.1//EN" "http://www.w3.org/Graphics/SVG/1.1/DTD/svg11.dtd" >
<svg xmlns="http://www.w3.org/2000/svg" xmlns:xlink="http://www.w3.org/1999/xlink" version="1.1">
<metadata>
Created by FontForge 20170910 at Wed Sep 27 14:49:31 2017
 By jimmywarting
Copyright \(c\) 2008 by . All rights reserved.
</metadata>
<defs>
<font id="Robika-Regular" horiz-adv-x="1500" >
  <font-face 
    font-family="Robika"
    font-weight="400"
    font-stretch="normal"
    units-per-em="2048"
    panose-1="2 0 5 3 0 0 0 2 0 4"
    ascent="1638"
    descent="-410"
    x-height="1079"
    cap-height="1456"
    bbox="-840.061 -616 2575 2153"
    underline-thickness="100"
    underline-position="-200"
    unicode-range="U+0002-FFFD"
  />
<missing-glyph horiz-adv-x="509" 
 />
    <glyph glyph-name="fi" unicode="fi" horiz-adv-x="1239" 
d="M44 1082v0h169v117c0 121 36 215 107 282c72 67 170 100 296 100c88 0 169 -22 284 -61v0c-16 -80 -94 -133 -174 -118c-31 6 -63 9 -95 9c-157 0 -221 -68 -221 -212v-117h549c38 0 68 -31 68 -68v-860l39 -7c72 -12 124 -74 124 -147v0h-523v0c0 73 53 135 125 147
l38 7v782h-420v-782l39 -7c72 -12 124 -74 124 -147v0h-523v0c0 73 53 135 125 147l38 7v782h-23c-80 0 -146 65 -146 146z" />
    <glyph glyph-name="uniFB02" unicode="fl" horiz-adv-x="1350" 
d="M751 0v126l163 28v1226c-77 19 -159 31 -242 31c-184 0 -261 -82 -261 -251v-78h251v-146h-251v-782l163 -28v-126h-523v126l163 28v782h-144v146h144v78c0 134 39 238 117 311c79 73 187 110 326 110c57 0 114 -5 170 -16s121 -26 195 -46h89v-1365l163 -28v-126h-523z
" />
    <glyph glyph-name="uFFFF02C3" horiz-adv-x="0" arabic-form="initial" 
 />
    <glyph glyph-name=".notdef" horiz-adv-x="509" 
 />
    <glyph glyph-name="uni0009" horiz-adv-x="0" 
 />
    <glyph glyph-name="CR" unicode="&#xd;" horiz-adv-x="509" 
 />
    <glyph glyph-name="space" unicode=" " horiz-adv-x="509" 
 />
    <glyph glyph-name="quotedbl" unicode="&#x22;" horiz-adv-x="765" 
d="M284 1134c-13 -55 -63 -94 -120 -94v0v362c0 87 71 158 158 158v0v-110c0 -106 -12 -212 -38 -316zM592 1134c-13 -55 -63 -94 -120 -94v0v362c0 87 71 158 158 158v0v-110c0 -106 -12 -212 -38 -316z" />
    <glyph glyph-name="numbersign" unicode="#" horiz-adv-x="1246" 
d="M545 898l-68 -348h256l68 348h-256zM707 410h-255l-51 -261c-17 -86 -92 -148 -180 -148v0l80 409h-95c-77 0 -139 62 -139 140v0h262l68 347h-115c-77 0 -140 63 -140 140v2h283l53 267c17 86 92 148 179 148v0l-81 -415h254l53 267c17 86 92 148 180 148v0l-82 -415h60
c77 0 139 -63 139 -140v-2h-226l-68 -347h80c77 0 140 -63 140 -140v0h-248l-51 -261c-17 -86 -92 -148 -179 -148v0z" />
    <glyph glyph-name="dollar" unicode="$" horiz-adv-x="1110" 
d="M816 379c0 60 -21 111 -64 153c-42 43 -112 81 -210 114c-135 41 -237 95 -306 163s-103 159 -103 273c0 110 32 200 95 269c63 70 151 112 262 126v221v0c87 0 158 -71 158 -158v-64c111 -16 198 -64 260 -144s93 -187 93 -321h-66c-66 0 -127 43 -142 107
c-11 43 -28 81 -52 113c-41 56 -100 84 -174 84c-79 0 -138 -20 -178 -61c-39 -41 -59 -98 -59 -169c0 -65 20 -117 61 -157c41 -41 114 -79 220 -115c136 -44 237 -99 303 -165c66 -65 100 -155 100 -267c0 -115 -35 -207 -104 -275c-68 -68 -163 -109 -283 -121v-192v0
c-86 0 -157 70 -157 157v35c-114 12 -209 54 -282 125c-74 72 -109 178 -106 317l2 5h83c57 0 104 -41 116 -97c12 -54 35 -95 69 -123c52 -44 115 -66 191 -66c86 0 153 21 201 62s72 98 72 171z" />
    <glyph glyph-name="percent" unicode="%" horiz-adv-x="1460" 
d="M77 1178c0 85 27 157 82 215s127 87 218 87c93 0 166 -29 221 -87s82 -129 82 -215v-77c0 -85 -27 -156 -82 -214c-55 -57 -128 -86 -219 -86s-165 29 -220 86c-55 58 -82 129 -82 214v77zM223 1101c0 -50 14 -91 41 -126c27 -34 65 -52 115 -52c49 0 87 18 114 52
s41 76 41 126v77c0 50 -14 92 -41 127c-28 35 -66 53 -116 53c-49 0 -87 -18 -114 -53s-40 -77 -40 -127v-77zM333 177l645 1032c38 60 117 79 177 41v0l-644 -1032c-38 -60 -117 -79 -178 -41zM783 357c0 84 28 155 82 214c55 58 128 87 219 87c92 0 165 -29 220 -87
s83 -129 83 -214v-78c0 -86 -28 -157 -82 -215c-55 -57 -128 -86 -219 -86c-92 0 -166 29 -221 86c-54 58 -82 129 -82 215v78zM930 279c0 -50 13 -92 40 -127c27 -34 66 -52 116 -52s88 18 114 52c27 35 41 77 41 127v78c0 50 -14 92 -42 126c-27 35 -65 53 -115 53
c-49 0 -87 -18 -114 -53c-27 -34 -40 -76 -40 -126v-78z" />
    <glyph glyph-name="ampersand" unicode="&#x26;" horiz-adv-x="1289" 
d="M1067 230l187 -228l-2 -5h-153c-50 0 -97 22 -129 61l-36 43c-54 -41 -114 -72 -180 -93c-65 -21 -133 -32 -204 -32c-146 0 -263 39 -350 117c-87 77 -130 178 -130 302c0 83 23 155 71 216c48 62 119 124 214 187c-53 67 -92 126 -118 179c-26 52 -39 106 -39 161
c0 115 33 203 99 265s157 93 273 93c107 0 193 -31 260 -93c67 -61 101 -135 101 -222c0 -66 -18 -123 -53 -172c-36 -48 -89 -98 -158 -148l-111 -82l321 -386l-13 -14c-61 -64 -164 -60 -220 8l-235 283l-40 -30c-62 -46 -103 -90 -123 -132c-20 -41 -30 -79 -30 -113
c0 -76 24 -139 72 -189c48 -49 118 -74 209 -74c49 0 97 8 144 25c48 17 92 40 134 72c0 0 102 86 126 136c28 44 49 92 65 146c3 10 6 20 8 30c19 82 93 139 177 139h17c0 -89 -13 -171 -40 -246c-26 -76 -64 -144 -114 -204zM443 1281c-30 -38 -45 -85 -45 -141
c0 -35 9 -73 28 -112c18 -38 45 -81 82 -127l140 97c38 25 64 53 78 83s21 64 21 100c0 41 -16 78 -49 110s-76 47 -128 47c-55 0 -97 -19 -127 -57z" />
    <glyph glyph-name="quotesingle" unicode="'" horiz-adv-x="460" 
d="M329 1398c0 -61 -15 -124 -45 -190c-29 -65 -69 -119 -120 -161l-1 1c-55 36 -74 106 -49 166c5 12 9 23 12 34c15 46 22 95 22 148v0c0 94 77 171 172 171h9v-169z" />
    <glyph glyph-name="parenleft" unicode="(" horiz-adv-x="662" 
d="M116 587c0 262 53 486 159 672s217 309 333 372l7 -1v0c21 -65 6 -136 -38 -188c-60 -68 -115 -159 -163 -270c-67 -158 -101 -352 -101 -584v-12c0 -232 33 -427 100 -583c49 -116 106 -211 170 -283c42 -48 53 -115 32 -177v0h-7c-116 63 -227 187 -333 372
s-159 410 -159 672v10z" />
    <glyph glyph-name="parenright" unicode=")" horiz-adv-x="654" 
d="M546 584c0 -263 -53 -488 -159 -673c-107 -186 -218 -310 -334 -371h-6v0c-20 59 -9 126 33 173c62 69 117 162 167 280c68 160 102 357 102 589v13c0 229 -35 423 -105 584c-52 118 -108 213 -168 284c-40 47 -50 112 -30 171l1 4h6c116 -62 227 -186 334 -372
c106 -186 159 -410 159 -673v-9z" />
    <glyph glyph-name="asterisk" unicode="*" horiz-adv-x="958" 
d="M369 983l-167 51c-66 20 -103 89 -81 155l8 30l287 -108l-5 206c-2 69 54 126 123 126h28l-9 -337l162 60c66 25 140 -11 160 -79l9 -26l-293 -87l117 -163c39 -53 27 -130 -26 -169l-30 -21l-177 276l-101 -161c-37 -58 -117 -75 -173 -34l-24 17z" />
    <glyph glyph-name="plus" unicode="+" horiz-adv-x="1145" 
d="M669 785h222c98 0 178 -80 178 -178v0h-400v-281c0 -98 -80 -178 -178 -178h-19v459h-223c-98 0 -178 80 -178 178v0h401v245c0 98 80 178 178 178h19v-423z" />
    <glyph glyph-name="comma" unicode="," horiz-adv-x="404" 
d="M317 69c0 -65 -16 -134 -49 -205s-77 -131 -132 -178h-1c-59 40 -81 114 -54 179c26 64 39 129 39 201v152h197v-149z" />
    <glyph glyph-name="hyphen" unicode="-" horiz-adv-x="797" 
d="M642 539h-335c-85 0 -154 69 -154 154v0h335c85 0 154 -69 154 -154v0z" />
    <glyph glyph-name="period" unicode="." horiz-adv-x="493" 
d="M240 -24v0c-69 0 -125 56 -125 125v7c0 69 56 125 125 125v0c69 0 126 -56 126 -125v-7c0 -69 -57 -125 -126 -125z" />
    <glyph glyph-name="slash" unicode="/" horiz-adv-x="824" 
d="M1 -126h-1l549 1426c36 94 125 155 226 155v0l-548 -1426c-36 -93 -126 -155 -226 -155z" />
    <glyph glyph-name="zero" unicode="0" horiz-adv-x="1168" 
d="M1048 900v-345c0 -186 -41 -329 -124 -428s-196 -148 -339 -148s-256 50 -339 149s-125 242 -125 427v345c0 185 41 328 124 427c83 100 195 150 338 150s257 -50 340 -150c83 -99 125 -242 125 -427zM851 515v427c0 252 -93 380 -268 380c-172 0 -265 -128 -265 -380
v-427c0 -252 95 -382 267 -382c175 0 266 129 266 382z" />
    <glyph glyph-name="one" unicode="1" horiz-adv-x="844" 
d="M243 141l100 13v1090l-107 -2c-67 -2 -122 53 -122 120v0l425 92v-1300l99 -13c72 -8 125 -69 125 -141v0h-645v0c0 72 53 133 125 141z" />
    <glyph glyph-name="two" unicode="2" horiz-adv-x="1131" 
d="M94 0v135l476 529c85 95 143 170 173 226s45 113 45 172c0 72 -21 133 -64 183c-42 49 -98 74 -168 74c-101 0 -175 -25 -222 -77c-20 -22 -36 -47 -48 -77c-31 -82 -104 -140 -192 -140h-19l-2 6c-4 125 38 230 124 315s206 128 359 128c131 0 235 -38 313 -114
c77 -77 116 -174 116 -291c0 -79 -24 -159 -70 -238c-47 -79 -114 -164 -199 -256l-382 -416l2 -5h516v0c9 94 88 166 183 166v0v-320h-941z" />
    <glyph glyph-name="three" unicode="3" horiz-adv-x="1106" 
d="M366 822h171c88 0 150 22 186 66s55 105 55 181c0 83 -21 147 -63 190c-41 44 -102 65 -183 65c-75 0 -137 -22 -183 -67c-25 -23 -42 -50 -53 -81c-23 -59 -79 -99 -143 -99h-62l-2 6c-4 111 36 205 119 280c83 77 192 116 324 116c135 0 242 -36 322 -108
c80 -70 120 -173 120 -305c0 -60 -19 -119 -54 -179c-37 -60 -92 -106 -163 -137c86 -28 147 -73 184 -134c37 -62 55 -130 55 -206c0 -132 -44 -237 -130 -312c-87 -76 -198 -114 -334 -114c-132 0 -242 36 -328 108c-87 70 -129 168 -125 291l3 6h58
c65 0 123 -41 146 -102c12 -31 29 -59 54 -81c46 -46 112 -68 192 -68c83 0 150 22 196 68c48 45 72 112 72 200c0 90 -21 156 -63 199s-109 64 -200 64h-16c-86 0 -155 68 -155 153v0z" />
    <glyph glyph-name="four" unicode="4" horiz-adv-x="1187" 
d="M953 147c72 -12 124 -74 124 -147h-521c0 73 52 135 124 147l39 7v181v154v684l-6 2l-20 -52l-418 -634h422v-13c0 -78 -62 -141 -140 -141h-491v111l641 1008h207v-965h201c0 -85 -69 -154 -154 -154h-47v-181z" />
    <glyph glyph-name="five" unicode="5" horiz-adv-x="1081" 
d="M798 1285v0h-436l-48 -410c31 22 64 42 102 57c38 14 81 22 131 25c135 1 241 -43 317 -132c77 -88 116 -209 116 -359c0 -146 -40 -264 -118 -353c-79 -88 -193 -133 -343 -133c-123 0 -226 34 -309 101c-81 68 -121 167 -117 298l2 6v0c86 0 166 -47 204 -124
c10 -22 24 -43 43 -61c45 -44 104 -65 177 -65c83 0 148 28 194 87s69 140 69 243c0 93 -23 171 -69 230c-47 60 -111 90 -193 90c-78 0 -134 -12 -169 -35c-35 -24 -60 -59 -77 -107l-164 16l84 802h771v-290h-34c-66 0 -122 49 -133 114z" />
    <glyph glyph-name="six" unicode="6" horiz-adv-x="1144" 
d="M954 834c77 -91 116 -205 116 -343c0 -150 -42 -273 -124 -369c-82 -94 -192 -142 -329 -142c-142 0 -260 52 -354 155c-93 103 -139 249 -139 439v197c0 230 50 406 151 527c102 121 232 181 392 181c49 0 98 -6 148 -18c49 -11 89 -25 121 -42l-8 -33
c-15 -57 -74 -92 -132 -77h-1c-38 9 -81 14 -128 14c-102 0 -183 -37 -244 -115c-60 -77 -93 -194 -97 -349l-7 -187v-117c0 -135 29 -239 85 -312s127 -109 213 -109c80 0 143 34 188 103c46 68 68 152 68 254c0 97 -25 175 -72 237c-49 62 -116 93 -201 93
c-68 0 -125 -13 -172 -40c-27 -15 -49 -33 -68 -53v68c0 58 34 112 88 134c6 3 13 5 19 8c54 21 113 31 176 31c130 0 234 -45 311 -135z" />
    <glyph glyph-name="seven" unicode="7" horiz-adv-x="1128" 
d="M1058 1299c-176 -209 -294 -394 -356 -556c-61 -161 -106 -357 -133 -586l-16 -157h-197l16 157c28 229 82 433 163 614c80 180 191 356 330 528h-607v0c-8 -94 -87 -167 -182 -167v0v216c0 59 47 106 105 106h877v-155z" />
    <glyph glyph-name="eight" unicode="8" horiz-adv-x="1131" 
d="M969 612c50 -63 75 -136 75 -218c0 -136 -44 -239 -132 -310c-88 -72 -202 -107 -343 -107c-143 0 -259 35 -346 107c-87 71 -130 174 -130 310c0 82 24 155 74 218c49 63 117 109 201 139c-73 28 -130 70 -172 128c-41 57 -62 124 -62 200c0 129 39 228 119 298
c79 70 184 105 314 105c129 0 234 -35 315 -105c82 -70 122 -169 122 -298c0 -76 -21 -143 -64 -200c0 -1 -1 -1 -1 -1c-53 -71 -153 -88 -231 -45l-34 18c24 11 47 26 66 45c44 45 66 105 66 179c0 73 -22 133 -67 180c-46 48 -103 72 -172 72c-70 0 -127 -23 -170 -69
c-44 -46 -65 -107 -65 -183c0 -74 21 -134 65 -179c44 -44 249 -116 369 -145c87 -22 152 -76 203 -139zM770 203c52 47 77 112 77 195c0 80 -26 146 -79 198c-53 51 -120 77 -201 77c-82 0 -148 -25 -200 -77c-51 -51 -76 -117 -76 -198c0 -83 25 -149 76 -196
c50 -47 118 -71 202 -71c82 0 149 24 201 72z" />
    <glyph glyph-name="nine" unicode="9" horiz-adv-x="1154" 
d="M519 134c95 0 170 36 225 109c56 72 84 189 86 350l-4 5c-27 -44 -64 -79 -112 -103s-102 -36 -162 -36c-143 0 -255 44 -337 132s-123 211 -123 370c0 152 43 277 131 374c88 98 195 146 321 146c152 0 272 -47 360 -143c88 -95 131 -236 131 -422v-264
c0 -227 -46 -396 -140 -507c-94 -110 -219 -165 -376 -165c-50 0 -102 5 -155 15c-53 9 -101 24 -143 44l2 12c14 69 82 110 151 96h2c42 -8 90 -13 143 -13zM552 614c72 0 133 16 181 47c49 32 84 72 105 121v154c0 129 -24 226 -73 292c-50 65 -121 98 -215 98
c-73 0 -135 -34 -185 -102c-51 -68 -76 -156 -76 -263c0 -105 23 -189 70 -252s111 -95 193 -95z" />
    <glyph glyph-name="colon" unicode=":" horiz-adv-x="419" 
d="M353 980c0 -60 -49 -109 -109 -109s-109 49 -109 109s49 109 109 109s109 -49 109 -109zM353 102c0 -60 -49 -109 -109 -109s-109 49 -109 109s49 109 109 109s109 -49 109 -109z" />
    <glyph glyph-name="semicolon" unicode=";" horiz-adv-x="424" 
d="M346 75c0 -62 -14 -128 -47 -197c-30 -69 -73 -126 -126 -171v0c-55 38 -81 107 -55 169c7 15 12 29 17 44c15 48 22 98 22 153v145h189v-143zM245 875c-58 0 -106 47 -106 105v6c0 58 48 105 106 105v0c58 0 105 -47 105 -105v-6c0 -58 -47 -105 -105 -105z" />
    <glyph glyph-name="less" unicode="&#x3c;" horiz-adv-x="1017" 
d="M897 126v0l-822 365v143l822 365v-1c0 -113 -70 -214 -175 -253l-480 -181v-5l480 -179c105 -39 175 -140 175 -254z" />
    <glyph glyph-name="equal" unicode="=" horiz-adv-x="1127" 
d="M990 829h-674c-91 0 -165 73 -165 164v0h674c91 0 165 -73 165 -164v0zM990 410h-674c-91 0 -165 74 -165 165v0h674c91 0 165 -74 165 -165v0z" />
    <glyph glyph-name="greater" unicode="&#x3e;" horiz-adv-x="1060" 
d="M160 977l822 -365v-143l-822 -365v1c0 113 70 214 175 253l480 181v5l-480 179c-105 39 -175 140 -175 254z" />
    <glyph glyph-name="question" unicode="?" horiz-adv-x="953" 
d="M360 417c1 97 9 163 25 200c15 36 56 85 124 145c65 78 111 137 139 178c28 42 41 92 41 151c0 70 -18 123 -55 161c-38 37 -91 56 -160 56c-60 0 -111 -16 -153 -49c-21 -16 -37 -37 -47 -61c-21 -48 -64 -83 -116 -83h-85l-3 6c-2 106 35 191 111 255
c77 64 174 96 293 96c130 0 231 -33 303 -99c71 -66 107 -159 107 -277c0 -85 -23 -163 -69 -234c-47 -70 -108 -142 -185 -216c-35 -36 -56 -68 -64 -96v-1c-20 -78 -91 -132 -171 -132h-35zM462 -20h-5c-54 0 -99 44 -99 99v0c0 112 91 203 203 203v0v-203
c0 -55 -44 -99 -99 -99z" />
    <glyph glyph-name="at" unicode="@" horiz-adv-x="1821" 
d="M1507 1174c134 -166 195 -390 184 -673c-5 -141 -46 -263 -118 -364c-74 -102 -183 -153 -330 -153c-48 0 -90 13 -125 40c-36 27 -60 67 -76 116l-14 101c-2 8 -2 17 -2 24c2 9 2 18 3 29l48 533c-19 9 -38 15 -55 20c-20 4 -39 7 -58 7c-83 0 -148 -36 -190 -108
c-45 -73 -73 -183 -86 -331c-7 -91 0 -164 21 -212c22 -49 58 -73 106 -73c42 0 80 7 114 24c28 12 52 31 75 57l1 -10c11 -71 -21 -144 -83 -178h-1c-46 -28 -102 -39 -165 -39c-83 0 -147 39 -192 118c-47 80 -63 184 -51 313c15 172 61 310 136 414
c76 103 167 154 276 154c70 0 126 -9 167 -26c43 -17 88 -43 139 -79l-5 -5h6l-48 -579c-7 -72 1 -123 20 -149s47 -43 81 -43c82 0 146 38 195 114c48 75 76 169 81 285c10 253 -36 449 -143 590c-106 142 -269 211 -492 211c-203 0 -366 -75 -489 -228
c-124 -153 -192 -352 -200 -597c-14 -247 37 -443 148 -589c110 -144 270 -216 478 -216c56 0 115 7 175 20c19 6 37 11 54 17c57 18 115 -11 134 -65c-42 -27 -101 -51 -168 -66c-69 -14 -136 -24 -200 -24c-252 0 -446 83 -583 248s-200 390 -186 675
c11 280 94 507 247 683c152 175 350 261 596 261c249 0 442 -81 575 -247z" />
    <glyph glyph-name="A" unicode="A" 
d="M1344 140c61 -8 107 -60 107 -122v-18h-417v21c0 61 44 112 103 122l7 2l-96 267h-516v0c33 98 124 164 228 164h228l-225 623h-6l-388 -1054l6 -2c59 -10 103 -62 103 -123v-20h-415v17c0 62 45 115 107 123l507 1311h169z" />
    <glyph glyph-name="B" unicode="B" horiz-adv-x="1345" 
d="M1179 645c51 -68 76 -146 76 -235c0 -133 -43 -234 -130 -305c-86 -70 -203 -105 -351 -105h-698c0 73 52 135 123 147l39 7v1144l-38 6c-72 13 -124 75 -124 149h162h474c152 0 270 -33 356 -99c85 -65 128 -163 128 -294c0 -65 -20 -123 -61 -174
c-41 -50 -95 -88 -163 -113c88 -19 156 -61 207 -128zM983 220c49 44 74 107 74 188c0 85 -21 152 -62 201c-42 48 -105 72 -191 72h-318v0c0 85 68 154 153 154h124c71 2 127 23 171 63s65 95 65 166c0 78 -24 137 -74 176c-49 39 -120 58 -213 58h-277v-1144h339
c90 0 159 22 209 66z" />
    <glyph glyph-name="C" unicode="C" horiz-adv-x="1321" 
d="M1192 1003h-23c-67 0 -124 47 -137 114v0c-13 74 -62 137 -131 167l-2 1c-47 19 -102 29 -167 29c-151 0 -266 -54 -348 -164c-80 -109 -121 -248 -121 -416v-23c0 -168 40 -307 119 -417c80 -110 189 -165 330 -165c67 0 126 10 180 31v0c74 28 127 94 141 171v0
c13 64 67 110 131 110h28v-96c0 -129 -73 -247 -189 -306v0c-83 -42 -180 -63 -291 -63c-188 0 -343 69 -464 209c-121 139 -181 315 -181 526v21c0 212 59 389 178 528c119 140 275 209 467 209c111 0 208 -21 291 -64c1 0 2 -1 3 -1c116 -61 186 -184 186 -314v-87z" />
    <glyph glyph-name="D" unicode="D" horiz-adv-x="1419" 
d="M681 1301h-250v-1147h250c135 0 241 44 318 133c78 89 117 202 117 341v201c0 137 -39 250 -117 339c-77 89 -183 133 -318 133zM236 1454h447c190 0 342 -58 458 -175c115 -117 173 -268 173 -453v-199c0 -185 -58 -336 -173 -453c-116 -116 -268 -174 -458 -174h-609
c0 73 52 135 124 147l38 7v1146l-37 6c-73 13 -125 75 -125 148h162z" />
    <glyph glyph-name="E" unicode="E" horiz-adv-x="1306" 
d="M75 0v0c0 73 52 135 124 147l39 7v1148l-39 7c-72 12 -124 75 -124 147v1h1119v-350h-1c-95 0 -175 73 -182 168l-3 27h-573v-471h557v0c0 -86 -69 -155 -155 -155h-402v-522h586l2 28c8 94 87 167 182 167v0v-349h-1130z" />
    <glyph glyph-name="F" unicode="F" horiz-adv-x="1273" 
d="M77 1454h1124v-350c-95 0 -174 73 -182 167l-2 28h-581v-502v-155v-490l39 -6c72 -13 124 -75 124 -148h-522c0 73 52 135 124 148l39 6v1147l-38 7c-73 12 -125 75 -125 148zM461 642v0c0 86 69 155 155 155h383c0 -85 -69 -155 -155 -155h-383z" />
    <glyph glyph-name="G" unicode="G" horiz-adv-x="1387" 
d="M1232 162c-43 -45 -106 -87 -189 -126c-83 -40 -191 -60 -324 -60c-194 0 -352 69 -475 205c-122 136 -183 313 -183 530v24c0 219 60 395 181 531c122 136 283 203 484 203c108 0 203 -16 284 -50c51 -21 97 -46 138 -76c44 -31 68 -83 68 -137v-183h-1
c-80 0 -150 55 -169 133v0c-11 49 -44 92 -89 114c-14 7 -29 13 -45 19c-46 17 -101 26 -166 26c-157 0 -277 -54 -362 -161s-127 -246 -127 -417v-26c0 -173 41 -314 123 -421c82 -106 195 -160 339 -160c79 0 144 8 195 25c50 16 91 35 121 55v318l-94 3
c-80 4 -144 70 -144 151v0h435v-520z" />
    <glyph glyph-name="H" unicode="H" horiz-adv-x="1573" 
d="M475 147c71 -12 124 -75 124 -147h-521c0 72 52 135 123 147l39 6v1143l-38 7c-72 12 -124 75 -124 148h521c0 -73 -53 -136 -125 -148l-38 -7v-501v-154v-488zM1375 147c71 -12 123 -75 123 -147h-521v0c0 72 52 135 124 147l39 6v488h-680v36c0 65 53 118 118 118h562
v501l-38 7c-72 12 -125 75 -125 148v0h163h196h162c0 -73 -52 -136 -124 -148l-38 -7v-1143z" />
    <glyph glyph-name="I" unicode="I" horiz-adv-x="662" 
d="M64 1454v0h522v0c0 -73 -53 -136 -125 -148l-38 -7v-1145l39 -7c72 -12 124 -74 124 -147v0h-522v0c0 73 52 135 124 147l39 7v1145l-38 7c-72 12 -125 75 -125 148z" />
    <glyph glyph-name="J" unicode="J" horiz-adv-x="1183" 
d="M961 1309v-903c0 -130 -41 -233 -123 -310c-84 -76 -190 -115 -322 -115c-141 0 -253 36 -335 108c-83 71 -124 174 -120 310l2 6v0c90 0 178 -49 212 -134c11 -26 27 -49 46 -69c47 -44 111 -67 195 -67c73 0 132 26 178 74c46 50 69 115 69 197v903l-163 -1v0
c-76 0 -138 62 -138 137v19h499v-155z" />
    <glyph glyph-name="K" unicode="K" horiz-adv-x="1373" 
d="M1042 0l-566 612l-40 -40v-418l1 -154h-360c0 73 52 135 123 147l39 7v1145l-38 7c-72 12 -124 75 -124 148h358l1 -155l1 -488l566 643h248c0 -73 -52 -136 -125 -150l-12 -2l-499 -551l540 -600l13 -3c72 -13 124 -75 124 -148h-250z" />
    <glyph glyph-name="L" unicode="L" horiz-adv-x="1199" 
d="M76 0v0c0 73 52 135 123 147l39 7v1145l-38 7c-72 12 -124 75 -124 148v0h162h197h163v0c0 -73 -53 -136 -125 -148l-38 -7v-1145h534c85 0 154 -69 154 -154v0h-1047z" />
    <glyph glyph-name="M" unicode="M" horiz-adv-x="1905" 
d="M1489 1164l-5 1l-471 -1165h-131l-470 1164l-5 -1l20 -588v-421l39 -7c71 -12 124 -74 124 -147v0h-522v0c0 73 52 135 123 147l39 7v1145l-37 7c-73 12 -125 75 -125 148v0h162h195c34 0 65 -21 78 -54l442 -1127h6l442 1127c12 33 43 54 78 54h358v0
c0 -73 -53 -136 -125 -148l-38 -7v-1145l39 -7c72 -12 124 -74 124 -147v0h-522v0c0 73 52 135 124 147l39 7v421z" />
    <glyph glyph-name="N" unicode="N" horiz-adv-x="1560" 
d="M1492 1454v0c0 -73 -53 -136 -125 -148l-38 -7v-1299h-197l-699 1123l-6 -3v-966l39 -7c71 -12 124 -74 124 -147v0h-522v0c0 73 52 135 123 147l39 7v1145l-37 7c-73 12 -125 75 -125 148v0h162h197l699 -1121l6 1v965l-38 7c-72 12 -125 75 -125 148v0h360h163z" />
    <glyph glyph-name="O" unicode="O" horiz-adv-x="1445" 
d="M1368 738v-21c0 -212 -61 -388 -183 -528c-121 -140 -279 -210 -472 -210c-188 0 -341 70 -458 210s-176 316 -176 528v21c0 211 59 387 176 528s270 211 458 211c193 0 351 -70 472 -211c122 -141 183 -317 183 -528zM1171 717v23c0 169 -41 307 -122 414
s-193 161 -336 161c-137 0 -245 -54 -322 -161s-115 -245 -115 -414v-23c0 -171 38 -310 115 -417s185 -160 322 -160c145 0 258 53 338 160s120 246 120 417z" />
    <glyph glyph-name="P" unicode="P" horiz-adv-x="1301" 
d="M1098 1334c86 -80 129 -185 129 -315c0 -132 -43 -238 -129 -317s-207 -119 -362 -119h-278v0c0 85 69 154 154 154h124c98 0 172 26 221 79s73 120 73 201c0 80 -24 147 -73 201s-123 81 -221 81h-309v-562v-154v-429l39 -7c71 -12 124 -74 124 -147v0h-522
c0 73 52 135 123 147l39 7v1145l-37 7c-73 12 -125 75 -125 148h162h506c155 0 276 -40 362 -120z" />
    <glyph glyph-name="Q" unicode="Q" horiz-adv-x="1446" 
d="M1187 1273c121 -141 182 -317 182 -529v-21c0 -129 -24 -247 -72 -354c-42 -93 -99 -170 -170 -232l-58 41c-41 29 -48 87 -17 127v1c80 107 120 246 120 417v23c0 170 -40 308 -121 415s-194 161 -337 161c-138 0 -245 -54 -322 -161c-77 -108 -115 -246 -115 -415v-23
c0 -170 38 -309 115 -416c77 -108 184 -161 322 -161c14 0 27 1 40 2c-54 56 -56 146 0 204l372 -263c75 -53 81 -163 12 -224l-212 154h-1c-33 -11 -68 -19 -103 -25s-71 -9 -108 -9c-188 0 -341 70 -458 210c-118 140 -176 316 -176 528v21c0 212 58 388 176 529
c117 140 270 211 458 211c193 0 351 -71 473 -211z" />
    <glyph glyph-name="R" unicode="R" horiz-adv-x="1386" 
d="M1267 135l48 -6v-23c0 -57 -45 -105 -102 -106c-79 -1 -135 26 -168 80c-32 53 -48 118 -48 194v113c0 79 -23 143 -69 191c-46 47 -108 72 -185 72h-282v0c0 85 70 154 155 154h70c110 0 190 21 240 63s75 104 75 184c0 77 -24 137 -72 182s-122 67 -223 67h-279v-496
v-154v-496l39 -7c72 -12 124 -74 124 -147v0h-522c0 73 52 135 124 147l38 7v1146l-38 7c-72 12 -124 74 -124 147h162h476c159 0 280 -35 365 -105c84 -71 127 -171 127 -300c0 -70 -20 -133 -59 -188c-39 -54 -96 -97 -169 -128c79 -26 136 -69 171 -127
c35 -59 53 -131 53 -217v-117c0 -45 5 -78 17 -99c11 -21 30 -34 56 -38z" />
    <glyph glyph-name="S" unicode="S" horiz-adv-x="1225" 
d="M1121 1029h-42c-62 0 -116 45 -127 107v0c-14 75 -65 141 -138 165l-1 1c-51 16 -109 25 -175 25c-106 0 -186 -23 -243 -67c-56 -45 -84 -103 -84 -175c0 -63 28 -117 86 -159c57 -43 150 -80 278 -112c154 -39 271 -95 352 -169c80 -75 120 -167 120 -277
c0 -118 -48 -213 -145 -285c-96 -72 -222 -108 -377 -108c-113 0 -213 19 -301 56c-32 13 -62 29 -90 45c-78 47 -123 133 -123 224v148h55c54 0 100 -38 110 -91l1 -7c16 -86 76 -158 158 -189v0c52 -21 116 -31 190 -31c100 0 179 22 237 64s87 99 87 172
c0 67 -26 123 -76 168c-50 46 -139 84 -266 115c-155 36 -276 91 -364 163c-87 71 -130 162 -130 270c0 115 48 210 145 286c98 77 224 115 380 115c102 0 196 -18 280 -53c37 -16 71 -33 102 -51c64 -39 101 -109 101 -184v-166z" />
    <glyph glyph-name="T" unicode="T" horiz-adv-x="1284" 
d="M1254 1400v-267v0c-95 0 -174 72 -183 166v0h-322v-1145l38 -7c72 -12 124 -74 124 -147v0h-522v0c0 73 52 135 124 147l39 7v1145h-324v0c-8 -94 -86 -166 -181 -166h-1v267c0 30 24 54 54 54h1100c30 0 54 -24 54 -54z" />
    <glyph glyph-name="U" unicode="U" horiz-adv-x="1541" 
d="M586 1454v0c0 -73 -53 -136 -125 -148l-38 -6v-833c0 -109 32 -192 94 -249c63 -57 146 -86 248 -86c108 0 195 28 261 85s99 140 99 250v833l-38 6c-72 12 -125 75 -125 148v0h360h162v0c0 -73 -53 -136 -125 -148l-37 -6v-833c0 -157 -52 -279 -155 -362
c-103 -84 -237 -127 -402 -127c-161 0 -291 43 -389 127c-100 83 -150 205 -150 362v833l-37 6c-72 12 -125 75 -125 148v0h162h360z" />
    <glyph glyph-name="V" unicode="V" horiz-adv-x="1470" 
d="M403 1309l-20 -3l326 -945l33 -114h6l33 114l324 946l-17 3c-65 10 -114 66 -114 132v12h459v-10c0 -67 -50 -124 -116 -133h-1l-488 -1311h-168l-487 1311v0c-67 9 -116 66 -116 133v10h459v-12c0 -66 -48 -122 -113 -133z" />
    <glyph glyph-name="W" unicode="W" horiz-adv-x="1910" 
d="M381 1309l-35 -5l187 -801l27 -181l6 -1l39 182l267 951h174l269 -951l40 -186h6l29 186l182 801l-35 6c-65 10 -113 66 -113 132v12h462v-9c0 -67 -50 -124 -117 -133v0l-316 -1312h-176l-288 1009l-26 131h-6l-25 -131l-291 -1009h-175l-316 1312v0
c-67 9 -117 66 -117 133v9h461v-12c0 -66 -48 -122 -113 -133z" />
    <glyph glyph-name="X" unicode="X" horiz-adv-x="1404" 
d="M154 144l21 4l414 585l-404 572l-21 4c-63 10 -109 65 -109 129v16h471v-9c0 -67 -50 -123 -117 -131v0l291 -436l293 436v0c-66 8 -117 64 -117 131v9h475v-16c0 -64 -46 -119 -110 -129l-21 -4l-404 -572l413 -585l24 -4c62 -10 108 -65 108 -128v-16h-471v10
c0 66 50 121 115 129v0l-301 447l-303 -447v0c66 -8 117 -64 117 -131v-8h-473v15c0 64 46 119 109 129z" />
    <glyph glyph-name="Y" unicode="Y" horiz-adv-x="1416" 
d="M837 147c72 -12 125 -74 125 -147h-523v0c0 73 53 135 124 147l39 7v374l-424 783l-1 1c-70 11 -121 71 -121 141v5h500c0 -73 -54 -134 -126 -143l-31 -4l305 -594l94 -204v-359zM853 1458h501v-4c0 -71 -52 -132 -122 -142l-1 -1l-403 -744l-31 60
c-44 84 -44 184 -1 268l214 416l-30 4c-72 9 -127 70 -127 143z" />
    <glyph glyph-name="Z" unicode="Z" horiz-adv-x="1220" 
d="M308 154h631v0c9 94 88 167 183 167v0v-169c0 -84 -68 -152 -152 -152h-882v146l776 1153h-584v0c-7 -94 -86 -166 -181 -166h-1v192c0 71 57 129 129 129h862v-141z" />
    <glyph glyph-name="bracketleft" unicode="[" horiz-adv-x="573" 
d="M388 1503h-33v-1665h33c85 0 154 -70 154 -155v0h-266c-65 0 -118 52 -118 118v1740c0 65 53 118 118 118h266v0c0 -86 -69 -156 -154 -156z" />
    <glyph glyph-name="backslash" unicode="\" horiz-adv-x="841" 
d="M34 1461v0c112 0 212 -69 252 -174l542 -1407v0c-112 0 -213 69 -253 174z" />
    <glyph glyph-name="bracketright" unicode="]" horiz-adv-x="552" 
d="M179 -157h33v1665h-33c-85 0 -155 70 -155 156v0h267c65 0 117 -53 117 -118v-1740c0 -66 -52 -118 -117 -118h-267v0c0 85 70 155 155 155z" />
    <glyph glyph-name="asciicircum" unicode="^" horiz-adv-x="864" 
d="M416 1148l-163 -419h-182l299 727h134l298 -727h-182l-166 419l-16 70h-6z" />
    <glyph glyph-name="underscore" unicode="_" horiz-adv-x="1168" 
d="M1041 0v-154h-922v154h922z" />
    <glyph glyph-name="grave" unicode="`" horiz-adv-x="582" 
d="M159 1503c100 0 191 -64 224 -157l59 -154h-8c-103 0 -195 67 -229 165l-46 146v0z" />
    <glyph glyph-name="a" unicode="a" horiz-adv-x="1128" 
d="M1027 132l28 -5c0 -69 -55 -125 -126 -125h-55c-45 0 -84 33 -91 78v1c-3 24 -5 46 -6 70l-2 155v178h-210c-82 0 -145 -18 -193 -56c-46 -37 -70 -82 -70 -135c0 -48 15 -84 44 -109c30 -25 74 -39 134 -39c64 0 124 16 179 48c30 18 56 38 78 61v-49
c0 -72 -40 -139 -102 -175l-1 -1c-58 -32 -119 -49 -184 -49c-113 0 -199 28 -258 83c-58 55 -87 133 -87 233c0 103 41 182 125 238c82 56 197 84 342 84h203v126c0 64 -20 114 -60 151s-96 56 -167 56c-50 0 -93 -6 -132 -20c-20 -7 -39 -16 -56 -25
c-23 -13 -38 -37 -42 -64c-8 -45 -52 -77 -100 -77h-67v50c0 113 71 218 178 254c0 0 1 2 2 2c71 23 147 35 228 35c124 0 223 -31 299 -94s114 -153 114 -270v-522v-27c2 -32 24 -57 55 -61z" />
    <glyph glyph-name="b" unicode="b" horiz-adv-x="1186" 
d="M968 944c74 -107 112 -247 112 -421v-21c0 -155 -38 -282 -113 -377c-75 -96 -178 -143 -309 -143c-71 0 -132 13 -184 40c0 0 0 1 -1 1c-59 31 -94 95 -94 162v75c0 36 46 -55 74 -74c43 -30 95 -44 155 -44c93 0 162 32 207 99c44 65 68 153 68 261v21
c0 125 -24 226 -69 304s-115 117 -207 117c-61 0 -113 -14 -154 -44c-42 -29 -75 -68 -100 -118v-478l-9 -162c-10 -80 -77 -140 -158 -140h-30v1405l-38 7c-71 11 -124 75 -124 148h359v-606c35 48 77 84 127 110c51 26 108 37 176 37c133 0 237 -52 312 -159z" />
    <glyph glyph-name="c" unicode="c" horiz-adv-x="1104" 
d="M572 130c66 0 123 20 173 61c23 18 41 39 53 61c29 53 82 87 141 87h58l2 -6c3 -93 -38 -177 -125 -249c-86 -72 -187 -109 -302 -109c-158 0 -278 52 -362 155c-83 103 -124 232 -124 388v42c0 155 41 283 125 387c84 103 204 155 361 155c87 0 165 -15 234 -43l2 -1
c103 -43 171 -142 176 -253l3 -105h-47c-65 0 -121 43 -137 106v0c-14 55 -53 99 -106 119v0c-37 14 -79 21 -125 21c-103 0 -177 -37 -222 -112c-44 -74 -67 -166 -67 -274v-42c0 -111 23 -204 67 -277c43 -74 118 -111 222 -111z" />
    <glyph glyph-name="d" unicode="d" horiz-adv-x="1229" 
d="M1039 147c73 -13 125 -75 125 -148h-205c-75 0 -137 55 -146 129l-10 163v503c-26 45 -59 82 -99 108c-41 27 -90 40 -147 40c-93 0 -163 -38 -209 -117c-44 -78 -67 -179 -67 -305v-20c0 -109 22 -197 67 -263s114 -99 207 -99c59 0 108 13 149 40c27 18 51 42 71 71
v-77c0 -64 -33 -127 -90 -155c-1 0 -1 -1 -1 -1c-52 -26 -111 -39 -178 -39c-132 0 -236 49 -311 145c-74 96 -111 222 -111 378v20c0 175 37 315 111 422c75 107 179 161 313 161c64 0 120 -12 169 -36s91 -58 126 -103v443l-38 6c-72 12 -125 75 -125 149h163h197v-1409z
" />
    <glyph glyph-name="e" unicode="e" horiz-adv-x="1101" 
d="M1009 637v-125h-539c-79 1 -142 66 -140 145l1 12l478 -1v27c0 78 -21 145 -63 196c-42 53 -105 80 -187 80c-67 0 -125 -28 -172 -85c-47 -56 -76 -128 -87 -213l-8 -166c3 -105 30 -192 82 -261c50 -68 123 -102 216 -102c67 0 127 10 178 29c8 3 16 7 24 10
c68 30 148 3 187 -60c-39 -38 -91 -70 -157 -96c-64 -26 -141 -39 -232 -39c-154 0 -275 51 -366 153c-90 101 -135 234 -135 396v45c0 157 46 287 140 391c93 103 202 156 330 156c148 0 259 -45 336 -135c76 -89 114 -208 114 -357z" />
    <glyph glyph-name="f" unicode="f" horiz-adv-x="728" 
d="M68 1069v0h166v135c0 114 30 202 90 264s143 94 249 94c23 0 45 -2 68 -6c23 -3 48 -9 76 -15l-24 -148c-12 2 -26 5 -43 7s-34 2 -52 2c-57 0 -100 -16 -127 -50c-28 -34 -42 -83 -42 -148v-135h223v0c0 -80 -64 -145 -144 -145h-79v-772l38 -6c71 -13 123 -74 123 -146
v0h-516v0c0 72 51 133 122 146l38 6v772h-22c-80 0 -144 65 -144 145z" />
    <glyph glyph-name="g" unicode="g" horiz-adv-x="1159" 
d="M988 1083h28v-1076c0 -141 -38 -253 -117 -333c-79 -81 -190 -122 -335 -122c-53 0 -110 7 -171 22c-61 14 -115 33 -161 59l2 10c25 74 104 115 179 95h1c51 -11 99 -19 148 -19c88 0 153 25 194 76c41 49 62 119 62 212v103v179v502c-26 47 -58 84 -100 111
c-41 27 -89 41 -148 41c-94 0 -165 -40 -212 -119c-47 -80 -72 -182 -72 -306v-22c0 -108 24 -197 71 -262c46 -67 117 -101 211 -101c61 0 110 14 150 41c15 9 27 20 39 32v-89c0 -46 -24 -89 -66 -109v-1c-50 -24 -108 -36 -172 -36c-134 0 -240 49 -316 146
c-77 97 -114 223 -114 379v22c0 175 37 317 114 425c76 107 183 161 318 161c69 0 128 -14 181 -40c52 -28 94 -67 129 -118c11 79 78 137 157 137z" />
    <glyph glyph-name="h" unicode="h" horiz-adv-x="1322" 
d="M191 146l39 8v1242l-38 8c-72 12 -124 74 -124 147v0h357v-619c38 53 82 92 137 121c53 29 113 43 179 43c115 0 205 -35 268 -104c64 -69 96 -175 96 -318v-520l38 -8c72 -12 124 -73 124 -146v0h-521v0c0 73 53 134 124 146l39 8v522c0 89 -20 155 -58 197
c-37 42 -94 64 -170 64c-54 0 -103 -13 -147 -39c-44 -25 -80 -60 -109 -103v-641l39 -8c71 -12 123 -73 123 -146v0h-519v0c0 73 52 134 123 146z" />
    <glyph glyph-name="i" unicode="i" horiz-adv-x="673" 
d="M254 1284v178c0 54 44 99 98 99h20c43 0 79 -36 79 -80v0c0 -109 -88 -197 -197 -197zM215 147l39 7v773l-38 6c-72 13 -125 75 -125 149v0h360v-928l39 -7c71 -12 124 -74 124 -147v0h-523v0c0 73 52 135 124 147z" />
    <glyph glyph-name="j" unicode="j" horiz-adv-x="571" 
d="M438 -101c0 -113 -29 -199 -87 -261c-58 -61 -148 -91 -197 -91v0c-86 0 -153 74 -146 159l1 16c10 -4 24 -6 42 -9c17 -2 32 -3 44 -3c44 0 79 14 105 44c25 29 39 79 39 145v1026l-39 7c-73 13 -127 75 -127 150v0h365v-1183zM311 1324c-66 0 -120 54 -120 121v0
c0 66 54 120 120 120v0c67 0 121 -54 121 -120v0c0 -67 -54 -121 -121 -121z" />
    <glyph glyph-name="k" unicode="k" horiz-adv-x="1245" 
d="M1051 150c71 -14 122 -77 122 -149v-1h-238l-506 498l-2 -498h-196h-163c0 73 53 136 124 148l39 6v219v1030l-39 8c-71 11 -124 75 -124 148h359l-1 -904l447 425h248c0 -72 -53 -137 -125 -151l-7 -1l-395 -340z" />
    <glyph glyph-name="l" unicode="l" horiz-adv-x="645" 
d="M68 1562v0h360v-1408l39 -7c72 -12 124 -74 124 -147v0h-523v0c0 73 52 135 124 147l39 7v1252l-38 7c-73 12 -125 75 -125 149z" />
    <glyph glyph-name="m" unicode="m" horiz-adv-x="1935" 
d="M178 147l39 7v773l-38 6c-73 13 -125 76 -125 149v0h202c78 0 143 -59 150 -137l1 -4c69 103 180 161 324 161s250 -67 302 -200c68 123 182 200 330 200c222 0 359 -151 359 -455v-493l38 -7c72 -12 124 -74 124 -147v0h-523v0c0 73 52 135 124 147l39 7v495
c0 107 -18 182 -55 226c-37 45 -91 67 -163 67c-69 0 -124 -24 -166 -73c-41 -48 -65 -109 -72 -182v-533l38 -7c72 -12 125 -74 125 -147v0h-523v0c0 73 52 135 124 147l39 7v495c0 203 -77 293 -220 293c-120 0 -196 -52 -237 -141v-647l38 -7c72 -12 125 -74 125 -147v0
h-523v0c0 73 52 135 124 147z" />
    <glyph glyph-name="n" unicode="n" horiz-adv-x="1318" 
d="M188 147l39 7v773l-39 7c-72 12 -124 74 -124 147v1h202c77 0 142 -59 148 -136l3 -25c72 115 182 181 321 181c233 0 367 -134 367 -419v-529l38 -7c72 -12 125 -74 125 -147v0h-523v0c0 73 52 135 124 147l39 7v525c0 191 -74 263 -229 263c-113 0 -203 -58 -255 -153
v-635l38 -7c72 -12 125 -74 125 -147v0h-523v0c0 73 52 135 124 147z" />
    <glyph glyph-name="o" unicode="o" horiz-adv-x="1149" 
d="M90 529v22c0 160 43 292 130 395c87 104 204 156 353 156s267 -52 354 -155s131 -235 131 -396v-22c0 -161 -43 -293 -130 -396s-204 -154 -353 -154c-150 0 -268 51 -355 154s-130 235 -130 396zM287 551v-22c0 -115 24 -209 72 -284c49 -75 121 -112 216 -112
c93 0 164 37 213 112s73 169 73 284v22c0 113 -24 208 -73 283s-120 113 -215 113s-166 -38 -214 -113s-72 -170 -72 -283z" />
    <glyph glyph-name="p" unicode="p" horiz-adv-x="1150" 
d="M938 958c76 -108 114 -250 114 -427v-21c0 -157 -39 -285 -114 -381c-75 -97 -180 -146 -312 -146c-67 0 -127 11 -177 35h-1c-67 29 -105 98 -105 169v57c21 -28 45 -50 73 -68c40 -25 90 -37 148 -37c94 0 166 35 214 104c49 68 73 157 73 267v21
c0 125 -24 227 -73 307c-48 79 -120 119 -216 119c-56 0 -105 -12 -145 -39c-41 -25 -73 -60 -98 -104v-533v-163v-377l38 -7c73 -12 126 -76 126 -150h-203c-87 0 -159 70 -161 157v1200l2 157h34c78 0 143 -56 154 -132c36 49 80 87 132 113c53 27 113 40 182 40
c135 0 240 -54 315 -161z" />
    <glyph glyph-name="q" unicode="q" horiz-adv-x="1095" 
d="M946 1093h50v-1345c0 -87 -70 -156 -156 -156h-203c0 74 52 137 124 149l39 7v363v169v544c-27 41 -60 73 -98 98c-39 23 -85 35 -137 35c-94 0 -163 -39 -209 -120c-45 -79 -67 -181 -67 -306v-22c0 -109 22 -197 67 -265c44 -68 114 -102 207 -102c54 0 101 12 140 37
c24 15 46 34 66 59v-70c0 -63 -35 -123 -93 -148l-1 -1c-48 -21 -101 -31 -162 -31c-132 0 -236 48 -310 144c-74 95 -112 222 -112 377v22c0 174 38 314 112 421s178 160 313 160c63 0 119 -11 168 -36c49 -23 92 -58 127 -102c9 68 67 119 135 119z" />
    <glyph glyph-name="r" unicode="r" horiz-adv-x="847" 
d="M78 1080v0h180c90 0 166 -68 177 -157v0c31 55 68 98 113 130c45 31 97 47 155 47c15 0 30 -2 47 -4c16 -3 29 -5 37 -7l-26 -183l-111 6c-52 0 -96 -12 -131 -36c-36 -24 -63 -59 -82 -102v-620l38 -7c72 -12 125 -74 125 -147v0h-522v0c0 73 52 135 123 147l40 7v771
l-39 7c-72 12 -124 75 -124 148z" />
    <glyph glyph-name="s" unicode="s" horiz-adv-x="1044" 
d="M914 749h-56c-55 0 -102 37 -115 90v0c-7 30 -24 55 -49 71c-16 9 -33 18 -52 25c-37 14 -78 21 -124 21c-72 0 -123 -16 -158 -46c-34 -32 -51 -69 -51 -113c0 -43 15 -76 46 -101c30 -25 90 -47 183 -67c138 -29 241 -69 307 -120c68 -51 101 -118 101 -203
c0 -97 -39 -175 -117 -235c-79 -60 -180 -90 -306 -90c-83 0 -157 10 -223 28c-38 12 -74 26 -109 43c-42 22 -67 66 -67 113l-1 177h50c58 0 109 -40 123 -96v0c10 -39 37 -72 74 -86c10 -4 21 -7 32 -10c40 -9 80 -14 121 -14c70 0 125 14 165 42c40 30 60 67 60 113
c0 44 -17 80 -50 107c-34 29 -96 53 -189 75c-132 28 -232 67 -298 117c-68 50 -101 116 -101 201c0 89 37 165 114 227c75 63 173 94 294 94c82 0 156 -11 222 -32c43 -15 80 -32 113 -53c32 -20 52 -56 53 -94z" />
    <glyph glyph-name="t" unicode="t" horiz-adv-x="750" 
d="M438 1144v-64h207v0c0 -81 -66 -148 -147 -148h-60v-662c0 -50 11 -87 32 -107c21 -22 50 -31 84 -31c18 0 37 1 60 4c22 3 39 6 54 9v0c17 -80 -37 -159 -118 -172c-20 -3 -36 -5 -46 -5c-81 0 -145 25 -192 73c-48 49 -72 125 -72 229v662h-26c-80 0 -146 67 -146 148
v0h172v263v0c110 0 198 -88 198 -199z" />
    <glyph glyph-name="u" unicode="u" horiz-adv-x="1244" 
d="M869 157c-35 -59 -78 -104 -133 -135c-54 -32 -116 -48 -188 -48c-119 0 -211 38 -278 114c-66 76 -100 195 -100 356v489v0c-73 16 -125 82 -125 156v0h125h199v-647c0 -116 18 -197 52 -240c34 -45 88 -67 161 -67c70 0 130 15 175 44c47 29 81 69 105 122v632l-21 4
c-73 13 -125 78 -125 152v0h146h199v-938l1 -1c74 -16 125 -80 125 -155v0h-143c-91 0 -168 70 -175 162v0z" />
    <glyph glyph-name="v" unicode="v" horiz-adv-x="1143" 
d="M368 939l-39 -6l223 -614l18 -79h6l18 79l216 614l-40 6c-52 8 -91 53 -91 105v36h418v-37c0 -52 -38 -96 -89 -105v0l-363 -938h-148l-366 938v0c-52 9 -89 53 -89 105v37h417v-36c0 -52 -39 -97 -91 -105z" />
    <glyph glyph-name="w" unicode="w" horiz-adv-x="1693" 
d="M388 940l-33 -6l141 -540l23 -131h6l28 131l217 688h158l217 -688l31 -146h7l28 146l133 540l-35 6c-52 8 -91 54 -91 108v34h412v-32c0 -55 -41 -102 -93 -108v0l-274 -942h-159l-210 659l-45 183l-6 -1l-42 -182l-206 -659h-159l-273 942v0c-55 6 -95 54 -95 109v31
h412v-34c0 -54 -38 -100 -92 -108z" />
    <glyph glyph-name="x" unicode="x" horiz-adv-x="1192" 
d="M714 547l-105 -138l-212 -272c55 -6 96 -53 96 -109v-28h-425v36c0 52 37 97 88 107l28 6l318 398l-308 385l-26 5c-53 11 -90 56 -90 109v36h423v-28c0 -57 -41 -104 -97 -111l202 -260l203 261c-55 6 -97 53 -97 109v29h426v-38c0 -52 -36 -96 -88 -106l-28 -6z
M1061 143c50 -10 87 -54 87 -106v-37h-423v29c0 55 41 102 95 108l-90 115c-62 81 -63 192 -1 273l1 1l301 -377z" />
    <glyph glyph-name="y" unicode="y" horiz-adv-x="1162" 
d="M1031 942v0l-418 -1125c-28 -74 -69 -138 -121 -193s-122 -83 -210 -83c-16 0 -36 3 -61 6c-25 4 -45 8 -58 11l20 157c-4 1 9 0 36 -2c28 -2 46 -3 54 -3c42 0 77 19 104 55c26 38 49 81 68 129l48 113l-363 934v0c-58 10 -100 60 -100 119v27h444v-4
c0 -72 -52 -134 -124 -146v0l190 -543l37 -141h6l229 684l-28 5c-55 9 -97 58 -97 115v30h443v-29c0 -58 -42 -107 -99 -116z" />
    <glyph glyph-name="z" unicode="z" horiz-adv-x="1084" 
d="M340 153h441v1c9 94 88 166 182 166v0v-320h-856v138l583 785h-395v0c-9 -94 -87 -165 -181 -165h-1v321h817v-134z" />
    <glyph glyph-name="braceleft" unicode="{" horiz-adv-x="701" 
d="M630 -363c-130 37 -223 95 -278 175s-82 177 -82 290v205c0 124 -47 206 -144 230c-38 9 -64 42 -64 80v0c0 39 26 72 64 81c97 23 144 103 144 229v206c0 114 27 211 82 290c55 80 148 138 278 175v0c20 -60 0 -125 -49 -163c-81 -63 -114 -168 -114 -302v-206
c0 -140 -56 -250 -169 -310c113 -61 169 -173 169 -310v-205c0 -134 33 -238 114 -301c49 -38 70 -103 50 -162z" />
    <glyph glyph-name="bar" unicode="|" horiz-adv-x="451" 
d="M306 -268v0c-87 0 -157 70 -157 157v1569v0c86 0 157 -71 157 -157v-1569z" />
    <glyph glyph-name="braceright" unicode="}" horiz-adv-x="701" 
d="M66 1597c130 -37 223 -95 278 -175s82 -177 82 -290v-205c0 -124 47 -206 144 -230c37 -9 64 -42 64 -80v0c0 -39 -26 -72 -64 -81c-97 -23 -144 -103 -144 -229v-206c0 -114 -27 -211 -82 -290c-55 -80 -148 -138 -278 -175v1c-20 59 0 124 50 162
c80 63 113 168 113 302v206c0 140 56 250 169 310c-113 61 -169 173 -169 310v205c0 135 -33 238 -113 301c-50 38 -71 103 -50 163v1z" />
    <glyph glyph-name="asciitilde" unicode="~" horiz-adv-x="1386" 
d="M1261 739c0 -91 -29 -171 -88 -238c-58 -67 -130 -101 -217 -101c-59 0 -114 11 -163 33s-101 58 -158 107c-80 64 -142 96 -207 96c-45 0 -83 -18 -115 -53c-8 -9 -14 -18 -20 -28c-35 -58 -100 -90 -168 -82v0c0 91 28 168 85 232c57 65 130 97 218 97
c117 0 210 -46 323 -139c79 -68 137 -97 205 -97c44 0 82 19 114 57c9 11 17 21 23 33c34 59 100 92 168 83v0z" />
    <glyph glyph-name="exclamdown" unicode="&#xa1;" horiz-adv-x="481" 
d="M339 604v-978h-197v978h197zM339 1082v-206h-197v206h197z" />
    <glyph glyph-name="cent" unicode="&#xa2;" horiz-adv-x="1118" 
d="M589 133c65 0 123 20 172 60c50 41 75 90 75 149h178l2 -6c3 -82 -31 -157 -100 -225s-153 -110 -252 -126v-230h-197v237c-119 25 -209 86 -271 183c-61 97 -92 212 -92 345v42c0 131 31 245 92 342c62 97 152 158 271 185v229h197v-220c139 -16 253 -72 330 -157
l9 -240h-157l-43 170c-47 45 -122 76 -214 76c-103 0 -177 -37 -222 -112c-44 -74 -66 -165 -66 -273v-42c0 -111 22 -203 66 -277c44 -73 118 -110 222 -110z" />
    <glyph glyph-name="sterling" unicode="&#xa3;" horiz-adv-x="1179" 
d="M841 615h-414l6 -149c0 -120 -21 -233 -60 -312h551l16 167h167v-167h1l-1 -154h-975v154h10c31 9 55 46 71 111s24 132 24 201l-6 149h-163v155h157l-10 270c0 136 37 243 112 320c75 78 175 117 300 117c133 0 237 -35 310 -105c73 -69 109 -161 106 -276l-2 -6h-189
c0 79 -21 137 -64 175c-42 38 -96 57 -161 57c-132 0 -215 -105 -215 -282l10 -270h419v-155z" />
    <glyph glyph-name="currency" unicode="&#xa4;" horiz-adv-x="1461" 
d="M1220 -27l-133 135c-103 -83 -228 -128 -363 -128s-259 44 -362 127l-130 -133l-138 138l138 140c-67 101 -103 224 -103 356c0 136 39 264 111 368l-146 149l138 139l143 -146c99 73 221 116 349 116c129 0 250 -43 350 -118l146 149l140 -140l-150 -153
c69 -104 109 -229 109 -364c0 -131 -37 -252 -101 -353l142 -143zM311 608c0 -125 40 -232 120 -321c81 -88 178 -132 293 -132c113 0 210 44 290 132c81 89 121 196 121 321c0 124 -40 230 -121 318c-80 88 -177 132 -290 132c-115 0 -212 -44 -293 -132
c-80 -88 -120 -194 -120 -318z" />
    <glyph glyph-name="yen" unicode="&#xa5;" horiz-adv-x="1386" 
d="M1335 1456v-127l-139 -20l-333 -571h312v-123h-383v-167h383v-122h-383v-172l163 -28v-126h-523v126l163 28v172h-375v122h375v167h-375v123h311l-333 570l-139 21v127h442v-127l-87 -15l283 -521l283 521l-86 15v127h441z" />
    <glyph glyph-name="brokenbar" unicode="&#xa6;" horiz-adv-x="496" 
d="M347 -270h-197v792h197v-792zM347 1456v-758h-197v758h197z" />
    <glyph glyph-name="section" unicode="&#xa7;" horiz-adv-x="1233" 
d="M1144 431c0 -125 -67 -221 -184 -274c93 -68 140 -154 140 -285c0 -115 -44 -204 -133 -269s-208 -98 -358 -98c-148 0 -272 34 -373 103c-100 68 -148 175 -145 322l2 6l188 2c0 -95 32 -165 96 -210c65 -45 142 -68 232 -68c91 0 162 20 215 60c53 39 79 89 79 150
s-24 108 -72 141c-48 34 -140 72 -276 114c-159 42 -277 94 -352 156s-113 152 -113 270c0 121 64 218 180 273c-91 67 -135 157 -135 286c0 111 44 199 133 266s209 101 359 101c155 0 275 -37 362 -112c87 -74 130 -178 127 -313l-3 -6h-188c0 79 -27 144 -80 197
s-125 79 -218 79c-97 0 -171 -20 -221 -60c-49 -39 -74 -89 -74 -150c0 -66 22 -116 67 -149s137 -68 278 -107c163 -46 281 -99 355 -160c75 -60 112 -148 112 -265zM599 689c-64 16 -119 33 -167 52c-97 -25 -145 -96 -145 -188c0 -67 22 -118 67 -152s138 -71 279 -110
c69 -21 117 -35 162 -51c97 27 153 97 153 188c0 61 -25 109 -74 144c-49 36 -140 75 -275 117z" />
    <glyph glyph-name="dieresis" unicode="&#xa8;" horiz-adv-x="992" 
d="M753 1253h-19c-58 0 -106 47 -106 105v0c0 58 48 106 106 106h19c58 0 105 -48 105 -106v0c0 -58 -47 -105 -105 -105zM257 1253h-19c-58 0 -106 47 -106 105v0c0 58 48 106 106 106h19c58 0 105 -48 105 -106v0c0 -58 -47 -105 -105 -105z" />
    <glyph glyph-name="copyright" unicode="&#xa9;" horiz-adv-x="1595" 
d="M968 596h146l2 -6c5 -201 -119 -308 -328 -308c-107 0 -192 35 -255 106s-94 164 -94 281v119c0 115 31 209 94 280s148 107 255 107c105 0 186 -26 245 -79s87 -129 84 -228l-2 -6h-146c0 127 -61 182 -181 182c-63 0 -112 -24 -146 -71s-51 -108 -51 -184v-120
c0 -156 70 -257 197 -257c120 0 180 53 180 184zM212 729c0 -177 57 -326 172 -447s254 -182 418 -182c163 0 301 61 416 182s172 270 172 447c0 175 -57 323 -172 444s-253 181 -416 181c-164 0 -303 -60 -418 -181c-115 -120 -172 -268 -172 -444zM92 729
c0 210 69 387 207 531s306 216 503 216s364 -72 502 -216s207 -321 207 -531c0 -211 -69 -388 -208 -533c-138 -145 -305 -217 -501 -217c-197 0 -365 72 -503 217s-207 322 -207 533z" />
    <glyph glyph-name="ordfeminine" unicode="&#xaa;" horiz-adv-x="894" 
d="M773 706h-175c-11 28 -17 60 -21 95c-44 -63 -119 -109 -222 -109c-159 0 -249 87 -249 228c0 147 114 230 330 230h138v52c0 84 -40 131 -117 131c-89 0 -140 -38 -140 -103l-163 13l-1 6c-4 65 22 120 79 163s132 65 225 65c177 0 290 -97 290 -276v-314
c0 -68 7 -125 26 -181zM397 831c34 0 69 10 105 29c36 20 60 42 72 66v110h-137c-100 0 -159 -51 -159 -112c0 -60 39 -93 119 -93z" />
    <glyph glyph-name="guillemotleft" unicode="&#xab;" horiz-adv-x="935" 
d="M501 914l-255 -399l255 -398h-148l-295 389v19l295 389h148zM835 914l-255 -399l255 -398h-148l-295 389v19l295 389h148z" />
    <glyph glyph-name="logicalnot" unicode="&#xac;" horiz-adv-x="1122" 
d="M955 802v-427h-197v262h-637v165h834z" />
    <glyph glyph-name="registered" unicode="&#xae;" horiz-adv-x="1595" 
d="M92 729c0 210 69 387 207 531s306 216 503 216s364 -72 502 -216s207 -321 207 -531c0 -211 -69 -388 -208 -533c-138 -145 -305 -217 -501 -217c-197 0 -365 72 -503 217s-207 322 -207 533zM212 729c0 -177 57 -326 172 -447s254 -182 418 -182c163 0 301 61 416 182
s172 270 172 447c0 175 -57 323 -172 444s-253 181 -416 181c-164 0 -303 -60 -418 -181c-115 -120 -172 -268 -172 -444zM816 654h-159v-338h-149v850h280c203 0 324 -89 324 -257c0 -81 -45 -146 -128 -187c88 -35 125 -107 125 -207v-56c0 -55 4 -99 17 -127v-16h-153
c-12 28 -13 88 -13 144v54c0 96 -41 140 -144 140zM657 1036v-252h152c87 1 155 45 155 120c0 97 -45 132 -176 132h-131z" />
    <glyph glyph-name="macron" unicode="&#x2c9;" horiz-adv-x="1028" 
d="M715 1309h-574v0c0 80 65 146 146 146h574v0c0 -81 -65 -146 -146 -146z" />
    <glyph glyph-name="macron" unicode="&#xaf;" horiz-adv-x="1028" 
d="M715 1309h-574v0c0 80 65 146 146 146h574v0c0 -81 -65 -146 -146 -146z" />
    <glyph glyph-name="degree" unicode="&#xb0;" horiz-adv-x="757" 
d="M124 1216c0 71 25 132 75 183c51 52 111 78 181 78c69 0 129 -26 178 -78c50 -51 75 -112 75 -183c0 -72 -25 -133 -75 -183c-49 -49 -109 -74 -178 -74c-71 0 -131 25 -181 74c-50 50 -75 111 -75 183zM254 1216c0 -37 12 -67 36 -91c25 -24 55 -36 90 -36
c69 0 123 54 123 127s-54 130 -123 130c-35 0 -65 -13 -90 -38c-24 -25 -36 -55 -36 -92z" />
    <glyph glyph-name="plusminus" unicode="&#xb1;" horiz-adv-x="1057" 
d="M633 1267v-411h358v-154h-358v-413h-178v413h-380v154h380v411h178zM959 160v-155h-835v155h835z" />
    <glyph glyph-name="twosuperior" unicode="&#xb2;" horiz-adv-x="827" 
d="M714 797v-130h-592v130l302 262c46 39 76 71 90 96c15 25 22 52 22 81c0 67 -37 112 -114 112c-89 0 -140 -47 -140 -114h-161l-2 6c-4 66 22 122 78 169s131 70 225 70c180 0 287 -89 287 -244c0 -53 -15 -99 -45 -136c-29 -37 -83 -91 -160 -161l-153 -135l2 -6h361z
" />
    <glyph glyph-name="threesuperior" unicode="&#xb3;" horiz-adv-x="845" 
d="M291 1137h133c89 0 131 40 131 109c0 59 -49 101 -141 101c-75 0 -126 -35 -126 -88h-162l-2 6c-4 63 22 114 78 153c57 40 127 60 212 60c193 0 313 -82 313 -229c0 -73 -50 -137 -133 -172c95 -32 146 -96 146 -187c0 -74 -30 -132 -90 -173s-139 -62 -236 -62
c-85 0 -157 19 -218 58s-89 95 -85 169l1 6h163c0 -61 54 -103 139 -103c96 0 155 43 155 107c0 84 -48 119 -145 119h-133v126z" />
    <glyph glyph-name="acute" unicode="&#xb4;" horiz-adv-x="599" 
d="M456 1488c0 -100 -64 -191 -157 -224l-154 -59v8c0 103 67 195 165 229z" />
    <glyph glyph-name="mu" unicode="&#xb5;" horiz-adv-x="1315" 
d="M909 0l-9 109c-59 -85 -144 -130 -255 -130c-96 0 -167 21 -220 68v-463h-196v1343l-163 28v127h163h196v-622c0 -126 18 -212 55 -258s89 -69 157 -69c132 0 211 49 252 144v650l-163 28v127h360v-928l163 -28v-126h-340z" />
    <glyph glyph-name="paragraph" unicode="&#xb6;" horiz-adv-x="1090" 
d="M653 520h-83c-156 0 -277 43 -363 129c-86 87 -129 200 -129 339c0 138 43 250 129 337c87 87 208 131 363 131h443v-127l-163 -28v-1147l163 -28v-126h-523v126l163 28v366z" />
    <glyph glyph-name="periodcentered" unicode="&#xb7;" horiz-adv-x="516" 
d="M357 836v-212h-198v212h198z" />
    <glyph glyph-name="cedilla" unicode="&#xb8;" horiz-adv-x="470" 
d="M276 0l-13 -52c88 -15 152 -66 152 -173c0 -128 -110 -210 -306 -210v1c-3 54 31 103 82 120c44 15 71 44 71 86c0 64 -43 84 -159 93l32 135h141z" />
    <glyph glyph-name="onesuperior" unicode="&#xb9;" horiz-adv-x="547" 
d="M396 1477v-812h-174v655h-127v134z" />
    <glyph glyph-name="ordmasculine" unicode="&#xba;" horiz-adv-x="941" 
d="M121 1025v117c0 99 31 179 93 241c63 63 147 94 252 94s189 -31 252 -94c63 -62 94 -142 94 -241v-117c0 -99 -31 -180 -94 -242c-62 -61 -145 -92 -250 -92c-106 0 -190 31 -253 92c-63 62 -94 143 -94 242zM293 1142v-117c0 -117 59 -193 175 -193
c111 0 171 77 171 193v117c0 112 -61 191 -173 191s-173 -79 -173 -191z" />
    <glyph glyph-name="guillemotright" unicode="&#xbb;" horiz-adv-x="938" 
d="M105 949h148l295 -389v-19l-295 -389h-148l254 398zM450 949h148l295 -389v-19l-295 -389h-148l254 398z" />
    <glyph glyph-name="onequarter" unicode="&#xbc;" horiz-adv-x="1443" 
d="M484 1476v-812h-174v655h-127v134zM1141 1256l-711 -1138l-109 67l711 1138zM1380 801v-519h126v-130h-126v-152h-170v152h-417l-8 102l421 547h174zM1191 571l-224 -289h243v310l-6 1z" />
    <glyph glyph-name="onehalf" unicode="&#xbd;" horiz-adv-x="1480" 
d="M1154 1256l-711 -1138l-109 67l711 1138zM484 1476v-812h-174v655h-127v134zM1524 130v-130h-592v130l302 262c46 39 76 71 90 96c15 25 22 52 22 81c0 67 -37 112 -114 112c-89 0 -140 -47 -140 -114h-161l-2 6c-4 66 22 122 78 169s131 70 225 70
c180 0 287 -89 287 -244c0 -53 -15 -99 -45 -136c-29 -37 -83 -91 -160 -161l-153 -135l2 -6h361z" />
    <glyph glyph-name="threequarters" unicode="&#xbe;" horiz-adv-x="1690" 
d="M1325 1256l-711 -1138l-109 67l711 1138zM1569 801v-519h126v-130h-126v-152h-170v152h-417l-8 102l421 547h174zM1380 571l-224 -289h243v310l-6 1zM307 1138h133c89 0 131 40 131 109c0 59 -49 101 -141 101c-75 0 -126 -35 -126 -88h-162l-2 6c-4 63 22 114 78 153
c57 40 127 60 212 60c193 0 313 -82 313 -229c0 -73 -50 -137 -133 -172c95 -32 146 -96 146 -187c0 -74 -30 -132 -90 -173s-139 -62 -236 -62c-85 0 -157 19 -218 58s-89 95 -85 169l1 6h163c0 -61 54 -103 139 -103c96 0 155 43 155 107c0 84 -48 119 -145 119h-133v126z
" />
    <glyph glyph-name="questiondown" unicode="&#xbf;" horiz-adv-x="890" 
d="M391 672h197c-1 -97 -10 -165 -26 -202s-58 -86 -125 -147c-67 -80 -115 -141 -142 -182s-40 -91 -40 -149c0 -143 76 -220 217 -220c60 0 111 17 154 50s65 81 65 145h188l3 -6c1 -107 -37 -193 -115 -258c-77 -65 -176 -97 -295 -97c-264 0 -414 141 -414 381
c0 85 23 162 69 233c47 71 109 145 187 221c35 35 57 67 65 96s12 74 12 135zM385 874v209h205v-209h-205z" />
    <glyph glyph-name="AE" unicode="&#xc6;" horiz-adv-x="2096" 
d="M2013 319v0v-237c0 -47 -38 -84 -84 -84h-974v0c0 73 52 135 124 147l32 6l-8 197l-7 179l-31 710l-5 2l-410 -712h241c99 0 181 -80 183 -179v0h-527l-121 -210v0c47 -8 82 -49 82 -97v-43h-458v40c0 49 36 91 85 98l56 8l736 1216c35 58 98 94 167 94h773
c46 0 84 -37 84 -84v-238v0c-95 0 -175 72 -183 167v0h-508l20 -466h590v0c0 -86 -70 -155 -155 -155h-429l22 -526h522v1c9 94 88 166 183 166z" />
    <glyph glyph-name="multiply" unicode="&#xd7;" horiz-adv-x="1070" 
d="M78 351l327 334l-205 209c-68 69 -67 180 1 249l3 2l326 -333l202 206c69 70 181 71 251 1v0l-328 -334l205 -209c68 -69 68 -180 -1 -249l-2 -2l-327 332l-201 -205c-69 -70 -182 -70 -251 -1v0z" />
    <glyph glyph-name="Oslash" unicode="&#xd8;" horiz-adv-x="1404" 
d="M1135 1318c147 -136 233 -344 233 -580v-21c0 -213 -61 -388 -182 -528c-122 -140 -280 -210 -473 -210c-120 0 -227 30 -320 90l-20 -35c-48 -80 -133 -128 -226 -128v0l144 244c-136 135 -212 336 -212 567v21c0 210 59 387 177 528c116 141 269 211 457 211
c116 0 222 -30 317 -83v0c46 76 128 123 217 123h5zM1171 717v23c0 172 -45 319 -127 417l-6 1l-542 -917v0c-52 66 -58 156 -15 227l464 783c-66 41 -143 64 -232 64c-137 0 -244 -54 -321 -162c-77 -106 -116 -244 -116 -413v-23c0 -164 37 -307 108 -401h6
c13 -39 88 -103 88 -103c64 -48 143 -73 235 -73c145 0 259 53 338 159c80 108 120 247 120 418z" />
    <glyph glyph-name="Thorn" unicode="&#xde;" horiz-adv-x="1277" 
d="M70 0v126l163 28v1147l-163 28v127h360h163v-127l-163 -28v-138h269c154 0 274 -39 361 -118s130 -181 130 -307c0 -127 -43 -229 -130 -308c-87 -78 -207 -117 -361 -117h-269v-159l163 -28v-126h-523zM699 1009h-269v-542h269c97 0 171 26 220 78s74 116 74 191
c0 76 -25 140 -74 193s-123 80 -220 80z" />
    <glyph glyph-name="germandbls" unicode="&#xdf;" horiz-adv-x="1417" 
d="M445 1h-410v0c0 74 60 135 141 148l45 7v927c0 148 45 264 134 347s204 124 343 124c122 0 222 -29 298 -85c77 -58 115 -143 115 -253c0 -79 -23 -156 -72 -228c-49 -73 -74 -129 -74 -166c0 -55 66 -130 198 -225c131 -93 197 -187 197 -280c0 -110 -39 -194 -118 -252
c-79 -56 -186 -84 -322 -84c-63 0 -130 7 -198 20c-1 1 -2 1 -2 1c-81 16 -127 89 -106 160l15 49c32 -19 72 -36 122 -52s99 -25 145 -25c165 0 239 68 239 174c0 55 -67 131 -196 226c-132 95 -198 192 -198 290c0 52 25 116 79 188c55 76 80 138 80 188
c0 62 -19 111 -57 147c-39 35 -83 54 -133 54c-160 0 -265 -115 -265 -318v-1082z" />
    <glyph glyph-name="ae" unicode="&#xe6;" horiz-adv-x="1795" 
d="M1701 618v-119h-686v0c0 80 65 145 145 145h344v31c0 81 -20 148 -60 199s-104 77 -189 77c-75 0 -137 -28 -182 -85c-46 -56 -74 -128 -80 -217l-4 -155c1 -106 27 -192 78 -258c54 -66 132 -99 235 -99c69 0 126 9 170 27c6 3 13 5 19 9c72 33 158 3 193 -68v0
c-37 -30 -86 -58 -149 -84c-63 -25 -140 -38 -233 -38c-180 0 -321 67 -409 186c-37 -53 -93 -97 -168 -133c-76 -35 -165 -53 -271 -53c-113 0 -201 29 -263 87c-61 58 -92 137 -92 238c0 211 156 331 449 331h229v85c0 141 -70 227 -201 227c-69 0 -124 -18 -164 -55
c-8 -7 -15 -14 -21 -22c-55 -66 -139 -102 -225 -94l-4 1l-1 6c-3 92 33 168 110 228c77 61 178 91 305 91c153 0 272 -55 339 -158c84 100 205 158 340 158c144 0 253 -43 330 -130s116 -206 116 -358zM777 280v217h-227c-80 0 -142 -19 -187 -56s-67 -83 -67 -137
c0 -99 68 -167 197 -167c51 0 103 14 158 43s97 62 126 100z" />
    <glyph glyph-name="eth" unicode="&#xf0;" horiz-adv-x="1191" 
d="M1074 1409l-215 -123c139 -161 219 -386 219 -653v-98c0 -163 -48 -297 -144 -401c-96 -103 -216 -155 -359 -155c-145 0 -265 47 -358 140s-139 209 -139 347c0 152 46 275 138 370s209 142 351 142c111 0 215 -47 284 -116l4 5c-27 131 -84 240 -163 323l-272 -155
l-77 102l245 140c-48 31 -99 55 -155 76l60 164c100 -29 191 -76 271 -139l233 133zM881 535v100c0 11 -1 39 -1 50c-47 77 -157 138 -313 138c-87 0 -158 -35 -212 -104c-53 -69 -80 -154 -80 -253c0 -88 27 -166 82 -233s129 -100 222 -100c89 0 161 38 217 114
c57 76 85 172 85 288z" />
    <glyph glyph-name="divide" unicode="&#xf7;" horiz-adv-x="1148" 
d="M1072 785v-188h-998v188h998zM673 1202v-203h-198v203h198zM673 383v-203h-198v203h198z" />
    <glyph glyph-name="oslash" unicode="&#xf8;" horiz-adv-x="1149" 
d="M90 529v22c0 160 43 292 130 395c87 104 204 156 353 156c73 0 140 -16 203 -41l73 148h129l-104 -210c117 -99 184 -259 184 -448v-22c0 -161 -43 -293 -130 -396s-204 -154 -353 -154c-69 0 -132 13 -188 34l-73 -148h-129l101 206c-127 96 -196 261 -196 458zM287 551
v-22c0 -119 26 -223 78 -287h6l332 672c-37 21 -82 33 -130 33c-95 0 -166 -38 -214 -113s-72 -170 -72 -283zM861 529v22c0 108 -24 207 -68 271h-6l-328 -664c33 -17 72 -25 116 -25c93 0 164 37 213 112s73 169 73 284z" />
    <glyph glyph-name="thorn" unicode="&#xfe;" horiz-adv-x="1273" 
d="M188 1405l-163 28v127h360v-598c71 91 171 140 302 140c133 0 237 -53 311 -160c75 -106 112 -246 112 -421v-21c0 -156 -37 -282 -112 -378c-74 -95 -177 -143 -308 -143c-133 0 -234 45 -305 134v-374l163 -28v-127h-523v127l163 28v1666zM913 500v21
c0 123 -24 224 -72 303s-119 118 -214 118c-113 0 -193 -55 -242 -144v-523c49 -89 128 -142 244 -142c93 0 164 34 212 102s72 156 72 265z" />
    <glyph glyph-name="Hbar" unicode="&#x126;" horiz-adv-x="1527" 
d="M1309 1456h163v-127l-163 -28v-201h131v-145h-131v-801l163 -28v-126h-523v126l163 28v489h-706v-489l163 -28v-126h-523v126l163 28v801h-161v145h161v201l-163 28v127h523v-127l-163 -28v-201h706v201l-163 28v127h163h197zM406 955v-157h706v157h-706z" />
    <glyph glyph-name="dotlessi" unicode="&#x131;" horiz-adv-x="672" 
d="M253 927l-163 28v127h360v-928l163 -28v-126h-523v126l163 28v773z" />
    <glyph glyph-name="kgreenlandic" unicode="&#x138;" horiz-adv-x="1257" 
d="M62 0v126l163 28v773l-154 28v126h351v-425h126l252 287l-90 12v127h452v-127l-132 -26l-311 -343l344 -436l123 -24v-126h-237l-398 499h-129v-345l163 -28v-126h-523z" />
    <glyph glyph-name="Lslash" unicode="&#x141;" horiz-adv-x="1199" 
d="M594 1456v-127l-163 -28v-449l238 76v-165l-238 -76v-533h506l15 167h168v-321h-1049v126l163 28v471l-154 -49v165l154 49v511l-163 28v127h523z" />
    <glyph glyph-name="lslash" unicode="&#x142;" horiz-adv-x="645" 
d="M422 1560v-687l149 57v-165l-149 -57v-554l163 -28v-126h-523v126l163 28v479l-144 -55v165l144 55v607l-163 28v127h163h197z" />
    <glyph glyph-name="Eng" unicode="&#x14a;" horiz-adv-x="1559" 
d="M70 0v126l163 28v1147l-163 28v127h360l700 -1112l6 2v955l-163 28v127h163h197h163v-127l-163 -28v-1390c0 -223 -121 -348 -326 -348c-41 0 -73 6 -112 18l14 150c9 -3 24 -6 47 -9s40 -4 51 -4c81 0 129 73 129 193v89l-700 1112l-6 -2v-956l163 -28v-126h-523z" />
    <glyph glyph-name="eng" unicode="&#x14b;" horiz-adv-x="1263" 
d="M253 927l-163 28v127h339l13 -149c72 107 181 169 314 169c232 0 367 -134 367 -419v-772c0 -223 -122 -348 -326 -348c-43 0 -76 6 -113 18l14 160c9 -3 24 -6 47 -8c23 -3 40 -4 52 -4c81 0 129 65 129 182v768c0 191 -75 263 -231 263c-113 0 -194 -45 -245 -124v-664
l163 -28v-126h-523v126l163 28v773z" />
    <glyph glyph-name="OE" unicode="&#x152;" horiz-adv-x="1969" 
d="M1884 0h-921c-61 -7 -113 -12 -157 -15c-43 -4 -87 -6 -132 -6c-166 0 -301 55 -405 166c-103 111 -155 254 -155 431v304c0 177 51 320 154 431s238 166 404 166c92 0 186 -9 291 -21h910v-350h-169l-16 195h-573v-471h557v-155h-557v-521h585l16 195h168v-349zM674 134
c71 0 143 4 214 15l30 5v1147l-53 9c-67 7 -130 12 -193 12c-113 0 -201 -38 -265 -114c-64 -75 -96 -184 -96 -326v-306c0 -143 32 -252 97 -328s153 -114 266 -114z" />
    <glyph glyph-name="oe" unicode="&#x153;" horiz-adv-x="1898" 
d="M1792 620v-123h-683v0c0 85 69 154 154 154h332v26c0 77 -21 142 -62 194s-103 78 -184 78c-66 0 -122 -28 -169 -84c-48 -55 -75 -125 -86 -209c-9 -37 -7 -164 -7 -164c2 -104 27 -190 78 -257s122 -100 214 -100c77 0 143 14 200 38c67 30 145 4 183 -59v0
c-79 -76 -204 -133 -383 -133c-176 0 -316 74 -401 203c-85 -129 -219 -203 -390 -203c-149 0 -267 51 -354 154s-130 235 -130 396v22c0 160 43 292 129 395c87 104 204 156 352 156c174 0 311 -77 396 -209c85 131 223 209 368 209s255 -44 329 -132
c76 -88 114 -205 114 -352zM875 531v22c0 113 -25 208 -74 283s-120 113 -216 113c-94 0 -164 -38 -213 -113c-47 -75 -71 -170 -71 -283v-22c0 -115 24 -209 71 -284c49 -75 120 -112 216 -112c94 0 165 37 214 112c48 75 73 169 73 284z" />
    <glyph glyph-name="longs" unicode="&#x17f;" horiz-adv-x="734" 
d="M57 0v126l163 28v1065c0 231 127 362 343 362c45 0 89 -8 145 -21l-25 -145c-25 7 -55 11 -88 11c-116 0 -178 -76 -178 -207v-1065l163 -28v-126h-523z" />
    <glyph glyph-name="florin" unicode="&#x192;" horiz-adv-x="767" 
d="M630 1082v-146h-196v-1025c0 -223 -121 -348 -325 -348c-43 0 -75 6 -112 18l13 150c9 -3 25 -6 47 -9c23 -3 40 -4 52 -4c79 0 128 73 128 193v1025h-170v146h170v137c0 231 126 362 342 362c45 0 89 -8 145 -21l-24 -150c-24 5 -60 10 -96 10
c-116 0 -170 -70 -170 -201v-137h196z" />
    <glyph glyph-name="Ohorn" unicode="&#x1a0;" horiz-adv-x="1486" 
d="M1348 1493c69 -184 25 -330 -63 -423c38 -96 57 -202 57 -319v-21c0 -210 -60 -384 -180 -523c-121 -138 -277 -207 -468 -207c-185 0 -336 69 -452 207c-116 139 -174 313 -174 523v21c0 209 58 383 174 521c116 140 267 210 452 210c191 0 347 -70 468 -210
c18 -20 34 -43 50 -65c19 32 31 71 29 120c-2 73 39 140 107 166zM1147 730v23c0 167 -40 304 -120 409c-80 106 -191 160 -333 160c-135 0 -241 -54 -318 -160c-76 -106 -114 -243 -114 -409v-23c0 -169 38 -306 114 -412c77 -105 183 -159 318 -159c144 0 256 53 335 158
c79 106 118 244 118 413z" />
    <glyph glyph-name="ohorn" unicode="&#x1a1;" horiz-adv-x="1243" 
d="M1117 1101c39 -93 66 -280 -62 -425c6 -39 10 -81 10 -125v-22c0 -160 -43 -292 -130 -394c-86 -103 -204 -154 -352 -154c-149 0 -267 51 -354 154c-86 103 -129 234 -129 394v22c0 160 43 291 129 395c87 103 204 155 352 155c149 0 267 -52 354 -155
c24 -29 45 -60 62 -94c7 21 14 50 12 82c-3 69 34 130 108 167zM868 529v22c0 113 -24 207 -72 283c-49 75 -120 112 -215 112c-94 0 -165 -37 -213 -112c-48 -76 -72 -170 -72 -283v-22c0 -114 24 -208 72 -283c49 -74 120 -111 215 -111c93 0 164 37 213 111
c48 75 72 169 72 283z" />
    <glyph glyph-name="Uhorn" unicode="&#x1af;" horiz-adv-x="1526" 
d="M1467 1451c59 -95 48 -310 -78 -413c-32 -26 -81 -39 -123 -47v-527c0 -158 -50 -280 -149 -363c-99 -84 -229 -127 -389 -127c-166 0 -300 43 -403 127c-103 83 -154 205 -154 363v832l-38 7c-73 12 -125 74 -125 148h163h359c0 -74 -52 -136 -125 -148l-38 -7v-832
c0 -111 34 -194 100 -251c65 -56 152 -85 261 -85c102 0 185 29 247 85c62 57 95 141 95 251v832l-39 7c-71 12 -124 74 -124 148h359v-155v-162c41 11 63 27 63 27c14 8 31 74 29 121s13 125 109 169z" />
    <glyph glyph-name="uhorn" unicode="&#x1b0;" horiz-adv-x="1341" 
d="M1070 152c71 -16 123 -80 123 -154h-140c-91 0 -166 70 -173 160c-35 -57 -78 -102 -132 -133c-53 -32 -115 -47 -184 -47c-117 0 -209 38 -274 114c-67 73 -98 191 -98 348v483h-1c-73 17 -123 80 -123 155h124h196v-639c0 -114 17 -194 50 -236c34 -44 86 -65 159 -65
c70 0 127 14 173 42s79 68 103 120v623l-20 4c-72 14 -125 77 -125 151h145h196v-304c37 11 58 24 58 24c12 9 29 75 27 123c-1 46 13 123 108 167c59 -94 50 -309 -77 -411c-31 -26 -75 -39 -116 -45v-479z" />
    <glyph glyph-name="uni0237" unicode="&#x237;" horiz-adv-x="579" 
d="M433 1082v-1171c0 -223 -121 -348 -325 -348c-43 0 -75 6 -112 18l13 150c9 -3 25 -6 47 -9c23 -3 40 -4 52 -4c79 0 128 73 128 193v1016l-163 28v127h360z" />
    <glyph glyph-name="schwa" unicode="&#x259;" horiz-adv-x="1115" 
d="M516 1103c150 0 270 -50 359 -151s134 -231 134 -390v-44c0 -155 -46 -283 -138 -385c-91 -102 -199 -153 -324 -152c-147 0 -257 44 -332 131s-112 205 -112 352v123h701l3 5c-2 103 -28 189 -79 256c-50 67 -121 101 -212 101c-135 0 -233 -43 -306 -108l-77 129
c77 75 203 133 383 133zM547 135c65 0 120 27 167 82s75 125 86 210l-2 5h-498v-25c0 -78 21 -143 62 -195c41 -51 103 -77 185 -77z" />
    <glyph glyph-name="circumflex" unicode="&#x2c6;" horiz-adv-x="828" 
d="M721 1257v0h-3c-101 0 -199 41 -270 113l-35 35l-34 -33c-71 -73 -169 -115 -272 -115v0v0c0 17 7 33 19 44l228 219h119l230 -220c11 -11 18 -27 18 -43z" />
    <glyph glyph-name="caron" unicode="&#x2c7;" horiz-adv-x="809" 
d="M402 1367l31 31c74 75 176 117 281 117h5v-18l-214 -204c-27 -26 -64 -41 -102 -41v0c-38 0 -75 15 -103 41l-210 202v20v0c106 0 208 -43 283 -118z" />
    <glyph glyph-name="breve" unicode="&#x2d8;" horiz-adv-x="836" 
d="M707 1457l2 -6c3 -77 -23 -140 -77 -189s-127 -73 -218 -73c-92 0 -165 24 -219 73s-79 112 -76 189l2 6v0c70 0 136 -36 175 -94c22 -34 61 -54 118 -54c56 0 95 20 117 55c39 58 104 93 174 93h2z" />
    <glyph glyph-name="dotaccent" unicode="&#x2d9;" horiz-adv-x="528" 
d="M270 1258h-16c-56 0 -101 45 -101 100v0c0 56 45 101 101 101h16c55 0 100 -45 100 -101v0c0 -55 -45 -100 -100 -100z" />
    <glyph glyph-name="ring" unicode="&#x2da;" horiz-adv-x="687" 
d="M138 1308c0 56 20 103 60 141c41 38 90 57 148 57c57 0 105 -19 145 -57c40 -37 60 -84 60 -141s-20 -104 -60 -140s-88 -54 -145 -54c-58 0 -107 18 -148 54c-40 36 -60 83 -60 140zM241 1308c0 -57 48 -104 105 -104c56 0 102 44 102 104s-46 107 -102 107
c-59 0 -105 -47 -105 -107z" />
    <glyph glyph-name="ogonek" unicode="&#x2db;" horiz-adv-x="473" 
d="M302 58c35 -28 37 -80 4 -111c-53 -48 -82 -94 -82 -146c0 -56 28 -90 96 -90h4c59 1 112 -39 128 -97v0c-48 -25 -103 -44 -183 -44c-63 0 -114 18 -155 55c-40 36 -60 87 -60 154c0 107 79 205 248 280v-1z" />
    <glyph glyph-name="tilde" unicode="&#x2dc;" horiz-adv-x="948" 
d="M571 1265c-86 0 -134 47 -170 81c-29 29 -42 39 -63 39c-59 0 -63 -79 -63 -80v0c-83 0 -130 100 -73 159c32 34 77 57 136 57c78 0 124 -45 158 -77c30 -29 46 -43 75 -43c61 0 71 53 71 85v0c86 0 133 -105 72 -166c-33 -33 -81 -55 -143 -55z" />
    <glyph glyph-name="hungarumlaut" unicode="&#x2dd;" horiz-adv-x="924" 
d="M771 1517h71l3 -6l-198 -172c-65 -56 -148 -87 -234 -87h-38l-2 4l135 146c68 74 163 115 263 115zM476 1517h23l2 -5l-133 -145c-68 -74 -164 -115 -264 -115v0l78 111c67 97 177 154 294 154z" />
    <glyph glyph-name="uni02F3" unicode="&#x2f3;" horiz-adv-x="446" 
d="M72 -235c0 43 15 79 45 108c31 28 68 42 112 42c42 0 78 -14 108 -42c30 -29 45 -65 45 -108s-15 -78 -45 -105c-29 -27 -65 -41 -108 -41c-44 0 -81 14 -112 41c-30 27 -45 62 -45 105zM161 -235c0 -35 31 -65 68 -65c35 0 64 29 64 65c0 40 -29 69 -64 69
c-37 0 -68 -30 -68 -69z" />
    <glyph glyph-name="gravecomb" unicode="&#x300;" horiz-adv-x="511" 
d="M272 1558l122 -348h-131l-176 348h185z" />
    <glyph glyph-name="acutecomb" unicode="&#x301;" horiz-adv-x="505" 
d="M118 1210l126 349h182l-188 -349h-120z" />
    <glyph glyph-name="tildecomb" unicode="&#x303;" horiz-adv-x="922" 
d="M-446 1265c-86 0 -134 47 -170 81c-29 29 -42 39 -63 39c-59 0 -63 -79 -63 -80v0c-83 0 -130 100 -73 159c32 34 77 57 136 57c78 0 124 -45 158 -77c30 -29 46 -43 75 -43c61 0 71 53 71 85v0c86 0 133 -105 72 -166c-33 -33 -81 -55 -143 -55z" />
    <glyph glyph-name="hook" unicode="&#x309;" horiz-adv-x="573" 
d="M153 1383v14c101 5 141 22 141 73c0 33 -25 55 -67 66c-53 15 -88 64 -85 119v0c195 0 304 -74 304 -189c0 -93 -66 -140 -151 -152l-1 -71v0c-77 0 -140 62 -141 140z" />
    <glyph glyph-name="uni030F" unicode="&#x30f;" horiz-adv-x="924" 
d="M317 1518l241 -261l-2 -5h-171l-299 260l3 6h228zM643 1518l184 -266h-157l-240 261l2 5h211z" />
    <glyph glyph-name="dotbelow" unicode="&#x323;" horiz-adv-x="387" 
d="M204 -331h-18c-55 0 -100 44 -100 100v0c0 55 45 100 100 100h18c56 0 100 -45 100 -100v0c0 -56 -44 -100 -100 -100z" />
    <glyph glyph-name="tonos" unicode="&#x384;" horiz-adv-x="493" 
d="M136 1270l60 390h208l-175 -390h-93z" />
    <glyph glyph-name="dieresistonos" unicode="&#x385;" horiz-adv-x="1009" 
d="M858 1456v-200h-198v200h198zM349 1456v-200h-198v200h198zM422 1408l50 265h218l-126 -265h-142z" />
    <glyph glyph-name="anoteleia" unicode="&#x387;" horiz-adv-x="516" 
d="M357 836v-212h-198v212h198z" />
    <glyph glyph-name="Gamma" unicode="&#x393;" horiz-adv-x="1216" 
d="M77 0v126l163 28v1147l-163 28v127h1056v-322h-169l-15 167h-512v-1147l163 -28v-126h-523z" />
    <glyph glyph-name="Delta" unicode="&#x2206;" horiz-adv-x="1432" 
d="M31 0l616 1456h169l576 -1456h-1361zM726 1204l-431 -1050h837l-400 1050h-6z" />
    <glyph glyph-name="Delta" unicode="&#x394;" horiz-adv-x="1432" 
d="M31 0l616 1456h169l576 -1456h-1361zM726 1204l-431 -1050h837l-400 1050h-6z" />
    <glyph glyph-name="Theta" unicode="&#x398;" horiz-adv-x="1403" 
d="M959 813v-154h-509v154h509zM1368 738v-21c0 -212 -61 -388 -183 -528c-121 -140 -279 -210 -472 -210c-188 0 -341 70 -458 210s-176 316 -176 528v21c0 211 59 387 176 528s270 211 458 211c193 0 351 -70 472 -211c122 -141 183 -317 183 -528zM1171 717v23
c0 169 -41 307 -122 414s-193 161 -336 161c-137 0 -245 -54 -322 -161s-115 -245 -115 -414v-23c0 -171 38 -310 115 -417s185 -160 322 -160c145 0 258 53 338 160s120 246 120 417z" />
    <glyph glyph-name="Lambda" unicode="&#x39b;" horiz-adv-x="1450" 
d="M52 0v126l105 15l482 1315h170l482 -1315l106 -15v-126h-418v126l111 19l-363 1026h-6l-364 -1026l112 -19v-126h-417z" />
    <glyph glyph-name="Xi" unicode="&#x39e;" horiz-adv-x="1179" 
d="M66 0v321h168l15 -167h690l16 167h167v-321h-1056zM66 1456h1045v-322h-169l-15 167h-677l-15 -167h-169v322zM278 678v155h623v-155h-623z" />
    <glyph glyph-name="Pi" unicode="&#x3a0;" horiz-adv-x="1576" 
d="M77 0v126l163 28v1147l-163 28v127h1428v-127l-163 -28v-1147l163 -28v-126h-523v126l163 28v1147h-708v-1147l163 -28v-126h-523z" />
    <glyph glyph-name="Sigma" unicode="&#x3a3;" horiz-adv-x="1181" 
d="M767 739v-24l-446 -555l3 -5h597l15 167h168v-322h-1025v147l479 581l-479 581v147h976v-322h-169l-15 167h-547l-3 -5z" />
    <glyph glyph-name="Phi" unicode="&#x3a6;" horiz-adv-x="1471" 
d="M637 213h-8c-157 0 -288 47 -393 142s-157 218 -157 367s52 271 157 366c105 96 236 144 393 144h8v69l-163 28v127h163h360v-127l-163 -28v-69h6c157 0 289 -48 394 -143s158 -216 158 -365s-53 -272 -159 -368c-105 -95 -236 -143 -393 -143h-6v-59l163 -28v-126h-523
v126l163 28v59zM637 1078h-8c-113 0 -201 -32 -263 -96c-61 -64 -92 -151 -92 -260c0 -220 127 -354 355 -354h8v710zM842 1078h-8v-710h8c112 0 199 32 261 95c62 64 93 151 93 261c0 109 -31 195 -93 258c-62 64 -149 96 -261 96z" />
    <glyph glyph-name="Psi" unicode="&#x3a8;" horiz-adv-x="1665" 
d="M917 1456h163v-127l-163 -28v-776l6 -2c96 13 173 54 230 124c58 70 87 163 87 278v531h360v-127l-163 -28v-376c0 -163 -48 -295 -143 -394s-221 -156 -377 -172v-205l163 -28v-126h-523v126l163 28v206c-152 16 -274 73 -365 172s-137 230 -137 393v376l-163 28v127
h163h196v-531c0 -113 27 -205 82 -275s127 -112 218 -125l6 1v775l-163 28v127h360z" />
    <glyph glyph-name="Omega" unicode="&#x2126;" horiz-adv-x="1354" 
d="M737 0v197c201 33 319 230 319 565v57c0 162 -34 286 -103 373c-68 87 -162 130 -281 130s-213 -43 -281 -130c-67 -87 -101 -211 -101 -373v-57c0 -336 121 -533 325 -565v-197h-496v154h275c-92 61 -165 148 -220 259c-54 111 -81 228 -81 349v55c0 195 53 353 160 476
s247 184 419 184s312 -61 419 -184c108 -123 162 -281 162 -476v-55c0 -121 -27 -238 -82 -349c-54 -111 -127 -198 -218 -259h281v-154h-497z" />
    <glyph glyph-name="Omega" unicode="&#x3a9;" horiz-adv-x="1354" 
d="M737 0v197c201 33 319 230 319 565v57c0 162 -34 286 -103 373c-68 87 -162 130 -281 130s-213 -43 -281 -130c-67 -87 -101 -211 -101 -373v-57c0 -336 121 -533 325 -565v-197h-496v154h275c-92 61 -165 148 -220 259c-54 111 -81 228 -81 349v55c0 195 53 353 160 476
s247 184 419 184s312 -61 419 -184c108 -123 162 -281 162 -476v-55c0 -121 -27 -238 -82 -349c-54 -111 -127 -198 -218 -259h281v-154h-497z" />
    <glyph glyph-name="alpha" unicode="&#x3b1;" horiz-adv-x="1208" 
d="M850 1082h167v-786c0 -112 28 -148 76 -148c11 0 23 2 31 6l24 -141c-40 -27 -78 -34 -127 -34c-95 0 -156 48 -184 157c-71 -104 -173 -157 -312 -157c-132 0 -235 48 -310 143c-74 96 -111 222 -111 378v21c0 174 37 314 111 421c75 107 179 160 312 160
s235 -54 306 -153zM301 521v-21c0 -110 22 -199 67 -266s114 -101 207 -101c116 0 193 64 245 176v460c-53 111 -131 178 -243 178c-94 0 -164 -40 -209 -119s-67 -182 -67 -307z" />
    <glyph glyph-name="beta" unicode="&#x3b2;" horiz-adv-x="1172" 
d="M592 1477c130 0 234 -37 313 -110s118 -168 118 -284c0 -121 -70 -228 -186 -289c79 -29 141 -77 185 -142s66 -141 66 -227c0 -139 -42 -249 -127 -328c-84 -79 -193 -118 -328 -118c-109 0 -216 29 -293 90v-452h-197v1456c0 111 44 206 132 285c89 79 194 119 317 119
zM506 860h82c163 0 238 86 238 227c0 63 -21 118 -63 165c-41 47 -98 70 -171 70c-71 0 -131 -24 -180 -72c-48 -47 -72 -106 -72 -177v-831c59 -68 156 -109 273 -109c86 0 154 27 203 80c50 53 75 123 75 208c0 75 -22 141 -66 198c-43 57 -102 86 -176 86h-143v155z" />
    <glyph glyph-name="gamma" unicode="&#x3b3;" horiz-adv-x="1086" 
d="M1063 1082v-127l-86 -14l-324 -881v-476h-197v467l-287 813c-19 52 -36 62 -80 62c-12 0 -11 0 -51 -7l-18 149c33 15 94 26 135 26c48 0 84 -9 108 -28s45 -56 64 -113l208 -634l17 -84h6l21 84l201 615l-135 21v127h418z" />
    <glyph glyph-name="delta" unicode="&#x3b4;" horiz-adv-x="1164" 
d="M221 1268c0 91 34 163 101 216s161 80 280 80c100 0 206 -33 313 -85l-44 -133c-76 29 -180 59 -273 59c-111 0 -178 -53 -178 -133c0 -31 16 -63 48 -95c33 -31 91 -61 175 -90c283 -99 423 -285 423 -557v-21c0 -155 -43 -282 -130 -381s-204 -148 -353 -148
c-150 0 -269 49 -356 148s-130 226 -130 381v21c0 114 31 213 92 297c62 84 139 137 231 160l4 11c-128 51 -203 150 -203 270zM295 530v-21c0 -109 24 -199 73 -270s120 -106 215 -106c93 0 164 35 212 106c49 71 73 161 73 270v21c0 87 -27 168 -80 241
c-53 74 -121 119 -205 136c-94 0 -166 -36 -215 -108c-49 -71 -73 -161 -73 -269z" />
    <glyph glyph-name="epsilon" unicode="&#x3b5;" horiz-adv-x="1097" 
d="M105 305c0 121 69 208 201 251c-115 47 -182 133 -182 230c0 101 39 178 116 232c77 55 183 82 318 82c122 0 224 -29 307 -88c83 -58 123 -133 120 -226l-2 -6h-186c0 47 -23 86 -70 119c-46 33 -102 49 -169 49c-77 0 -136 -16 -177 -48c-40 -31 -60 -69 -60 -114
c0 -99 70 -159 223 -159h210v-150h-210c-160 0 -241 -56 -241 -172c0 -49 23 -90 68 -123c46 -33 108 -50 187 -50c75 0 136 19 184 56c49 37 73 81 73 132h186l2 -6c3 -108 -39 -191 -128 -248s-194 -85 -317 -85c-135 0 -244 29 -328 86c-83 58 -125 137 -125 238z" />
    <glyph glyph-name="zeta" unicode="&#x3b6;" horiz-adv-x="1070" 
d="M115 1456h855v-123l-342 -421c-86 -102 -148 -191 -186 -267c-37 -75 -56 -161 -56 -258c0 -129 39 -190 143 -213l133 -38c102 -30 171 -57 208 -80s55 -70 55 -142c-1 -48 -21 -101 -59 -158c-37 -58 -77 -104 -119 -139l-104 86c65 76 94 126 94 181
c0 47 -45 79 -152 107l-90 23c-114 30 -194 72 -239 127s-67 135 -67 241c0 80 23 173 69 280c47 107 118 217 214 330l268 304l-2 5h-623v155z" />
    <glyph glyph-name="eta" unicode="&#x3b7;" horiz-adv-x="1208" 
d="M395 0h-197v821c0 76 -29 101 -74 101c-27 0 -67 -13 -84 -21l-44 141c55 37 127 60 198 60c109 0 177 -51 196 -166c72 105 180 166 312 166c118 0 208 -33 271 -98s95 -172 95 -321v-1098h-197v1094c0 191 -75 268 -230 268c-113 0 -195 -47 -246 -127v-820z" />
    <glyph glyph-name="theta" unicode="&#x3b8;" horiz-adv-x="1162" 
d="M1054 900v-345c0 -186 -41 -329 -124 -428s-196 -148 -339 -148s-256 50 -339 149s-125 242 -125 427v345c0 185 41 328 124 427c83 100 195 150 338 150s257 -50 340 -150c83 -99 125 -242 125 -427zM324 942v-139h533v139c0 252 -93 380 -268 380
c-172 0 -265 -128 -265 -380zM857 515v133h-533v-133c0 -252 95 -382 267 -382c175 0 266 129 266 382z" />
    <glyph glyph-name="iota" unicode="&#x3b9;" horiz-adv-x="669" 
d="M392 1082v-814c0 -99 37 -129 97 -129c33 0 67 10 92 26l44 -133c-61 -41 -116 -53 -188 -53c-159 0 -243 89 -243 300v648l-163 28v127h361z" />
    <glyph glyph-name="lambda" unicode="&#x3bb;" horiz-adv-x="1135" 
d="M483 670l-230 -670h-218l389 1026l-99 239c-29 72 -59 98 -114 98c-12 0 -35 -2 -47 -2l-1 145c11 3 30 5 55 8s47 4 64 4c65 0 113 -13 145 -39c33 -26 58 -67 77 -124l441 -1119c24 -65 50 -89 95 -89c16 0 27 -1 36 2l6 -154c-20 -5 -51 -12 -79 -12
c-65 0 -116 13 -151 38c-35 26 -68 81 -99 166l-234 600l-6 -1z" />
    <glyph glyph-name="xi" unicode="&#x3be;" horiz-adv-x="1004" 
d="M907 1437l-29 -152c-83 23 -152 36 -224 36c-97 0 -171 -18 -221 -54c-49 -35 -74 -79 -74 -131c0 -137 99 -218 318 -218h143v-155h-143c-251 0 -382 -104 -382 -319c0 -82 26 -148 77 -198s115 -84 191 -101l113 -24c96 -23 164 -47 204 -72s60 -75 60 -148
c-1 -48 -21 -100 -59 -157c-37 -57 -77 -103 -120 -138l-103 86c37 43 61 75 74 98c13 22 20 51 20 86c0 56 -42 79 -154 103l-56 13c-148 34 -259 84 -333 149s-111 168 -111 307c0 196 116 331 313 394c-156 56 -249 163 -249 290c0 107 44 191 132 252s207 91 358 91
c45 0 90 -4 137 -11s87 -16 118 -27z" />
    <glyph glyph-name="pi" unicode="&#x3c0;" horiz-adv-x="1281" 
d="M1114 1082v-156h-164v-658c0 -99 37 -129 97 -129c33 0 67 10 92 26l44 -133c-61 -41 -116 -53 -188 -53c-159 0 -243 89 -243 300v647h-353v-926h-197v926h-127v156h1039z" />
    <glyph glyph-name="rho" unicode="&#x3c1;" horiz-adv-x="1156" 
d="M1051 521v-21c0 -157 -37 -283 -110 -378s-175 -143 -306 -143c-129 0 -231 41 -304 118v-513h-197v992v1c0 165 43 293 128 386s192 139 320 139c152 0 268 -53 348 -159c81 -105 121 -246 121 -422zM854 500v21c0 126 -22 228 -66 307s-113 119 -206 119
c-82 0 -144 -39 -187 -116s-64 -162 -64 -255v-303c49 -89 127 -140 243 -140c93 0 163 34 210 102s70 156 70 265z" />
    <glyph glyph-name="sigma1" unicode="&#x3c2;" horiz-adv-x="1092" 
d="M573 1102c125 0 227 -35 304 -105c78 -69 116 -163 113 -282l-2 -6h-178c0 69 -20 126 -61 171s-99 67 -176 67c-91 0 -160 -38 -207 -115s-70 -167 -70 -270v-42c0 -180 115 -303 348 -366c103 -29 176 -56 218 -83c43 -27 64 -77 64 -150c-1 -47 -21 -100 -59 -157
s-78 -103 -120 -138l-103 86c36 43 60 75 73 98s20 51 20 86c0 29 -11 50 -34 64s-62 27 -119 40c-320 69 -485 241 -485 520v42c0 151 42 279 127 383c85 105 201 157 347 157z" />
    <glyph glyph-name="sigma" unicode="&#x3c3;" horiz-adv-x="1246" 
d="M1155 1082v-156h-277c125 -96 195 -241 195 -414v-22c0 -140 -44 -260 -132 -361c-88 -100 -205 -150 -352 -150c-149 0 -267 51 -354 154s-130 235 -130 396v22c0 155 43 282 129 381c87 100 204 150 353 150h568zM302 551v-22c0 -115 24 -209 72 -284
s120 -112 215 -112c94 0 165 37 214 112s73 169 73 284v22c0 107 -25 197 -74 268s-120 107 -215 107h-1c-94 -1 -165 -37 -213 -108c-47 -71 -71 -160 -71 -267z" />
    <glyph glyph-name="tau" unicode="&#x3c4;" horiz-adv-x="1014" 
d="M62 1082h885v-153h-350v-661c0 -97 38 -129 98 -129c32 0 66 11 91 26l45 -132c-61 -43 -117 -54 -188 -54c-159 0 -243 89 -243 300v650h-338v153z" />
    <glyph glyph-name="upsilon" unicode="&#x3c5;" horiz-adv-x="1220" 
d="M426 867v-440c0 -204 74 -294 194 -294c89 0 160 44 213 131s79 187 79 299c-4 168 -51 338 -124 519h206c68 -141 115 -312 115 -519c0 -165 -41 -304 -123 -416s-201 -168 -356 -168c-256 0 -401 145 -401 450v392c0 77 -28 101 -75 101c-27 0 -67 -13 -84 -21l-45 141
c56 37 130 60 199 60c131 0 202 -71 202 -235z" />
    <glyph glyph-name="phi" unicode="&#x3c6;" 
d="M647 -478v462c-183 17 -317 78 -404 185s-130 239 -130 395c0 224 84 402 255 518l107 -136c-111 -99 -160 -237 -165 -382c0 -103 27 -195 81 -275c54 -79 137 -127 250 -142l6 2v675c0 68 26 128 79 180s120 78 199 78c129 0 240 -52 333 -155s139 -231 139 -383
c0 -151 -45 -278 -135 -382c-90 -103 -229 -163 -418 -178v-462h-197zM844 831v-683l6 -3c118 15 206 60 263 136c58 77 87 164 87 263c-3 104 -28 194 -76 269s-114 113 -199 113c-53 0 -81 -39 -81 -95z" />
    <glyph glyph-name="chi" unicode="&#x3c7;" horiz-adv-x="1192" 
d="M62 0v126l116 23l309 388l-299 395l-116 23v127l261 -1l276 -392l194 255l-97 11v127h427v-127l-116 -23l-308 -380l317 -403l117 -23v-126h-247l-293 409l-212 -272l97 -11v-126h-426z" />
    <glyph glyph-name="psi" unicode="&#x3c8;" horiz-adv-x="1577" 
d="M398 868v-274c0 -272 117 -416 304 -444l6 2v929h197v-933l6 -2c122 13 212 60 271 141s88 174 88 280c-4 167 -49 336 -124 515h206c68 -141 115 -311 115 -515c0 -161 -45 -295 -136 -403c-90 -107 -232 -168 -426 -182v-456h-197v460c-324 36 -507 235 -507 610v225
c0 76 -29 101 -74 101c-27 0 -67 -13 -84 -21l-44 141c53 37 127 60 198 60c129 0 201 -70 201 -234z" />
    <glyph glyph-name="omega" unicode="&#x3c9;" horiz-adv-x="1679" 
d="M251 1082h206c-88 -181 -141 -351 -144 -520c0 -127 17 -230 50 -310c34 -79 88 -119 161 -119c131 0 214 104 214 337v300h198v-300c0 -233 82 -337 214 -337c73 0 127 39 161 118s51 183 51 311c-5 169 -59 341 -144 520h206c80 -141 135 -315 135 -520
c0 -170 -32 -310 -96 -419s-165 -164 -302 -164c-159 0 -269 80 -324 235c-55 -153 -167 -235 -323 -235c-138 0 -239 55 -303 164c-63 109 -95 249 -95 419c0 207 54 380 135 520z" />
    <glyph glyph-name="uni03D1" unicode="&#x3d1;" horiz-adv-x="1342" 
d="M654 140c110 0 197 39 260 118s96 188 97 327c-145 5 -261 50 -350 133c-88 84 -132 190 -132 318v62c0 115 31 207 94 276s145 103 245 103c105 0 187 -34 248 -101s91 -160 91 -278v-506c0 -185 -51 -334 -152 -446c-101 -111 -235 -167 -401 -167
c-158 0 -286 58 -385 174s-148 262 -148 439v660l197 2v-662c0 -133 30 -242 90 -326c61 -84 143 -126 246 -126zM726 1098v-64c0 -80 25 -146 75 -199s118 -80 204 -83l6 2v344c0 144 -50 217 -143 217c-88 0 -142 -73 -142 -217z" />
    <glyph glyph-name="uni03D2" unicode="&#x3d2;" horiz-adv-x="1231" 
d="M638 833l179 406c68 165 147 228 255 228c45 0 75 -5 110 -24l-23 -152c-8 4 -23 8 -40 8c-45 0 -82 -22 -105 -74l-299 -645v-580h-196v578l-300 647c-24 52 -61 74 -105 74c-19 0 -34 -4 -39 -8l-23 152c32 19 62 24 109 24c108 0 187 -63 256 -228l178 -406l18 -68h6z
" />
    <glyph glyph-name="uni03D6" unicode="&#x3d6;" horiz-adv-x="1672" 
d="M1588 1082v-156h-134c39 -108 62 -229 62 -364c0 -170 -29 -310 -87 -419c-57 -109 -148 -164 -271 -164c-159 0 -270 81 -323 236c-55 -155 -166 -236 -323 -236c-123 0 -214 55 -272 164c-57 110 -86 250 -86 419c0 135 22 256 62 364h-111v156h1483zM1319 562
c-4 119 -30 240 -77 364h-814c-47 -125 -74 -247 -77 -364c0 -127 14 -230 41 -310c28 -79 72 -119 131 -119c131 0 214 104 214 337v250h198v-250c0 -233 82 -337 214 -337c58 0 101 40 128 119c28 79 42 183 42 310z" />
    <glyph glyph-name="uni0402" unicode="&#x402;" horiz-adv-x="1573" 
d="M1245 1456v-322h-169l-15 167h-364v-461c108 29 214 52 285 52c164 0 292 -40 383 -121s137 -193 137 -338c0 -288 -174 -443 -491 -439l-5 2l-2 141c216 0 301 104 301 296c-3 191 -110 294 -323 294c-83 0 -192 -18 -285 -46v-527l144 -28v-126h-504v126l163 28v1147
h-243l-15 -167h-168v322h1171z" />
    <glyph glyph-name="uni0404" unicode="&#x404;" horiz-adv-x="1284" 
d="M844 813v-154h-591v154h591zM1181 1269v-259h-139l-37 206c-64 63 -156 107 -285 107c-151 0 -268 -55 -349 -165c-81 -109 -122 -248 -122 -417v-23c0 -169 40 -308 119 -419c80 -110 191 -165 332 -165c132 0 246 47 305 107l37 206h139v-259
c-42 -54 -105 -102 -189 -145c-84 -42 -181 -63 -292 -63c-189 0 -345 70 -466 210s-182 316 -182 528v21c0 213 60 390 179 529c119 140 276 210 469 210c111 0 208 -22 292 -65s147 -91 189 -144z" />
    <glyph glyph-name="uni0409" unicode="&#x409;" horiz-adv-x="2209" 
d="M1444 1456v-127l-163 -28v-412h359c155 0 275 -41 361 -124c86 -82 129 -189 129 -321s-43 -239 -129 -321s-206 -123 -361 -123h-556v1301h-504l-1 -531c-1 -267 -37 -463 -109 -586c-71 -123 -191 -184 -358 -184h-52v154h40c100 0 172 47 216 142s66 253 67 474v531
l-163 28v127h1224zM1640 735h-359v-581h359c98 0 171 28 220 84c49 57 74 126 74 208c0 81 -25 149 -74 205s-122 84 -220 84z" />
    <glyph glyph-name="uni040A" unicode="&#x40a;" horiz-adv-x="2265" 
d="M240 1301l-163 28v127h523v-127l-163 -28v-474h708v474l-163 28v127h163h197h163v-127l-163 -28v-461h359c155 0 276 -38 362 -114s129 -177 129 -302c0 -126 -43 -228 -130 -307c-86 -78 -206 -117 -361 -117h-719v126l163 28v519h-708v-519l163 -28v-126h-523v126
l163 28v1147zM1701 685h-359v-520h359c99 0 172 25 221 74s74 112 74 187s-25 136 -74 185s-122 74 -221 74z" />
    <glyph glyph-name="uni040B" unicode="&#x40b;" horiz-adv-x="1745" 
d="M1227 1456v-322h-169l-15 167h-343v-433c101 27 199 40 338 40c320 0 489 -133 489 -448v-306l163 -28v-126h-523v126l163 28v306c0 109 -23 185 -70 228c-46 43 -120 64 -222 64c-119 0 -227 -16 -338 -41v-557l163 -28v-126h-524v126l163 28v1147h-263l-14 -167h-169
v322h1171z" />
    <glyph glyph-name="uni040F" unicode="&#x40f;" horiz-adv-x="1575" 
d="M1505 1456v-127l-163 -28v-1147l163 -28v-126h-609v-359h-197v359h-622v126l163 28v1147l-163 28v127h360h163v-127l-163 -28v-1147h708v1147l-163 28v127h523z" />
    <glyph glyph-name="uni0411" unicode="&#x411;" horiz-adv-x="1359" 
d="M1116 1456v-322h-169l-15 167h-502v-441h359c156 0 277 -38 362 -115c86 -77 129 -180 129 -311s-43 -237 -129 -316s-207 -118 -362 -118h-729v126l163 28v1147l-163 28v127h1056zM789 705h-359v-551h359c99 0 172 27 221 80s73 121 73 202c0 79 -24 143 -73 193
c-49 51 -122 76 -221 76z" />
    <glyph glyph-name="uni0414" unicode="&#x414;" horiz-adv-x="1570" 
d="M1299 1456h163v-127l-163 -28v-1147h200l-20 -511h-177v357h-1050v-359h-168l-29 513h125c51 59 97 144 140 256s66 264 70 457l24 435l-154 27v127h1039zM612 1301l-23 -434c-12 -317 -84 -562 -191 -713h704v1147h-490z" />
    <glyph glyph-name="uni0416" unicode="&#x416;" horiz-adv-x="2041" 
d="M929 634h-182l-301 -495l79 -13v-126h-462v126l146 21l388 614l-266 424c-52 79 -91 110 -154 110c-29 0 -58 -5 -86 -10l-29 138c43 28 90 44 155 44c55 0 104 -13 146 -40c43 -27 87 -78 134 -153l290 -474h142v501l-163 28v127h359h163v-127l-163 -28v-501h154
l290 474c46 75 90 126 132 153s91 40 148 40c64 0 111 -16 154 -44l-29 -138c-28 5 -57 10 -85 10c-64 0 -103 -31 -155 -110l-279 -433l382 -605l146 -21v-126h-461v126l78 13l-300 495h-175v-480l163 -28v-126h-522v126l163 28v480z" />
    <glyph glyph-name="uni0417" unicode="&#x417;" horiz-adv-x="1222" 
d="M1096 1062c0 -135 -89 -251 -236 -315c167 -56 258 -174 258 -341c0 -133 -50 -238 -149 -314c-99 -75 -228 -113 -388 -113c-139 0 -259 36 -360 107c-100 71 -148 175 -145 312l2 6h188c0 -76 29 -140 88 -193c59 -52 134 -78 227 -78c106 0 189 25 249 74
c61 50 91 115 91 195c0 177 -111 262 -324 262h-164v156h164c205 0 302 93 302 246c0 75 -28 137 -84 184c-55 48 -140 72 -253 72c-131 0 -225 -46 -285 -107l-38 -205h-138v258c41 53 104 101 188 144s181 65 292 65c159 0 285 -36 377 -108s138 -174 138 -307z" />
    <glyph glyph-name="uni0418" unicode="&#x418;" horiz-adv-x="1574" 
d="M437 1456h163v-127l-163 -28v-839l6 -2l700 749v92l-163 28v127h163h197h163v-127l-163 -28v-1147l163 -28v-126h-523v126l163 28v812l-6 2l-700 -750v-64l163 -28v-126h-523v126l163 28v1147l-163 28v127h163h197z" />
    <glyph glyph-name="uni041A" unicode="&#x41a;" horiz-adv-x="1452" 
d="M71 0v126l163 28v1147l-163 28v127h523v-127l-163 -28v-501h159l329 474c54 75 101 125 141 152s86 41 139 41c63 0 100 -16 148 -45l-29 -139c-36 7 -61 12 -88 12c-31 0 -58 -8 -80 -25c-21 -17 -46 -45 -75 -85l-313 -436l484 -598l137 -25v-126h-478v126l111 14
l-397 494h-188v-480l163 -28v-126h-523z" />
    <glyph glyph-name="uni041B" unicode="&#x41b;" horiz-adv-x="1512" 
d="M1081 1301h-503l-24 -531c-13 -273 -51 -470 -115 -590c-63 -120 -173 -180 -330 -180h-52v154h40c90 0 153 46 190 137c37 92 61 252 71 479l24 532l-156 27v127h1215v-127l-163 -28v-1147l163 -28v-126h-523v126l163 28v1147z" />
    <glyph glyph-name="uni0423" unicode="&#x423;" horiz-adv-x="1360" 
d="M1300 1456v-127l-114 -17l-449 -1073c-39 -87 -82 -153 -129 -196c-46 -43 -120 -64 -221 -64c-17 0 -36 1 -59 3c-22 2 -36 4 -42 6l6 149c7 -1 21 -2 43 -3s39 -1 50 -1c47 0 81 12 101 35c21 24 44 63 70 117l39 83l-423 943l-118 18v127h457v-127l-122 -19l221 -535
l73 -188h6l273 722l-127 20v127h465z" />
    <glyph glyph-name="uni0424" unicode="&#x424;" horiz-adv-x="1600" 
d="M702 174h-29c-169 0 -309 51 -421 153c-112 103 -168 235 -168 396c0 160 56 292 168 395c113 103 253 155 421 155h29v107l-163 29v126h523v-126l-163 -29v-107h26c168 0 308 -51 421 -154s170 -234 170 -394c0 -161 -57 -294 -170 -397s-253 -154 -421 -154h-26v-98
l163 -29v-126h-523v126l163 29v98zM702 1118h-29c-126 0 -223 -36 -292 -107c-68 -71 -102 -167 -102 -288c0 -122 34 -218 102 -289c69 -71 166 -106 292 -106h29v790zM927 1118h-28v-790h28c124 0 220 36 289 107s104 168 104 290c0 120 -35 215 -104 286
s-165 107 -289 107z" />
    <glyph glyph-name="uni0426" unicode="&#x426;" horiz-adv-x="1594" 
d="M1505 1456v-127l-163 -28v-1147h190v-505h-195v351h-1260v126l163 28v1147l-163 28v127h163h197h163v-127l-163 -28v-1147h708v1147l-163 28v127h523z" />
    <glyph glyph-name="uni0427" unicode="&#x427;" horiz-adv-x="1526" 
d="M942 0v126l163 28v449c-63 -19 -125 -33 -184 -42s-130 -13 -211 -13c-160 0 -281 35 -364 105s-124 184 -124 343v305l-163 28v127h523v-127l-163 -28v-305c0 -110 23 -186 69 -229c46 -42 120 -63 222 -63c139 0 263 19 395 55v542l-163 28v127h163h361v-127l-163 -28
v-1147l163 -28v-126h-524z" />
    <glyph glyph-name="uni0428" unicode="&#x428;" horiz-adv-x="2037" 
d="M77 0v126l163 28v1147l-163 28v127h360h163v-127l-163 -28v-1147h492v1147l-163 28v127h522v-127l-163 -28v-1147h490v1147l-163 28v127h163h197h163v-127l-163 -28v-1147l163 -28v-126h-1898z" />
    <glyph glyph-name="uni0429" unicode="&#x429;" horiz-adv-x="2044" 
d="M1615 1456h360v-127l-163 -28v-1146h180l-20 -506h-175v351h-1720v126l163 28v1147l-163 28v127h163h197h163v-127l-163 -28v-1147h492v1147l-163 28v127h163h359v-127l-163 -28v-1147h490v1147l-163 28v127h163z" />
    <glyph glyph-name="uni042A" unicode="&#x42a;" horiz-adv-x="1740" 
d="M594 1301h-349l-14 -166h-169v321h729h163v-127l-163 -28v-441h359c156 0 277 -38 362 -115c86 -77 129 -180 129 -311s-43 -237 -129 -316s-207 -118 -362 -118h-719v126l163 28v1147zM1150 705h-359v-551h359c99 0 172 27 221 80s73 121 73 202c0 79 -24 143 -73 193
c-49 51 -122 76 -221 76z" />
    <glyph glyph-name="uni042B" unicode="&#x42b;" horiz-adv-x="1913" 
d="M250 1456h197v-596h359c156 0 277 -38 362 -115c86 -77 129 -180 129 -311s-43 -237 -129 -316s-207 -118 -362 -118h-719v126l163 28v1147l-163 28v127h163zM1329 0v126l163 28v1147l-163 28v127h523v-127l-163 -28v-1147l163 -28v-126h-523zM806 705h-359v-551h359
c99 0 172 27 221 80s73 121 73 202c0 79 -24 143 -73 193c-49 51 -122 76 -221 76zM447 1456h163v-127l-163 -28v155z" />
    <glyph glyph-name="uni042C" unicode="&#x42c;" horiz-adv-x="1358" 
d="M233 1456h197v-596h359c156 0 277 -38 362 -115c86 -77 129 -180 129 -311s-43 -237 -129 -316s-207 -118 -362 -118h-719v126l163 28v1147l-163 28v127h163zM789 705h-359v-551h359c99 0 172 27 221 80s73 121 73 202c0 79 -24 143 -73 193c-49 51 -122 76 -221 76z
M430 1456h163v-127l-163 -28v155z" />
    <glyph glyph-name="uni042D" unicode="&#x42d;" horiz-adv-x="1257" 
d="M83 1010v259c41 53 103 100 187 143s182 65 293 65c192 0 345 -69 458 -208c114 -139 171 -315 171 -530v-21c0 -214 -58 -391 -174 -530s-268 -208 -455 -208c-111 0 -209 21 -293 64s-146 91 -187 144v259h138l37 -206c57 -60 172 -107 305 -107c129 0 230 47 303 142
s114 218 121 369l-2 5h-554v154h555l2 5c-7 152 -48 276 -123 371s-182 143 -322 143c-131 0 -222 -44 -285 -107l-37 -206h-138z" />
    <glyph glyph-name="uni042E" unicode="&#x42e;" horiz-adv-x="1994" 
d="M210 1301l-163 28v127h523v-127l-163 -28v-515h214c10 199 73 363 189 492c117 130 265 195 444 195c193 0 351 -70 472 -211c122 -141 183 -317 183 -528v-21c0 -212 -61 -388 -183 -528c-121 -140 -279 -210 -472 -210c-175 0 -321 61 -436 184s-180 281 -195 473h-216
v-478l163 -28v-126h-523v126l163 28v1147zM1712 713v23c0 169 -41 307 -122 414s-193 161 -336 161c-137 0 -245 -54 -322 -161s-115 -245 -115 -414v-23c0 -171 38 -310 115 -417s185 -160 322 -160c145 0 258 53 338 160s120 246 120 417z" />
    <glyph glyph-name="uni042F" unicode="&#x42f;" horiz-adv-x="1384" 
d="M56 34l28 139c23 -7 38 -10 61 -10c55 0 93 33 130 93l206 356c-208 68 -320 206 -320 406c0 139 46 246 137 323s217 115 378 115h630v-127l-163 -28v-1147l163 -28v-126h-361v570h-295l-219 -403c-65 -113 -150 -175 -250 -175c-56 0 -88 13 -125 42zM358 1020
c0 -87 27 -158 82 -213c55 -54 133 -81 235 -81h270v575h-269c-208 0 -318 -106 -318 -281zM945 0h-163v126l163 28v-154z" />
    <glyph glyph-name="uni0431" unicode="&#x431;" horiz-adv-x="1166" 
d="M628 1020c137 0 246 -46 326 -138c80 -91 120 -209 120 -352v-22c0 -155 -43 -282 -130 -381s-205 -148 -354 -148s-267 49 -354 148s-130 226 -130 381v140c0 213 45 383 134 510s209 205 360 235c84 15 145 34 182 55c38 21 57 56 57 105h152l2 -6
c2 -117 -26 -194 -83 -231s-148 -66 -273 -87c-91 -15 -169 -51 -234 -106c-64 -55 -103 -135 -118 -241l4 -5c79 84 204 143 339 143zM588 866c-94 0 -165 -32 -213 -96s-72 -144 -72 -240v-22c0 -109 24 -198 72 -269s120 -106 215 -106c94 0 165 35 214 106
s73 160 73 269v22c0 96 -25 176 -74 240s-120 96 -215 96z" />
    <glyph glyph-name="uni0432" unicode="&#x432;" horiz-adv-x="1271" 
d="M260 1082h426c285 0 450 -99 450 -298c0 -101 -64 -185 -176 -226c67 -17 120 -48 158 -94c38 -45 57 -97 57 -156c0 -203 -155 -308 -420 -308h-658v126l163 28v773l-163 28v127h163zM755 474h-298v-322h298c147 0 222 57 222 161c0 103 -75 161 -222 161zM457 929v-304
h230c167 0 252 49 252 149c0 103 -85 155 -253 155h-229z" />
    <glyph glyph-name="uni0433" unicode="&#x433;" horiz-adv-x="1075" 
d="M235 154v773l-163 28v127h851v-2h32v-277h-128l-14 123h-381v-772l163 -28v-126h-523v126z" />
    <glyph glyph-name="uni0434" unicode="&#x434;" horiz-adv-x="1304" 
d="M66 154h85c55 64 98 131 127 200c29 70 49 177 59 321l10 253l-157 27v127h870h163v-127l-163 -28v-773h144l-20 -472h-177v318h-745v-318h-177zM543 907l-9 -232c-15 -240 -71 -405 -156 -521h485v753h-320z" />
    <glyph glyph-name="uni0436" unicode="&#x436;" horiz-adv-x="1728" 
d="M754 459h-133l-280 -459h-302v126l154 22l281 418l-181 272c-39 57 -80 91 -135 91c-14 0 -23 0 -27 -1l-49 -8l-28 134c25 16 47 28 67 35c20 8 46 12 77 12c100 0 183 -62 250 -173l187 -303h119v302l-163 28v127h163h360v-127l-163 -28v-302h129l187 303
c65 111 148 173 251 173c61 0 95 -16 143 -47l-27 -134l-50 8c-4 1 -13 1 -26 1c-56 0 -99 -34 -135 -91l-187 -280l277 -410l153 -22v-126h-302l-281 459h-132v-305l163 -28v-126h-523v126l163 28v305z" />
    <glyph glyph-name="uni0437" unicode="&#x437;" horiz-adv-x="1048" 
d="M339 632h188c139 0 193 54 193 154c0 45 -17 84 -51 115s-86 47 -155 47c-62 0 -114 -16 -156 -49s-63 -72 -63 -119h-187l-2 6c-4 93 34 168 113 226c79 59 178 88 295 88c253 0 404 -113 404 -314c0 -97 -62 -183 -167 -230c121 -43 187 -128 187 -251
c0 -101 -39 -181 -117 -238c-77 -57 -180 -86 -307 -86c-118 0 -219 28 -304 85c-84 57 -124 140 -121 248l2 6h187c0 -51 22 -95 66 -132s101 -56 170 -56c71 0 127 16 166 49s59 75 59 124c0 116 -67 167 -212 167h-188v160z" />
    <glyph glyph-name="uni0438" unicode="&#x438;" horiz-adv-x="1396" 
d="M456 1082h163v-127l-163 -28v-611l6 -2l477 768h197h163v-127l-163 -28v-773l163 -28v-126h-523v126l163 28v612l-6 2l-477 -768h-359v126l163 28v773l-163 28v127h359z" />
    <glyph glyph-name="uni043A" unicode="&#x43a;" horiz-adv-x="1264" 
d="M260 927l-163 28v127h523v-127l-163 -28v-302h104l226 303c81 113 154 173 251 173c31 0 56 -4 76 -12c20 -7 43 -19 68 -35l-28 -134l-50 8c-4 1 -13 1 -26 1c-49 0 -99 -42 -135 -91l-209 -271l341 -416l139 -25v-126h-263l-366 459h-128v-305l163 -28v-126h-523v126
l163 28v773z" />
    <glyph glyph-name="uni043B" unicode="&#x43b;" horiz-adv-x="1316" 
d="M866 926h-367v-306c0 -213 -28 -370 -85 -470c-56 -100 -152 -150 -289 -150h-56l3 168l41 1c71 0 120 34 147 103c28 69 42 185 42 348v307l-163 28v127h924h163v-127l-163 -28v-773l163 -28v-126h-523v126l163 28v772z" />
    <glyph glyph-name="uni043C" unicode="&#x43c;" horiz-adv-x="1724" 
d="M514 1082l352 -824h6l353 824h247h163v-127l-163 -28v-773l163 -28v-126h-523v126l163 28v597l-6 2l-332 -753h-136l-338 769l-6 -2v-613l163 -28v-126h-523v126l163 28v773l-163 28v127h163h254z" />
    <glyph glyph-name="uni043D" unicode="&#x43d;" horiz-adv-x="1395" 
d="M260 927l-163 28v127h523v-127l-163 -28v-313h481v313l-163 28v127h163h198h163v-127l-163 -28v-773l163 -28v-126h-524v126l163 28v306h-481v-306l163 -28v-126h-523v126l163 28v773z" />
    <glyph glyph-name="uni043F" unicode="&#x43f;" horiz-adv-x="1396" 
d="M97 0v126l163 28v773l-163 28v127h1202v-127l-163 -28v-773l163 -28v-126h-523v126l163 28v772h-482v-772l163 -28v-126h-523z" />
    <glyph glyph-name="uni0442" unicode="&#x442;" horiz-adv-x="1186" 
d="M78 1082h1024v-322h-169l-15 169h-232v-775l163 -28v-126h-523v126l163 28v775h-228l-15 -169h-168v322z" />
    <glyph glyph-name="uni0444" unicode="&#x444;" horiz-adv-x="1471" 
d="M825 1560v-490c45 20 98 32 161 32c126 0 223 -53 291 -159c69 -106 103 -247 103 -422v-21c0 -157 -34 -284 -103 -379c-68 -95 -164 -142 -289 -142c-63 0 -118 11 -163 30v-270l163 -28v-127h-523v127l163 28v266c-43 -16 -91 -26 -146 -26c-125 0 -221 47 -289 142
s-102 222 -102 379v21c0 175 34 316 101 422c68 106 165 159 292 159c53 0 101 -10 144 -26v329l-163 28v127h360zM1182 500v21c0 125 -21 228 -63 307s-106 119 -193 119c-40 0 -73 -6 -101 -17v-783c27 -9 60 -14 103 -14c86 0 150 34 191 101c42 67 63 156 63 266z
M288 521v-21c0 -111 19 -200 57 -267c39 -67 101 -100 187 -100c37 0 69 5 96 14v786c-27 8 -58 14 -94 14c-87 0 -149 -39 -188 -118s-58 -181 -58 -308z" />
    <glyph glyph-name="uni0446" unicode="&#x446;" horiz-adv-x="1362" 
d="M912 1082h197v-928h133l-19 -475h-176v321h-977v126l163 28v773l-163 28v127h360h163v-127l-163 -28v-773h482v773l-163 28v127h163zM1109 1082h163v-127l-163 -28v155z" />
    <glyph glyph-name="uni0447" unicode="&#x447;" horiz-adv-x="1355" 
d="M425 1083h163v-126l-163 -28v-164c0 -173 74 -252 221 -252c88 0 166 10 245 30v384l-163 28v127h523v-127l-163 -28v-773l163 -28v-126h-523v126l163 28v232c-77 -20 -156 -29 -245 -29c-261 0 -418 139 -418 408v164l-163 28v126h360z" />
    <glyph glyph-name="uni0448" unicode="&#x448;" horiz-adv-x="1872" 
d="M260 927l-163 28v127h360h163v-127l-163 -28v-773h380v928h197v-928h381v773l-163 28v127h360h163v-127l-163 -28v-773l163 -28v-126h-1678v126l163 28v773z" />
    <glyph glyph-name="uni0449" unicode="&#x449;" horiz-adv-x="1873" 
d="M1763 1082v-127l-163 -28v-772h174l-20 -476h-175v321h-1494v126l163 28v773l-163 28v127h163h197h163v-127l-163 -28v-773h380v928h197v-928h381v773l-163 28v127h523z" />
    <glyph glyph-name="uni044A" unicode="&#x44a;" horiz-adv-x="1420" 
d="M451 927h-237l-14 -166h-169v321h617h163v-127l-163 -28v-217h268c128 0 228 -33 299 -98s107 -149 107 -253c0 -105 -36 -191 -108 -258c-71 -67 -171 -101 -298 -101h-628v126l163 28v773zM916 556h-268v-402h268c71 0 124 19 157 56c34 38 51 85 51 142
c0 55 -17 102 -51 143s-86 61 -157 61z" />
    <glyph glyph-name="uni044B" unicode="&#x44b;" horiz-adv-x="1732" 
d="M260 1082h197v-372h268c128 0 228 -33 299 -98s107 -149 107 -253c0 -105 -36 -191 -108 -258c-71 -67 -171 -101 -298 -101h-628v126l163 28v773l-163 28v127h163zM1153 0v126l163 28v773l-163 28v127h360v-928l163 -28v-126h-523zM725 556h-268v-402h268
c71 0 124 19 157 56c34 38 51 85 51 142c0 55 -17 102 -51 143s-86 61 -157 61zM457 1082h163v-127l-163 -28v155z" />
    <glyph glyph-name="uni044C" unicode="&#x44c;" horiz-adv-x="1212" 
d="M260 1082h197v-372h268c128 0 228 -33 299 -98s107 -149 107 -253c0 -105 -36 -191 -108 -258c-71 -67 -171 -101 -298 -101h-628v126l163 28v773l-163 28v127h163zM725 556h-268v-402h268c71 0 124 19 157 56c34 38 51 85 51 142c0 55 -17 102 -51 143s-86 61 -157 61z
M457 1082h163v-127l-163 -28v155z" />
    <glyph glyph-name="uni044D" unicode="&#x44d;" horiz-adv-x="1089" 
d="M524 133c96 0 166 32 210 96c45 64 68 144 71 240l-2 5h-400v154h399l2 5c-5 89 -31 164 -76 224s-113 90 -204 90c-93 0 -168 -31 -215 -76l-42 -170h-158l10 240c89 100 230 161 405 161c156 0 276 -52 359 -155c84 -103 126 -231 126 -385v-42
c0 -155 -42 -284 -125 -387s-203 -154 -360 -154c-115 0 -216 36 -303 108c-87 73 -128 156 -124 249l2 6h178c0 -59 25 -108 74 -149c49 -40 107 -60 173 -60z" />
    <glyph glyph-name="uni044E" unicode="&#x44e;" horiz-adv-x="1766" 
d="M69 0v126l163 28v773l-163 28v127h360v-457h265c13 141 62 256 147 344c85 89 196 133 333 133c149 0 267 -52 354 -155s131 -235 131 -396v-22c0 -161 -43 -293 -130 -396s-204 -154 -353 -154c-141 0 -254 45 -339 136s-133 210 -144 356h-264v-317l163 -28v-126h-523z
M888 551v-22c0 -115 24 -209 72 -284c49 -75 121 -112 216 -112c93 0 164 37 213 112s73 169 73 284v22c0 113 -24 208 -73 283s-120 113 -215 113s-166 -38 -214 -113s-72 -170 -72 -283z" />
    <glyph glyph-name="uni044F" unicode="&#x44f;" horiz-adv-x="1302" 
d="M690 0v126l163 28v266h-267l-256 -420h-265v126l142 21l185 302c-137 49 -214 162 -214 302c0 97 37 177 111 238c74 62 175 93 304 93h457h163v-127l-163 -28v-773l163 -28v-126h-523zM376 749c0 -48 16 -89 49 -123s83 -51 148 -51h280v354h-260
c-71 0 -125 -18 -162 -54c-37 -35 -55 -77 -55 -126z" />
    <glyph glyph-name="uni0452" unicode="&#x452;" horiz-adv-x="1298" 
d="M636 1293v-113h-214v-242c75 104 185 164 317 164c232 0 366 -136 366 -424v-767c0 -223 -120 -348 -325 -348c-43 0 -76 6 -113 18l15 150c9 -3 24 -6 47 -9s40 -4 51 -4c80 0 128 73 128 193v769c0 179 -77 262 -229 262c-108 0 -200 -55 -257 -143v-645l163 -28v-126
h-523v126l163 28v1026h-194v113h194v112l-163 28v127h360v-267h214z" />
    <glyph glyph-name="uni0454" unicode="&#x454;" horiz-adv-x="1118" 
d="M599 133c65 0 123 20 172 60c50 41 75 90 75 149h177l2 -6c3 -93 -38 -176 -125 -249c-86 -72 -186 -108 -301 -108c-157 0 -278 51 -361 154s-124 232 -124 387v42c0 154 42 282 125 385s203 155 360 155c173 0 314 -61 405 -161l9 -240h-157l-43 170
c-47 45 -122 76 -214 76c-94 0 -164 -31 -209 -94c-45 -62 -69 -139 -72 -231l2 -5h364v-154h-364l-2 -5c3 -94 27 -172 72 -233s114 -92 209 -92z" />
    <glyph glyph-name="uni0459" unicode="&#x459;" horiz-adv-x="1786" 
d="M823 926h-318v-306c0 -212 -30 -368 -89 -469s-158 -151 -295 -151h-56l3 158l41 1c71 0 121 36 152 109s47 190 47 352v307l-163 28v127h1038v-127l-163 -28v-256h268c128 0 228 -31 299 -93c71 -61 107 -141 107 -239c0 -99 -36 -180 -108 -244
c-71 -63 -171 -95 -298 -95h-628v126l163 28v772zM1288 517h-268v-365h268c71 0 123 19 157 56s51 82 51 133c0 49 -17 90 -51 124c-33 35 -86 52 -157 52z" />
    <glyph glyph-name="uni045A" unicode="&#x45a;" horiz-adv-x="1894" 
d="M97 0v126l163 28v773l-163 28v127h523v-127l-163 -28v-253h481v253l-163 28v127h361h163v-127l-163 -28v-257h268c128 0 228 -31 299 -92s107 -141 107 -239c0 -99 -36 -180 -108 -244c-71 -63 -171 -95 -298 -95h-629v126l163 28v367h-481v-367l163 -28v-126h-523z
M1404 517h-268v-365h268c71 0 123 19 157 56s51 82 51 133c0 49 -17 90 -51 124c-33 35 -86 52 -157 52z" />
    <glyph glyph-name="uni045B" unicode="&#x45b;" horiz-adv-x="1322" 
d="M62 0v126l163 28v1008h-176v155h176v88l-163 28v127h360v-243h268v-155h-268v-224c75 104 185 164 317 164c232 0 366 -136 366 -424v-524l163 -28v-126h-523v126l163 28v526c0 179 -77 262 -229 262c-108 0 -200 -55 -257 -143v-645l163 -28v-126h-523z" />
    <glyph glyph-name="uni045F" unicode="&#x45f;" horiz-adv-x="1397" 
d="M800 0v-356h-197v356h-505v126l163 28v773l-163 28v127h360h163v-127l-163 -28v-773h482v773l-163 28v127h163h197h163v-127l-163 -28v-773l163 -28v-126h-500z" />
    <glyph glyph-name="uni0460" unicode="&#x460;" horiz-adv-x="1763" 
d="M1431 1456h197v-1065c0 -134 -39 -236 -116 -307c-77 -70 -177 -105 -302 -105c-145 0 -263 58 -326 173c-68 -115 -190 -173 -341 -173c-120 0 -217 35 -290 105c-73 71 -109 173 -109 307v1065h197v-1065c0 -168 81 -258 202 -258c144 0 241 89 241 258v1065h204v-1065
c0 -168 89 -258 222 -258c132 0 221 90 221 258v1065z" />
    <glyph glyph-name="uni0461" unicode="&#x461;" horiz-adv-x="1605" 
d="M1273 1082h197v-730c0 -121 -35 -214 -105 -278c-70 -63 -161 -95 -274 -95c-125 0 -226 48 -283 143c-63 -95 -170 -143 -299 -143c-108 0 -195 32 -261 95c-65 64 -98 157 -98 278v730h197v-730c0 -144 63 -219 162 -219c120 0 202 76 202 219v730h198v-730
c0 -144 71 -219 182 -219c108 0 182 76 182 219v730z" />
    <glyph glyph-name="uni0463" unicode="&#x463;" horiz-adv-x="1204" 
d="M463 1560v-324h321v-154h-321v-334h268c128 0 228 -34 299 -103c71 -68 107 -157 107 -267s-36 -201 -108 -272c-71 -71 -171 -106 -298 -106h-628v126l163 28v928h-191v154h191v169l-163 28v127h360zM731 594h-268v-440h268c71 0 124 21 157 62c34 41 51 93 51 155
c0 60 -17 112 -51 156c-34 45 -86 67 -157 67z" />
    <glyph glyph-name="uni0464" unicode="&#x464;" horiz-adv-x="1804" 
d="M1737 1269v-259h-139l-37 206c-64 63 -156 107 -285 107c-137 0 -245 -45 -325 -135c-79 -90 -125 -206 -137 -348l3 -6h543v-155h-547l-3 -5c4 -157 45 -286 124 -388c79 -101 187 -152 322 -152c132 0 246 47 305 107l37 206h139v-259c-42 -54 -105 -102 -189 -145
c-84 -42 -181 -63 -292 -63c-183 0 -334 66 -455 197c-120 132 -184 299 -192 502h-192v-525l163 -28v-126h-523v126l163 28v1147l-163 28v127h163h197h163v-127l-163 -28v-467h195c18 189 85 344 202 464s264 180 442 180c111 0 208 -22 292 -65s147 -91 189 -144z" />
    <glyph glyph-name="uni0465" unicode="&#x465;" horiz-adv-x="1646" 
d="M448 1082v-466h215c9 141 55 257 138 348c83 92 198 138 345 138c173 0 314 -61 405 -161l9 -240h-157l-43 170c-47 45 -122 76 -214 76c-94 0 -164 -31 -209 -94c-45 -62 -69 -139 -72 -232l2 -5h360v-154h-360l-2 -5c3 -93 27 -171 72 -232s114 -92 209 -92
c65 0 123 20 172 60c50 41 75 90 75 149h177l2 -6c3 -93 -38 -176 -125 -249c-86 -72 -186 -108 -301 -108c-147 0 -262 45 -345 135c-82 91 -128 207 -138 348h-215v-308l163 -28v-126h-523v126l163 28v773l-163 28v127h163h197z" />
    <glyph glyph-name="uni0466" unicode="&#x466;" horiz-adv-x="1427" 
d="M52 0v126l104 15l474 1315h168l465 -1315l104 -15v-126h-418v126l113 19l-105 312h-155v-457h-196v457h-142l-108 -312l113 -19v-126h-417zM710 1165l-189 -544h380l-185 544h-6z" />
    <glyph glyph-name="uni0467" unicode="&#x467;" horiz-adv-x="1203" 
d="M925 0l-119 294h-106v-294h-196v294h-113l-116 -294h-215v126l70 13l384 943h169l386 -943l72 -13v-126h-216zM576 761l-124 -312h292l-126 312l-18 68h-6z" />
    <glyph glyph-name="uni0468" unicode="&#x468;" horiz-adv-x="1935" 
d="M400 1456h163v-127l-163 -28v-679h478l301 834h168l465 -1315l104 -15v-126h-418v126l113 19l-105 312h-155v-457h-196v457h-142l-108 -312l113 -19v-126h-417v126l104 15l114 317h-419v-304l163 -28v-126h-523v126l163 28v1147l-163 28v127h163h197zM1259 1165
l-189 -544h380l-185 544h-6z" />
    <glyph glyph-name="uni0469" unicode="&#x469;" horiz-adv-x="1760" 
d="M402 1082v-633h404l258 633h169l386 -943l72 -13v-126h-216l-119 294h-106v-294h-196v294h-113l-116 -294h-215v126l70 13l63 154h-341v-139l163 -28v-126h-523v126l163 28v773l-163 28v127h163h197zM1126 761l-124 -312h292l-126 312l-18 68h-6z" />
    <glyph glyph-name="uni046A" unicode="&#x46a;" horiz-adv-x="1895" 
d="M853 632l-17 27h-131c-102 0 -176 -21 -222 -63c-45 -42 -68 -117 -68 -225v-217l163 -28v-126h-523v126l163 28v217c0 312 167 443 487 443h37l-301 494l-144 21v127h1316v-127l-143 -21l-301 -494h22c159 0 280 -35 363 -105c83 -69 125 -182 125 -338v-217l163 -28
v-126h-523v126l163 28v217c0 108 -23 183 -69 225s-120 63 -222 63h-116l-25 -42v-463l163 -28v-126h-523v126l163 28v478zM666 1301l284 -487h10l284 487h-578z" />
    <glyph glyph-name="uni046B" unicode="&#x46b;" horiz-adv-x="1600" 
d="M543 0v126l163 28v287l-5 9h-61c-89 0 -153 -21 -192 -63c-39 -41 -59 -116 -59 -225v-162h-321v126l124 28v8c0 301 145 432 418 441l-197 331l-142 21v127h1072v-127l-141 -21l-197 -331c131 -7 232 -45 301 -115s104 -179 104 -326v-8l124 -28v-126h-321v162
c0 108 -20 183 -60 225c-39 42 -103 63 -191 63h-48l-11 -19v-277l163 -28v-126h-523zM632 926l175 -319l176 319h-351z" />
    <glyph glyph-name="uni046C" unicode="&#x46c;" horiz-adv-x="2438" 
d="M56 0v126l163 28v1147l-163 28v127h523v-127l-163 -28v-486h891l-300 493l-144 21v127h1316v-127l-143 -21l-301 -494h22c159 0 280 -35 363 -105c83 -69 125 -182 125 -338v-217l163 -28v-126h-523v126l163 28v217c0 108 -23 183 -69 225s-120 63 -222 63h-116l-25 -42
v-463l163 -28v-126h-523v126l163 28v478l-17 27h-131c-102 0 -176 -21 -222 -63c-45 -42 -68 -117 -68 -225v-217l163 -28v-126h-523v126l163 28v217c0 123 26 218 78 289h-446v-506l163 -28v-126h-523zM1232 1301l284 -487h10l284 487h-578z" />
    <glyph glyph-name="uni046D" unicode="&#x46d;" horiz-adv-x="2188" 
d="M18 0v126l163 28v773l-163 28v127h360v-477h764l-196 329l-142 21v127h1072v-127l-141 -21l-197 -331c131 -7 232 -45 301 -115s104 -179 104 -326v-8l124 -28v-126h-321v162c0 108 -20 183 -60 225c-39 42 -103 63 -191 63h-48l-11 -19v-277l163 -28v-126h-523v126
l163 28v287l-5 9h-61c-89 0 -153 -21 -192 -63c-39 -41 -59 -116 -59 -225v-162h-321v126l124 28v8c0 123 24 217 72 288h-419v-296l163 -28v-126h-523zM1165 926l175 -319l176 319h-351z" />
    <glyph glyph-name="uni046E" unicode="&#x46e;" horiz-adv-x="1053" 
d="M284 825h143c205 0 300 89 300 241c0 69 -24 127 -72 174s-117 71 -208 71c-103 0 -183 -29 -234 -76l-13 -170h-158l1 241c89 100 231 160 404 160c139 0 254 -37 343 -111s134 -172 134 -293c0 -137 -92 -252 -244 -311c172 -55 267 -175 267 -344
c0 -133 -44 -238 -133 -314c-88 -75 -203 -113 -344 -113h-49c-101 0 -145 -41 -145 -112c0 -47 15 -84 46 -112c31 -29 69 -53 113 -73l-79 -127c-74 31 -137 74 -189 129s-78 119 -78 193c0 172 125 257 340 257h41c87 0 155 25 204 74c50 50 75 115 75 194
c0 177 -111 267 -322 267h-143v155zM380 1906l146 -148l147 148h170v-18l-257 -245h-119l-253 243v20h166z" />
    <glyph glyph-name="uni046F" unicode="&#x46f;" horiz-adv-x="947" 
d="M842 772c0 -99 -74 -186 -197 -235c141 -44 219 -127 219 -242c0 -100 -40 -178 -121 -233c-80 -55 -185 -82 -314 -82h-49c-100 0 -145 -41 -145 -112c0 -47 16 -84 47 -112c31 -29 69 -53 113 -73l-80 -127c-74 31 -137 74 -189 129c-51 55 -77 119 -78 193
c0 172 125 257 340 257h41c149 0 238 59 238 156c0 108 -98 163 -282 163h-142v155h142c176 0 260 66 260 167c0 89 -78 160 -230 161c-92 0 -166 -23 -213 -56l-14 -148h-156l-1 218c84 88 219 140 384 140c126 0 229 -29 308 -88s119 -136 119 -231zM268 1563l146 -148
l147 148h170v-18l-257 -245h-119l-253 243v20h166z" />
    <glyph glyph-name="uni0472" unicode="&#x472;" horiz-adv-x="1403" 
d="M1368 738v-21c0 -212 -61 -388 -183 -528c-121 -140 -279 -210 -472 -210c-188 0 -341 70 -458 210s-176 316 -176 528v21c0 211 59 387 176 528s270 211 458 211c193 0 351 -70 472 -211c122 -141 183 -317 183 -528zM713 1315c-129 0 -232 -48 -308 -144
c-76 -95 -117 -219 -123 -370l2 -5h878l2 5c-7 151 -50 275 -129 370c-79 96 -187 144 -322 144zM713 140c134 0 240 45 318 136c79 91 123 211 132 360l-2 5h-875l-2 -5c9 -148 51 -268 126 -359s176 -137 303 -137z" />
    <glyph glyph-name="uni0473" unicode="&#x473;" horiz-adv-x="1186" 
d="M104 529v22c0 160 43 292 130 395c87 104 204 156 353 156s267 -52 354 -155s131 -235 131 -396v-22c0 -161 -43 -293 -130 -396s-204 -154 -353 -154c-150 0 -268 51 -355 154s-130 235 -130 396zM589 133c85 0 152 31 199 92c47 62 74 142 79 239l-2 5h-555l-2 -5
c5 -97 31 -177 78 -239c48 -61 116 -92 203 -92zM587 947c-84 0 -150 -30 -197 -90c-47 -59 -74 -135 -81 -228l2 -5h553l2 5c-7 93 -35 169 -83 228c-47 60 -113 90 -196 90z" />
    <glyph glyph-name="uni0474" unicode="&#x474;" horiz-adv-x="1387" 
d="M487 1456v-127l-116 -20l298 -927l33 -121h6l33 121l253 805c33 104 71 178 114 222c44 45 102 67 174 67l50 -1l-1 -169h-12c-67 0 -101 -36 -138 -143l-392 -1163h-169l-461 1314l-102 15v127h430z" />
    <glyph glyph-name="uni0475" unicode="&#x475;" horiz-adv-x="1164" 
d="M482 1082v-127l-118 -20l190 -616l18 -77h6l19 77l149 535c55 169 146 247 255 247c45 0 76 -5 109 -25l-22 -151c-7 4 -23 8 -40 8c-43 0 -87 -38 -104 -94l-296 -839h-149l-331 940l-103 15v127h417z" />
    <glyph glyph-name="uni047A" unicode="&#x47a;" horiz-adv-x="1445" 
d="M814 1589v-389h-197v389h197zM814 257v-398h-197v398h197zM1368 738v-21c0 -212 -61 -388 -183 -528c-121 -140 -279 -210 -472 -210c-188 0 -341 70 -458 210s-176 316 -176 528v21c0 211 59 387 176 528s270 211 458 211c193 0 351 -70 472 -211
c122 -141 183 -317 183 -528zM1171 717v23c0 169 -41 307 -122 414s-193 161 -336 161c-137 0 -245 -54 -322 -161s-115 -245 -115 -414v-23c0 -171 38 -310 115 -417s185 -160 322 -160c145 0 258 53 338 160s120 246 120 417z" />
    <glyph glyph-name="uni047B" unicode="&#x47b;" horiz-adv-x="1166" 
d="M654 1206v-370h-197v370h197zM654 251v-369h-197v369h197zM104 529v22c0 160 43 292 130 395c87 104 204 156 353 156s267 -52 354 -155s131 -235 131 -396v-22c0 -161 -43 -293 -130 -396s-204 -154 -353 -154c-150 0 -268 51 -355 154s-130 235 -130 396zM301 551v-22
c0 -115 24 -209 72 -284c49 -75 121 -112 216 -112c93 0 164 37 213 112s73 169 73 284v22c0 113 -24 208 -73 283s-120 113 -215 113s-166 -38 -214 -113s-72 -170 -72 -283z" />
    <glyph glyph-name="uni047C" unicode="&#x47c;" horiz-adv-x="1742" 
d="M1214 1301v146l6 2c116 3 211 -34 284 -111s110 -188 110 -333v-576c0 -146 -37 -258 -111 -335c-73 -77 -170 -115 -289 -115c-152 0 -272 57 -339 170c-68 -113 -189 -170 -340 -170c-120 0 -217 38 -290 115s-109 189 -109 335v576c0 145 36 256 109 333
s167 114 284 111l6 -2v-146c-121 0 -202 -104 -202 -296v-576c0 -193 81 -296 202 -296c144 0 241 89 241 258v432h198v-432c0 -168 96 -258 240 -258c121 0 203 103 203 296v576c0 192 -82 296 -203 296zM1272 1756h45v-129h-47c-87 0 -181 20 -281 61
c-99 41 -163 62 -191 62c-67 0 -107 -37 -107 -106v-18h-135v36c0 144 86 218 238 218c48 0 121 -21 218 -62c98 -41 185 -62 260 -62zM996 1516l-165 -198l-80 66l58 115l-1 140h188v-123z" />
    <glyph glyph-name="uni047D" unicode="&#x47d;" horiz-adv-x="1532" 
d="M1073 937v146l6 3c105 3 190 -31 255 -101c66 -70 99 -171 99 -304v-291c0 -134 -33 -236 -99 -306s-153 -105 -261 -105c-133 0 -240 48 -300 144c-63 -96 -169 -144 -300 -144c-108 0 -195 35 -261 105c-65 70 -98 172 -98 306v291c0 133 33 234 98 304
s150 104 255 101l6 -3v-146c-99 0 -162 -89 -162 -256v-291c0 -169 63 -257 162 -257c120 0 202 76 202 219v234h197v-234c0 -144 80 -219 201 -219c97 0 163 89 163 257v291c0 167 -66 256 -163 256zM1202 1397h45v-129h-47c-87 0 -181 20 -281 61c-99 41 -163 62 -191 62
c-67 0 -108 -37 -108 -106v-18h-134v36c0 144 86 218 238 218c48 0 121 -21 218 -62c98 -41 185 -62 260 -62zM926 1280v-123l-165 -198l-80 66l58 115l-1 140h188z" />
    <glyph glyph-name="uni047E" unicode="&#x47e;" horiz-adv-x="1763" 
d="M779 1688h-313v109h821l2 -109h-332v-126h-178v126zM1431 1456h197v-1065c0 -134 -39 -236 -116 -307c-77 -70 -177 -105 -302 -105c-145 0 -263 58 -326 173c-68 -115 -190 -173 -341 -173c-120 0 -217 35 -290 105c-73 71 -109 173 -109 307v1065h197v-1065
c0 -168 81 -258 202 -258c144 0 241 89 241 258v1065h204v-1065c0 -168 89 -258 222 -258c132 0 221 90 221 258v1065z" />
    <glyph glyph-name="uni047F" unicode="&#x47f;" horiz-adv-x="1564" 
d="M716 1348h-313v109h821l3 -109h-333v-128h-178v128zM1273 1082h197v-730c0 -121 -35 -214 -105 -278c-70 -63 -161 -95 -274 -95c-125 0 -226 48 -283 143c-63 -95 -170 -143 -299 -143c-108 0 -195 32 -261 95c-65 64 -98 157 -98 278v730h197v-730
c0 -144 63 -219 162 -219c120 0 202 76 202 219v730h198v-730c0 -144 71 -219 182 -219c108 0 182 76 182 219v730z" />
    <glyph glyph-name="uni0480" unicode="&#x480;" horiz-adv-x="1267" 
d="M786 133v-516h-196v368c-143 19 -259 85 -346 198s-130 251 -130 415v259c0 179 52 327 155 444c104 117 238 176 403 176s295 -44 392 -132c97 -87 145 -203 142 -348l-2 -6h-189c0 102 -30 183 -90 242c-59 59 -144 89 -253 89c-110 0 -198 -44 -263 -133
s-98 -199 -98 -330v-261c0 -133 33 -243 98 -332s153 -133 263 -133h114z" />
    <glyph glyph-name="uni0481" unicode="&#x481;" horiz-adv-x="1058" 
d="M685 133v-516h-197v370c-121 21 -215 81 -283 180c-67 100 -101 218 -101 353v42c0 151 42 279 127 383c85 105 201 157 347 157c121 0 222 -37 301 -112s118 -166 115 -275l-2 -6h-178c0 65 -23 121 -69 168c-45 47 -101 70 -167 70c-91 0 -160 -38 -207 -115
s-70 -167 -70 -270v-42c0 -106 23 -197 69 -273s115 -114 208 -114h107z" />
    <glyph glyph-name="uni0482" unicode="&#x482;" horiz-adv-x="1138" 
d="M735 810l-204 -363l289 -172l-72 -125l-291 170l-181 -320h-173l225 398l-289 171l70 124l293 -171l203 364l-290 171l72 126l291 -171l186 330h170l-228 -407l293 -171l-76 -124z" />
    <glyph glyph-name="uni0483" unicode="&#x483;" horiz-adv-x="1007" 
d="M875 1314h-544v-126l-175 1v235h545l-1 108l175 -1v-217z" />
    <glyph glyph-name="uni0484" unicode="&#x484;" horiz-adv-x="1042" 
d="M137 1433h44c75 0 162 21 259 62s170 62 219 62c151 0 238 -74 238 -218v-36h-134v18c0 69 -43 106 -108 106c-29 0 -93 -21 -193 -62c-99 -41 -192 -62 -279 -62h-46v130z" />
    <glyph glyph-name="uni0485" unicode="&#x485;" horiz-adv-x="496" 
d="M290 1301l-164 199v123h187l-1 -140l59 -116z" />
    <glyph glyph-name="uni0486" unicode="&#x486;" horiz-adv-x="491" 
d="M371 1500l-165 -199l-80 66l58 116l-1 140h188v-123z" />
    <glyph glyph-name="uni0488" unicode="&#x488;" horiz-adv-x="2028" 
d="M905 1267h-105l-2 6c-3 53 14 96 51 130c37 35 88 52 153 52c64 0 115 -17 152 -52c38 -34 56 -77 53 -130l-2 -6h-104c0 57 -32 101 -99 101s-97 -44 -97 -101zM1497 990h-106l-2 6c-3 52 14 95 51 130c38 35 89 52 153 52s115 -17 153 -52c38 -34 56 -77 53 -130l-2 -6
h-105c0 59 -31 101 -99 101c-67 0 -96 -44 -96 -101zM1683 487h-105l-2 6c-3 52 14 95 51 130c38 35 89 52 153 52s115 -17 152 -52c38 -34 56 -77 53 -130l-2 -6h-104c0 59 -31 101 -99 101c-67 0 -97 -44 -97 -101zM1486 -32h-105l-2 6c-3 52 14 95 51 130
c38 35 89 52 153 52s115 -17 152 -52c38 -34 56 -77 53 -130l-2 -6h-104c0 59 -31 101 -99 101c-67 0 -97 -44 -97 -101zM910 -316h-105l-2 6c-3 53 14 97 51 131s88 51 153 51c64 0 115 -17 152 -51c38 -34 56 -78 53 -131l-2 -6h-104c0 59 -32 101 -99 101
s-97 -42 -97 -101zM333 990h-106l-2 6c-3 53 14 96 51 130c38 35 89 52 154 52c64 0 115 -17 152 -52c38 -34 56 -77 53 -130l-2 -6h-104c0 57 -32 101 -99 101s-97 -44 -97 -101zM156 487h-105l-2 6c-3 52 14 95 51 130c38 35 89 52 153 52s115 -17 152 -52
c38 -34 56 -77 53 -130l-2 -6h-104c0 59 -31 101 -99 101c-67 0 -97 -44 -97 -101zM323 -32h-106l-2 6c-3 52 14 95 51 130c38 35 89 52 153 52s115 -17 153 -52c38 -34 56 -77 53 -130l-2 -6h-105c0 59 -31 101 -99 101c-67 0 -96 -44 -96 -101z" />
    <glyph glyph-name="uni0489" unicode="&#x489;" horiz-adv-x="1964" 
d="M939 -60h137l11 -14l-122 -339h-96zM1017 1126h-136l-12 14l122 338h96zM1559 492v139l13 12l333 -124v-98zM395 572v-139l-13 -12l-333 124v98zM1416 903l-97 99l2 16l321 153l68 -68c-25 -15 -123 -82 -294 -200zM538 120l97 -99l-2 -17l-320 -153l-69 69zM593 958
l-98 -98l-17 2l-148 326l65 69zM1360 62l97 99l17 -2l149 -325l-66 -71z" />
    <glyph glyph-name="uni048D" unicode="&#x48d;" horiz-adv-x="1198" 
d="M457 1650v-194h292v-155h-292v-553h269c128 0 227 -34 298 -103c71 -68 107 -157 107 -267s-36 -201 -108 -272c-71 -71 -170 -106 -297 -106h-629v126l163 28v1147h-221v155h221v39l-163 29v126h360zM726 594h-269v-440h269c71 0 123 21 156 62c34 42 51 94 51 155
c0 60 -17 112 -51 156c-34 45 -86 67 -156 67z" />
    <glyph glyph-name="uni048E" unicode="&#x48e;" horiz-adv-x="1301" 
d="M870 1000l373 -406l-115 -104l-374 406zM234 1456h506c155 0 276 -40 362 -120c87 -80 130 -185 130 -316c0 -132 -43 -238 -130 -317c-86 -79 -207 -119 -362 -119h-309v-430l163 -28v-126h-523v126l163 28v1147l-163 28v127h163zM431 1301v-563h309c99 0 172 26 221 79
s74 120 74 201s-25 148 -74 202s-122 81 -221 81h-309z" />
    <glyph glyph-name="uni048F" unicode="&#x48f;" horiz-adv-x="1261" 
d="M790 409l337 -374l-116 -105l-337 374zM65 -416v127l163 28v1188l-163 28v127h332l18 -132c72 99 175 152 311 152c134 0 238 -53 312 -160c75 -106 112 -246 112 -421v-21c0 -156 -37 -282 -112 -378c-75 -95 -178 -143 -309 -143c-133 0 -233 45 -304 133v-373l163 -28
v-127h-523zM952 500v21c0 123 -24 224 -72 303s-119 118 -214 118c-112 0 -192 -54 -241 -142v-527c49 -89 127 -140 243 -140c93 0 164 34 212 102s72 156 72 265z" />
    <glyph glyph-name="uni0490" unicode="&#x490;" horiz-adv-x="1207" 
d="M931 1456l27 334h158v-489h-696v-1147l163 -28v-126h-523v126l163 28v1147l-163 28v127h871z" />
    <glyph glyph-name="uni0491" unicode="&#x491;" horiz-adv-x="1073" 
d="M225 1082h535l39 201h129v-357h-506v-772l163 -28v-126h-523v126l163 28v773l-163 28v127h163z" />
    <glyph glyph-name="uni0493" unicode="&#x493;" horiz-adv-x="1075" 
d="M595 126v-126h-360v478h-153v154h153v295l-163 28v127h883v-279h-128l-13 123h-382v-294h290v-154h-290v-324zM235 154v-154h-163v126z" />
    <glyph glyph-name="uni0494" unicode="&#x494;" horiz-adv-x="1240" 
d="M77 0v126l163 28v1147l-163 28v127h1056v-322h-169l-15 167h-512v-468h121c189 0 337 -51 442 -154c105 -102 158 -243 158 -424c0 -175 -41 -310 -122 -403s-197 -139 -348 -136l-6 2l-2 142c201 0 281 140 281 395c-3 269 -135 413 -403 413h-121v-514l163 -28v-126
h-523z" />
    <glyph glyph-name="uni0495" unicode="&#x495;" horiz-adv-x="1147" 
d="M945 1080v-277h-128l-14 123h-381v-280h128c151 0 273 -43 368 -128s143 -201 143 -348c-1 -93 -34 -186 -99 -279s-161 -152 -288 -175l-51 149c172 47 241 152 241 305c-1 98 -31 174 -88 229s-133 82 -226 82h-128v-327l163 -28v-126h-523v126l163 28v773l-163 28v127
h163h688v-2h32z" />
    <glyph glyph-name="uni049C" unicode="&#x49c;" horiz-adv-x="1470" 
d="M70 0v126l163 28v1147l-163 28v127h360h163v-127l-163 -28v-501h97v267h157v-267h65l238 474c38 78 78 130 119 155s92 38 151 38c64 0 111 -16 155 -44l-29 -138c-28 5 -57 10 -86 10c-65 0 -101 -29 -145 -110l-234 -435l346 -604l138 -20v-126h-299l-330 634h-89v-219
h-157v219h-97v-480l163 -28v-126h-523z" />
    <glyph glyph-name="uni049D" unicode="&#x49d;" horiz-adv-x="1368" 
d="M90 0v126l163 28v773l-163 28v127h360h163v-127l-163 -28v-302h94v211h157v-211h24l167 303c67 113 141 173 241 173c31 0 56 -4 76 -12c20 -7 43 -19 68 -35l-28 -134l-50 8c-4 1 -13 1 -26 1c-55 0 -86 -30 -125 -91l-162 -263l280 -429l120 -20v-126h-272l-269 459
h-44v-191h-157v191h-94v-305l163 -28v-126h-523z" />
    <glyph glyph-name="uni04A0" unicode="&#x4a0;" horiz-adv-x="1787" 
d="M596 1301h-393l-15 -166h-168v321h773h163v-127l-163 -28v-501h159l329 474c54 75 101 125 141 152s86 41 139 41c63 0 100 -16 148 -45l-29 -139c-36 7 -61 12 -88 12c-31 0 -58 -8 -80 -25c-21 -17 -46 -45 -75 -85l-313 -436l484 -598l137 -25v-126h-478v126l111 14
l-397 494h-188v-480l163 -28v-126h-523v126l163 28v1147z" />
    <glyph glyph-name="uni04A1" unicode="&#x4a1;" horiz-adv-x="1564" 
d="M583 926h-318l-14 -165h-169v321h698h163v-127l-163 -28v-302h104l226 303c81 113 154 173 251 173c31 0 56 -4 76 -12c20 -7 43 -19 68 -35l-28 -134l-50 8c-4 1 -13 1 -26 1c-49 0 -99 -42 -135 -91l-209 -271l341 -416l139 -25v-126h-263l-366 459h-128v-305l163 -28
v-126h-523v126l163 28v772z" />
    <glyph glyph-name="uni04A4" unicode="&#x4a4;" horiz-adv-x="2045" 
d="M408 1456h163v-127l-163 -28v-503h706v503l-163 28v127h1027v-321h-168l-15 166h-452l-6 4l-26 -4v-1147l163 -28v-126h-523v126l163 28v489h-706v-489l163 -28v-126h-523v126l163 28v1147l-163 28v127h163h197z" />
    <glyph glyph-name="uni04A5" unicode="&#x4a5;" horiz-adv-x="1586" 
d="M1534 1082v-321h-169l-15 165h-226v-772l163 -28v-126h-524v126l163 28v306h-481v-306l163 -28v-126h-523v126l163 28v773l-163 28v127h163h197h163v-127l-163 -28v-313h481v313l-163 28v127h163h608z" />
    <glyph glyph-name="uni04A6" unicode="&#x4a6;" horiz-adv-x="2127" 
d="M240 1301l-163 28v127h1428v-127l-163 -28v-468h56c189 0 337 -51 442 -154c105 -102 158 -243 158 -424c0 -175 -41 -310 -122 -403s-197 -139 -348 -136l-6 2l-2 142c201 0 281 140 281 395c-3 269 -135 413 -403 413h-56v-514l163 -28v-126h-523v126l163 28v1147h-708
v-1147l163 -28v-126h-523v126l163 28v1147z" />
    <glyph glyph-name="uni04A7" unicode="&#x4a7;" horiz-adv-x="1909" 
d="M1124 1082h163v-127l-163 -28v-280h80c157 0 284 -43 383 -129c99 -85 148 -201 148 -348c-1 -92 -34 -185 -99 -278c-65 -94 -161 -153 -288 -176l-51 149c171 45 241 153 241 305c-1 98 -32 174 -93 229s-141 83 -241 83h-80v-328l163 -28v-126h-523v126l163 28v772
h-482v-772l163 -28v-126h-523v126l163 28v773l-163 28v127h163h876z" />
    <glyph glyph-name="uni04A8" unicode="&#x4a8;" horiz-adv-x="1541" 
d="M1428 130v-160c-148 0 -281 25 -396 74c-93 -43 -199 -65 -312 -65c-182 0 -330 66 -444 199c-113 133 -170 300 -170 501v161c0 182 42 333 125 453c84 121 192 179 323 176l6 -2l1 -152c-79 0 -142 -45 -189 -134c-46 -89 -69 -202 -69 -339v-163
c0 -157 38 -287 113 -388c76 -101 177 -151 304 -151c44 0 86 5 127 14c-163 129 -253 321 -253 546v222c0 158 38 289 114 394s175 158 297 158s221 -51 297 -154s114 -235 114 -398v-243c0 -211 -79 -395 -216 -522c68 -19 144 -27 228 -27zM791 925v-227
c0 -204 80 -366 228 -457h6c123 89 194 250 194 438v246c0 116 -19 210 -58 281c-38 72 -90 108 -156 108c-65 0 -117 -37 -156 -111c-39 -73 -58 -166 -58 -278z" />
    <glyph glyph-name="uni04A9" unicode="&#x4a9;" horiz-adv-x="1278" 
d="M1189 148v-160c-120 0 -228 18 -321 57c-77 -44 -166 -66 -263 -66c-146 0 -265 56 -356 168s-137 253 -137 423v57c0 137 32 249 97 338s148 132 250 129l6 -2v-151c-48 0 -86 -29 -114 -88c-28 -58 -42 -133 -42 -224v-59c0 -125 27 -228 80 -309s125 -121 216 -121
c31 0 59 3 86 11c-124 105 -191 253 -191 422v103c0 127 29 229 86 308s135 119 233 119c97 0 174 -42 232 -127c59 -85 88 -192 88 -321v-105c0 -148 -46 -281 -126 -381c52 -15 111 -21 176 -21zM942 550v108c0 83 -11 150 -33 203c-21 53 -50 78 -87 75h-6
c-38 3 -67 -19 -88 -67c-21 -47 -31 -111 -31 -191v-107c0 -136 50 -247 145 -314h6c59 65 94 172 94 293z" />
    <glyph glyph-name="uni04B4" unicode="&#x4b4;" horiz-adv-x="1817" 
d="M77 1456h954v-322h-169l-15 167h-158v-1147h708v1147l-163 28v127h523v-127l-163 -28v-1147h190v-505h-195v351h-1260v126l163 28v1147h-232l-14 -167h-169v322z" />
    <glyph glyph-name="uni04B5" unicode="&#x4b5;" horiz-adv-x="1574" 
d="M51 1082h935v-321h-168l-15 167h-167v-774h512v928h360v-127l-163 -28v-773h133l-20 -475h-175v321h-1007v126l163 28v774h-204l-15 -167h-169v321z" />
    <glyph glyph-name="uni04B8" unicode="&#x4b8;" horiz-adv-x="1527" 
d="M798 1017v-701h-158v701h158zM942 0v126l163 28v449c-63 -19 -125 -33 -184 -42s-130 -13 -211 -13c-160 0 -281 35 -364 105s-124 184 -124 343v305l-163 28v127h523v-127l-163 -28v-305c0 -110 23 -186 69 -229c46 -42 120 -63 222 -63c139 0 263 19 395 55v542
l-163 28v127h163h361v-127l-163 -28v-1147l163 -28v-126h-524z" />
    <glyph glyph-name="uni04B9" unicode="&#x4b9;" horiz-adv-x="1352" 
d="M764 793v-567h-158v567h158zM451 1083h163v-126l-163 -28v-164c0 -173 74 -252 221 -252c88 0 166 10 245 30v384l-163 28v127h523v-127l-163 -28v-773l163 -28v-126h-523v126l163 28v232c-77 -20 -156 -29 -245 -29c-261 0 -418 139 -418 408v164l-163 28v126h360z" />
    <glyph glyph-name="uni04BA" unicode="&#x4ba;" horiz-adv-x="1537" 
d="M419 1456h163v-126l-163 -28v-449c64 18 125 32 184 41s130 14 211 14c159 0 280 -35 363 -106c83 -70 125 -184 125 -342v-305l163 -28v-127h-523v127l163 28v305c0 109 -23 185 -70 228c-46 43 -120 64 -221 64c-140 0 -264 -20 -395 -56v-541l163 -28v-127h-524v127
l163 28v1147l-163 28v126h163h198z" />
    <glyph glyph-name="uni04BC" unicode="&#x4bc;" horiz-adv-x="1539" 
d="M999 -23c-194 0 -346 57 -455 172s-163 267 -163 455v102c-211 27 -321 165 -316 370l2 5h150c0 -124 52 -208 164 -235v4c0 181 52 330 156 448c105 118 233 177 386 177c176 0 310 -59 402 -178c93 -118 139 -281 139 -488v-109h-886v-96c0 -141 35 -255 104 -342
s175 -131 317 -131c72 0 134 8 185 23s101 36 150 61l49 -139c-67 -48 -195 -99 -384 -99zM578 850v-15h689v32c0 137 -27 247 -81 329c-54 83 -142 124 -263 124c-107 0 -192 -45 -253 -135c-61 -89 -92 -201 -92 -335z" />
    <glyph glyph-name="uni04BD" unicode="&#x4bd;" horiz-adv-x="1311" 
d="M714 -21c-151 0 -271 50 -360 150c-89 101 -133 231 -133 391v17c-140 45 -211 161 -211 330h157c0 -79 22 -138 67 -174c25 121 79 220 164 295c85 76 180 114 286 114c145 0 255 -44 330 -132s113 -205 113 -352v-123h-702l-3 -5c2 -104 28 -190 79 -257
s122 -100 213 -100c133 0 233 40 306 107l77 -128c-77 -75 -204 -133 -383 -133zM684 947c-66 0 -122 -28 -169 -84c-47 -55 -75 -125 -86 -209l2 -5h499v26c0 77 -21 142 -62 194s-103 78 -184 78z" />
    <glyph glyph-name="uni04C3" unicode="&#x4c3;" horiz-adv-x="1426" 
d="M233 1301l-163 28v127h523v-127l-163 -28v-471h127l521 626h253v-127l-154 -27l-399 -476c164 -15 291 -73 381 -174c91 -100 136 -233 136 -400c0 -175 -41 -310 -122 -403s-198 -139 -349 -136l-6 2l-2 142c201 0 282 139 282 395c-3 269 -135 412 -404 412h-264v-510
l163 -28v-126h-523v126l163 28v1147z" />
    <glyph glyph-name="uni04C4" unicode="&#x4c4;" horiz-adv-x="1278" 
d="M90 0v126l163 28v773l-163 28v127h523v-127l-163 -28v-302h84l348 457h262v-127l-148 -26l-257 -315c125 -19 225 -65 298 -140c73 -74 110 -173 110 -298c-1 -89 -34 -177 -99 -266c-64 -89 -159 -145 -286 -168l-52 150c171 43 241 141 241 284
c-3 192 -127 283 -334 283h-167v-305l163 -28v-126h-523z" />
    <glyph glyph-name="uni04C7" unicode="&#x4c7;" horiz-adv-x="1563" 
d="M240 1301l-163 28v127h360h163v-127l-163 -28v-503h706v503l-163 28v127h523v-127l-163 -28v-1390c0 -223 -121 -348 -326 -348c-41 0 -75 6 -112 18l14 150c9 -3 24 -6 47 -9s40 -4 51 -4c80 0 129 73 129 193v732h-706v-489l163 -28v-126h-523v126l163 28v1147z" />
    <glyph glyph-name="uni04C8" unicode="&#x4c8;" horiz-adv-x="1368" 
d="M253 927l-163 28v127h360h163v-127l-163 -28v-313h481v313l-163 28v127h163h361v-127l-163 -28v-1016c0 -223 -122 -348 -327 -348c-41 0 -75 6 -112 18l15 150c9 -3 24 -6 46 -9c23 -3 40 -4 51 -4c81 0 129 73 129 193v549h-481v-306l163 -28v-126h-523v126l163 28v773
z" />
    <glyph glyph-name="uni04D8" unicode="&#x4d8;" horiz-adv-x="1402" 
d="M622 1477c207 0 368 -62 484 -185c117 -123 175 -284 175 -484v-163c0 -193 -56 -353 -169 -478s-250 -188 -413 -188c-203 0 -357 59 -463 176c-105 118 -158 281 -158 489v110h1006v54c0 151 -38 275 -115 370c-77 96 -192 144 -347 144c-76 0 -141 -8 -195 -24
c-54 -15 -107 -35 -160 -60l-49 139c35 23 86 46 153 67c67 22 151 33 251 33zM699 133c115 0 206 46 274 137c69 92 105 208 110 349h-808v-33c0 -139 33 -249 99 -331c66 -81 174 -122 325 -122z" />
    <glyph glyph-name="uni04E0" unicode="&#x4e0;" horiz-adv-x="1124" 
d="M377 852l377 444l-2 5h-448l-14 -167h-169v322h869l1 -120l-410 -491c293 -17 461 -174 461 -439c0 -133 -46 -238 -138 -314c-91 -75 -210 -113 -357 -113c-128 0 -238 36 -331 107c-92 71 -136 175 -133 312l2 6h189c0 -76 25 -140 76 -193c51 -52 116 -78 197 -78
c92 0 165 25 218 74c53 50 80 115 80 195c0 204 -109 296 -321 296h-147v154z" />
    <glyph glyph-name="uni04E1" unicode="&#x4e1;" horiz-adv-x="1129" 
d="M119 1082h869l1 -120l-396 -493c284 -21 447 -177 447 -438c0 -132 -46 -236 -138 -312c-91 -76 -210 -114 -357 -114c-128 0 -238 36 -331 108c-92 71 -136 175 -133 310l2 6h189c0 -75 25 -138 76 -190c51 -53 116 -79 197 -79c92 0 165 25 218 75c53 49 80 113 80 192
c0 205 -109 296 -322 296h-148v154l358 444l-3 5h-426l-14 -166h-169v322z" />
    <glyph glyph-name="uni04FA" unicode="&#x4fa;" horiz-adv-x="1249" 
d="M151 0v126l163 28v1147l-163 28v127h1056v-322h-169l-15 167h-512v-1147l163 -28v-126h-523zM705 866v-155h-641v155h641zM478 102h197v-181c0 -208 -113 -326 -304 -326c-39 0 -68 6 -111 18l14 160c9 -3 25 -6 46 -8c21 -3 38 -4 51 -4c67 0 107 56 107 160v181z" />
    <glyph glyph-name="uni04FB" unicode="&#x4fb;" horiz-adv-x="1106" 
d="M321 155v772l-163 29v126h851v-2h33v-276h-129l-13 122h-382v-771l163 -29v-126h-523v126zM705 689v-155h-641v155h641zM524 129h197v-181c0 -208 -113 -326 -304 -326c-39 0 -68 6 -111 18l14 160c9 -3 25 -6 46 -8c21 -3 38 -4 51 -4c67 0 107 56 107 160v181z" />
    <glyph glyph-name="uni0500" unicode="&#x500;" horiz-adv-x="1350" 
d="M1288 0h-719c-155 0 -276 41 -362 123c-85 82 -128 189 -128 321c0 131 43 237 128 316c85 80 206 120 362 120h359v421l-163 28v127h523v-127l-163 -28v-1147l163 -28v-126zM569 154h359v571h-359c-99 0 -172 -27 -221 -80c-48 -53 -72 -119 -72 -199
c0 -82 24 -151 72 -208c49 -56 122 -84 221 -84z" />
    <glyph glyph-name="uni0502" unicode="&#x502;" horiz-adv-x="1703" 
d="M1209 0h-640c-155 0 -276 41 -362 123c-85 82 -128 189 -128 321c0 131 43 237 128 316c85 80 206 120 362 120h359v421l-163 28v127h163h197h163v-127l-163 -28v-1148l84 1c141 1 220 100 225 268c1 103 -20 218 -60 323h190c44 -133 70 -227 67 -323
c-3 -136 -44 -240 -125 -313s-180 -109 -297 -109zM569 154h359v571h-359c-99 0 -172 -27 -221 -80c-48 -53 -72 -119 -72 -199c0 -82 24 -151 72 -208c49 -56 122 -84 221 -84z" />
    <glyph glyph-name="uni0503" unicode="&#x503;" horiz-adv-x="1729" 
d="M789 1560h197v-1215c-1 -63 13 -115 43 -154c31 -39 72 -58 123 -58c90 1 159 36 208 106s75 167 78 290c1 129 -20 266 -60 402l191 1c44 -163 70 -280 67 -403c-3 -177 -50 -313 -142 -408s-206 -142 -342 -142c-160 -3 -268 52 -323 176c-71 -116 -179 -176 -324 -176
c-132 0 -235 48 -310 143c-74 96 -111 222 -111 378v21c0 174 37 314 111 421c75 107 179 160 312 160c120 0 213 -42 282 -121v424l-163 28v127h163zM789 345v471c-52 79 -128 126 -232 126c-95 0 -164 -39 -209 -117s-67 -179 -67 -304v-21c0 -109 22 -197 66 -263
c45 -65 114 -98 208 -98c112 0 188 51 240 140c-4 20 -6 42 -6 66z" />
    <glyph glyph-name="uni0504" unicode="&#x504;" horiz-adv-x="1568" 
d="M725 304v66c0 79 -23 142 -69 190c-45 49 -106 73 -183 73h-191v155h135c223 0 314 81 314 256c0 163 -81 257 -257 257c-111 0 -199 -31 -254 -76l-14 -170h-158l1 240c93 100 241 161 425 161c292 0 454 -146 454 -414c0 -149 -80 -261 -228 -326
c157 -53 222 -173 222 -344v-68c-1 -101 57 -171 146 -171c71 1 126 36 165 107s60 167 63 289c0 84 -9 172 -25 263l-90 13v127h245c23 -89 40 -164 51 -224c11 -59 17 -119 16 -179c-3 -177 -45 -313 -126 -408s-180 -142 -299 -142c-213 -4 -332 97 -343 325z" />
    <glyph glyph-name="uni0505" unicode="&#x505;" horiz-adv-x="1443" 
d="M1010 738h244c23 -68 40 -126 52 -175s17 -97 16 -144c-3 -143 -43 -253 -120 -330s-171 -115 -283 -115c-185 -4 -275 68 -283 240v75c0 95 -72 150 -203 150h-211l-2 154h184c156 0 232 74 232 179c0 108 -62 175 -194 174c-129 0 -214 -73 -214 -185h-188l-2 6
c-4 92 32 170 107 235c76 65 175 98 297 98c249 0 392 -118 392 -321c0 -111 -67 -197 -191 -249c135 -37 191 -121 191 -240v-76c-1 -56 21 -87 85 -87c129 3 201 109 206 292c0 56 -7 117 -19 178l-96 14v127z" />
    <glyph glyph-name="uni0506" unicode="&#x506;" horiz-adv-x="1110" 
d="M452 632h-191v154h136c221 0 313 83 313 258c0 161 -81 256 -257 256c-111 0 -198 -31 -254 -76l-14 -171h-158l1 241c93 100 241 160 425 160c293 0 454 -144 454 -412c0 -151 -80 -262 -228 -327c157 -53 223 -173 223 -344v-136c0 -91 19 -165 68 -210v-25h-203
c-27 23 -45 57 -52 100c-7 44 -10 90 -10 137v132c0 79 -23 142 -69 190c-45 49 -107 73 -184 73zM1042 213v-149c0 -65 -16 -134 -49 -205s-77 -131 -132 -178l-111 74c63 96 95 194 95 306v152h197z" />
    <glyph glyph-name="uni0507" unicode="&#x507;" horiz-adv-x="1023" 
d="M421 439h-210l-2 153h184c156 0 232 73 232 180c0 108 -62 176 -194 173c-129 0 -213 -73 -213 -185h-189l-2 6c-4 92 32 171 107 236c76 65 175 98 297 98c124 0 220 -28 289 -85s103 -136 103 -237c0 -111 -69 -199 -194 -250c137 -39 193 -128 193 -259v-97
c0 -60 18 -124 63 -153v-19h-203c-25 15 -40 39 -47 72s-10 67 -10 101v95c0 107 -73 171 -204 171zM924 198v-149c0 -65 -16 -134 -49 -205s-77 -131 -132 -178l-111 74c63 96 95 194 95 306v152h197z" />
    <glyph glyph-name="uni0508" unicode="&#x508;" horiz-adv-x="1986" 
d="M1045 345v956h-472v-533c0 -265 -36 -460 -108 -583c-71 -123 -190 -185 -357 -185h-53v154h41c99 0 170 48 214 144c45 96 67 253 67 470v533l-163 28v127h1029h163v-127l-163 -28v-956c-1 -63 14 -115 44 -154s71 -58 122 -58c90 1 159 36 208 106s75 167 78 290
c0 85 -9 174 -26 263l-90 13v126h56l190 1c44 -163 70 -280 67 -403c-3 -177 -50 -313 -142 -408s-206 -142 -341 -142c-227 -4 -353 110 -364 366z" />
    <glyph glyph-name="uni0509" unicode="&#x509;" horiz-adv-x="1706" 
d="M812 345v581h-307v-304c0 -211 -30 -368 -89 -470c-59 -101 -157 -152 -294 -152h-57l3 168l42 1c71 0 122 35 152 106c31 71 46 186 46 347v305l-163 28v127h1027v-127l-163 -28v-582c-1 -63 14 -115 44 -154c31 -39 71 -58 122 -58c141 1 221 133 226 352
c0 80 -8 161 -24 242l-90 13v126h244c22 -80 39 -149 51 -208c12 -58 17 -116 16 -173c-3 -163 -44 -288 -125 -375s-180 -131 -298 -131c-225 -4 -352 110 -363 366z" />
    <glyph glyph-name="uni050A" unicode="&#x50a;" horiz-adv-x="2065" 
d="M70 0v126l163 28v1147l-163 28v127h360h163v-127l-163 -28v-503h702v503l-163 28v127h163h360v-127l-163 -28v-956c-1 -63 14 -115 44 -154s71 -58 122 -58c90 1 160 36 209 106s75 167 78 290c0 85 -9 174 -26 263l-89 13v126h54l190 1c23 -83 40 -155 52 -218
c12 -62 17 -124 16 -185c-3 -177 -51 -313 -143 -408c-91 -95 -205 -142 -341 -142c-225 -4 -352 110 -363 366v298h-702v-489l163 -28v-126h-523z" />
    <glyph glyph-name="uni050B" unicode="&#x50b;" horiz-adv-x="1839" 
d="M90 0v126l163 28v773l-163 28v127h523v-127l-163 -28v-314h492v314l-163 28v127h163h360v-127l-163 -28v-582c-1 -63 14 -115 44 -154s71 -58 122 -58c141 1 222 133 227 352c1 121 -20 252 -60 381h189c23 -82 40 -152 52 -209s17 -115 16 -172
c-3 -163 -44 -288 -125 -375s-180 -131 -299 -131c-225 -4 -352 110 -363 366v115h-492v-306l163 -28v-126h-523z" />
    <glyph glyph-name="uni050C" unicode="&#x50c;" horiz-adv-x="1262" 
d="M875 786h245c28 -131 45 -211 50 -240s8 -69 7 -121c-3 -144 -50 -254 -143 -331c-92 -77 -206 -115 -341 -115c-171 0 -311 58 -418 174c-107 117 -161 265 -161 444v262c0 179 54 326 161 443s247 175 418 175c149 0 267 -31 358 -88l-62 -135c-89 44 -183 68 -296 68
c-117 0 -210 -44 -279 -133s-103 -198 -103 -328v-264c0 -132 34 -242 103 -331s162 -133 279 -133c180 1 282 109 287 292c0 68 -7 142 -20 221l-85 13v127z" />
    <glyph glyph-name="uni050D" unicode="&#x50d;" horiz-adv-x="1069" 
d="M700 537h245c17 -91 27 -165 27 -236c-3 -105 -38 -185 -106 -240s-157 -82 -267 -82c-153 0 -274 52 -363 156c-88 105 -132 233 -132 385v42c0 151 42 278 127 383s200 157 347 157c124 0 219 -25 282 -66l-45 -147c-63 36 -146 58 -237 58c-92 0 -161 -39 -208 -116
c-46 -77 -69 -166 -69 -269v-42c0 -105 25 -196 74 -273c50 -76 125 -114 224 -114c127 1 172 56 176 168c0 31 -2 65 -3 98l-72 11v127z" />
    <glyph glyph-name="uni050E" unicode="&#x50e;" horiz-adv-x="1482" 
d="M77 1456h1152v-322h-169l-15 167h-300v-956c-1 -63 14 -115 44 -154c31 -39 71 -58 122 -58c90 1 160 36 209 106c50 70 76 167 79 290c0 85 -9 174 -26 263l-90 13v126h55l190 1c23 -83 40 -155 51 -218c12 -62 17 -124 16 -185c-3 -177 -50 -313 -142 -408
s-206 -142 -342 -142c-225 -4 -352 110 -363 366v956h-288l-15 -167h-168v322z" />
    <glyph glyph-name="uni050F" unicode="&#x50f;" horiz-adv-x="1322" 
d="M997 1082v-322h-169l-15 169h-173v-584c-1 -63 14 -115 44 -154s71 -58 122 -58c117 1 183 86 188 230c0 37 -4 76 -8 119l-116 15v126h273c31 -104 49 -183 48 -260c-3 -124 -41 -219 -114 -285s-164 -99 -271 -99c-225 -4 -352 110 -363 366v584h-170l-15 -169h-168
v322h907z" />
    <glyph glyph-name="uni0510" unicode="&#x510;" horiz-adv-x="1294" 
d="M106 406c0 168 97 285 277 341c-161 64 -255 180 -255 315c0 133 49 235 148 307s235 108 406 108c149 0 275 -37 377 -110s151 -169 148 -286l-1 -6h-188c0 70 -33 129 -98 176s-144 71 -238 71c-119 0 -208 -24 -268 -72c-59 -48 -89 -109 -89 -184
c0 -153 107 -246 342 -246h183v-156h-183c-241 0 -364 -85 -364 -262c0 -80 33 -145 100 -195c67 -49 160 -74 279 -74c105 0 190 26 256 78c67 53 100 117 100 193h188l2 -6c3 -137 -50 -241 -158 -312s-237 -107 -388 -107c-172 0 -311 38 -417 113
c-106 76 -159 181 -159 314z" />
    <glyph glyph-name="uni2000" unicode="&#x2000;" horiz-adv-x="1044" 
 />
    <glyph glyph-name="uni2001" unicode="&#x2001;" horiz-adv-x="2089" 
 />
    <glyph glyph-name="uni2002" unicode="&#x2002;" horiz-adv-x="1044" 
 />
    <glyph glyph-name="uni2003" unicode="&#x2003;" horiz-adv-x="2089" 
 />
    <glyph glyph-name="uni2004" unicode="&#x2004;" horiz-adv-x="697" 
 />
    <glyph glyph-name="uni2005" unicode="&#x2005;" horiz-adv-x="522" 
 />
    <glyph glyph-name="uni2006" unicode="&#x2006;" horiz-adv-x="348" 
 />
    <glyph glyph-name="uni2007" unicode="&#x2007;" horiz-adv-x="1151" 
 />
    <glyph glyph-name="uni2008" unicode="&#x2008;" horiz-adv-x="560" 
 />
    <glyph glyph-name="uni2009" unicode="&#x2009;" horiz-adv-x="418" 
 />
    <glyph glyph-name="uni200A" unicode="&#x200a;" horiz-adv-x="209" 
 />
    <glyph glyph-name="uni200B" unicode="&#x200b;" horiz-adv-x="0" 
 />
    <glyph glyph-name="endash" unicode="&#x2013;" horiz-adv-x="1400" 
d="M1247 803v-155h-1086v155h1086z" />
    <glyph glyph-name="emdash" unicode="&#x2014;" horiz-adv-x="1613" 
d="M1501 803v-155h-1336v155h1336z" />
    <glyph glyph-name="underscoredbl" unicode="&#x2017;" horiz-adv-x="1163" 
d="M1044 -254v-154h-922v154h922zM1044 0v-154h-922v154h922z" />
    <glyph glyph-name="quoteleft" unicode="&#x2018;" horiz-adv-x="418" 
d="M96 1020v176c0 66 16 135 48 206s76 130 132 177l112 -73c-64 -97 -95 -194 -95 -307v-179h-197z" />
    <glyph glyph-name="quoteright" unicode="&#x2019;" horiz-adv-x="418" 
d="M337 1560v-184c0 -67 -16 -136 -49 -207c-32 -71 -76 -130 -131 -176l-112 74c63 95 95 191 95 306v187h197z" />
    <glyph glyph-name="quotesinglbase" unicode="&#x201a;" horiz-adv-x="417" 
d="M327 91c0 -65 -16 -133 -48 -204c-33 -71 -76 -129 -131 -176v0c-60 39 -81 115 -53 183c4 11 9 24 13 37c16 48 24 101 24 156v152h47c82 0 148 -66 148 -148v0z" />
    <glyph glyph-name="quotereversed" unicode="&#x201b;" horiz-adv-x="499" 
d="M42 1376v184h197v-187c0 -115 32 -211 95 -306l-112 -74c-55 46 -99 105 -132 176c-32 71 -48 140 -48 207z" />
    <glyph glyph-name="quotedblleft" unicode="&#x201c;" horiz-adv-x="744" 
d="M96 1211c0 66 16 135 48 206c8 18 18 36 28 53c45 76 143 98 216 51v0c-64 -97 -95 -194 -95 -307v-26c0 -85 -69 -153 -154 -153h-43v176zM422 1211c0 66 16 135 48 206c9 18 18 36 28 53c44 76 143 98 216 51v0c-64 -97 -95 -194 -95 -307v-26
c0 -85 -69 -153 -154 -153h-43v176z" />
    <glyph glyph-name="quotedblright" unicode="&#x201d;" horiz-adv-x="752" 
d="M667 1557v-176c0 -66 -16 -135 -48 -206c-8 -18 -18 -36 -28 -53c-45 -76 -143 -98 -216 -51v0c64 97 95 194 95 307v26c0 85 69 153 154 153h43zM341 1557v-176c0 -66 -16 -135 -48 -206c-9 -18 -18 -36 -28 -53c-44 -76 -143 -98 -216 -51v0c64 97 95 194 95 307v26
c0 85 69 153 154 153h43z" />
    <glyph glyph-name="quotedblbase" unicode="&#x201e;" horiz-adv-x="726" 
d="M327 249v-171c0 -65 -16 -134 -49 -205c-33 -72 -77 -131 -132 -178l-111 74c63 96 95 193 95 306v174h197zM634 249v-171c0 -65 -16 -134 -49 -205c-33 -72 -77 -131 -132 -178l-111 74c63 96 95 193 95 306v174h197z" />
    <glyph glyph-name="dagger" unicode="&#x2020;" horiz-adv-x="1124" 
d="M1053 1082v-156h-400v-926h-197v926h-393v156h393v374h197v-374h400z" />
    <glyph glyph-name="daggerdbl" unicode="&#x2021;" horiz-adv-x="1139" 
d="M1060 154v-154h-400v-416h-197v416h-392v154h392v772h-392v156h392v374h197v-374h400v-156h-400v-772h400z" />
    <glyph glyph-name="bullet" unicode="&#x2022;" horiz-adv-x="691" 
d="M135 733v60c0 59 19 107 56 144s87 56 150 56s114 -19 151 -56c38 -37 57 -85 57 -144v-60c0 -59 -19 -107 -57 -144c-37 -36 -87 -54 -150 -54c-127 0 -207 79 -207 198z" />
    <glyph glyph-name="uni2025" unicode="&#x2025;" horiz-adv-x="936" 
d="M241 -24c-69 0 -125 56 -125 125v7c0 69 56 125 125 125v0c69 0 126 -56 126 -125v-7c0 -69 -57 -125 -126 -125zM683 -24c-69 0 -125 56 -125 125v7c0 69 56 125 125 125v0c69 0 126 -56 126 -125v-7c0 -69 -57 -125 -126 -125z" />
    <glyph glyph-name="ellipsis" unicode="&#x2026;" horiz-adv-x="1346" 
d="M241 -24c-69 0 -125 56 -125 125v7c0 69 56 125 125 125v0c69 0 126 -56 126 -125v-7c0 -69 -57 -125 -126 -125zM683 -24c-69 0 -125 56 -125 125v7c0 69 56 125 125 125v0c69 0 126 -56 126 -125v-7c0 -69 -57 -125 -126 -125zM1102 -24c-69 0 -125 56 -125 125v7
c0 69 56 125 125 125v0c69 0 126 -56 126 -125v-7c0 -69 -57 -125 -126 -125z" />
    <glyph glyph-name="perthousand" unicode="&#x2030;" horiz-adv-x="1965" 
d="M831 279v78c0 84 27 155 82 213s127 87 218 87c99 0 179 -45 228 -117c49 72 129 117 228 117c91 0 164 -29 219 -87c55 -57 83 -128 83 -213v-78c0 -85 -27 -157 -82 -214s-127 -86 -218 -86c-100 0 -181 43 -230 116c-49 -73 -129 -116 -226 -116
c-92 0 -165 29 -220 86s-82 129 -82 214zM76 1099v77c0 85 27 156 82 214s127 87 218 87c92 0 165 -29 220 -87c55 -57 82 -129 82 -214v-77c0 -85 -27 -156 -82 -213s-127 -86 -218 -86s-165 29 -220 86s-82 128 -82 213zM977 357v-78c0 -50 13 -92 40 -127
c27 -34 66 -51 116 -51c49 0 87 17 114 51c27 35 40 77 40 127v78c0 49 -14 91 -41 126s-66 52 -115 52s-87 -17 -114 -52s-40 -77 -40 -126zM1433 357v-78c0 -50 13 -92 40 -127c27 -34 66 -51 116 -51c49 0 86 17 113 51c27 35 40 77 40 127v78c0 49 -14 91 -41 126
s-65 52 -114 52s-87 -17 -114 -52s-40 -77 -40 -126zM222 1176v-77c0 -49 13 -91 40 -126c27 -34 66 -51 116 -51c49 0 86 17 113 51s41 76 41 126v77c0 49 -14 91 -41 126s-66 53 -115 53s-87 -18 -114 -53s-40 -77 -40 -126zM1153 1248l-711 -1138l-109 67l711 1138z" />
    <glyph glyph-name="guilsinglleft" unicode="&#x2039;" horiz-adv-x="593" 
d="M511 949l-255 -399l255 -398h-148l-295 389v19l295 389h148z" />
    <glyph glyph-name="guilsinglright" unicode="&#x203a;" horiz-adv-x="593" 
d="M83 949h148l295 -389v-19l-295 -389h-148l254 398z" />
    <glyph glyph-name="fraction" unicode="&#x2044;" horiz-adv-x="899" 
d="M862 1248l-711 -1138l-109 67l711 1138z" />
    <glyph glyph-name="uni2074" unicode="&#x2074;" horiz-adv-x="911" 
d="M698 1477v-604h149v-129h-149v-184h-172v184h-455l-4 96l453 637h178zM507 1225l-250 -352h269v377l-6 1z" />
    <glyph glyph-name="nsuperior" unicode="&#x207f;" horiz-adv-x="940" 
d="M150 1451h136l31 -120c48 85 123 135 216 135c163 0 257 -99 257 -307v-508h-180v475c0 136 -49 193 -136 193c-71 0 -119 -38 -144 -101v-567h-180v800z" />
    <glyph glyph-name="lira" unicode="&#x20a4;" horiz-adv-x="1203" 
d="M862 441h-407c-3 -111 -23 -215 -59 -287h551l16 167h167v-167h1l-1 -154h-975v154h10c29 8 52 41 67 98c16 58 25 121 28 189h-169v155h164l-6 143h-158v155h152l-5 146c0 136 37 243 112 320c75 78 175 117 300 117c133 0 237 -35 310 -105c73 -69 109 -161 106 -276
l-2 -6h-189c0 79 -21 137 -64 175c-42 38 -96 57 -161 57c-132 0 -215 -105 -215 -282l5 -146h422v-155h-416l5 -143h411v-155z" />
    <glyph glyph-name="peseta" unicode="&#x20a7;" horiz-adv-x="1718" 
d="M240 1456h354c155 0 275 -42 362 -125s130 -190 130 -321c0 -133 -43 -240 -130 -323c-87 -82 -207 -123 -362 -123h-157v-409l163 -29v-126h-523v126l163 29v1146l-163 29v126h163zM437 1301v-582h157c98 0 172 28 221 83c49 56 74 125 74 206c0 82 -25 151 -74 208
s-123 85 -221 85h-157zM1165 1343h197v-261h205v-146h-205v-657c0 -101 46 -138 115 -138c35 0 84 7 113 14l27 -135c-19 -12 -46 -22 -82 -29c-36 -8 -72 -12 -108 -12c-160 0 -262 93 -262 300v657h-171v146h171v261z" />
    <glyph glyph-name="Euro" unicode="&#x20ac;" horiz-adv-x="1056" 
d="M812 136c79 8 150 -48 160 -127v0c-74 -20 -158 -31 -240 -31c-154 0 -278 48 -374 144c-95 97 -141 226 -141 389h-23c-68 0 -123 56 -123 124v0h146v166h-23c-68 0 -123 56 -123 124v1h146v15c0 163 46 292 140 389c95 97 220 146 373 146c79 0 154 -11 242 -31v0
c-10 -81 -83 -138 -164 -129c-26 3 -52 5 -78 5c-96 0 -174 -34 -231 -103c-58 -69 -85 -160 -85 -275v-17v-125v-166l4 -129c-3 -113 24 -203 82 -272c57 -68 135 -102 232 -102c27 0 54 1 80 4zM904 802v-1h-345c-70 0 -127 55 -129 125v0h351c68 0 123 -56 123 -124z
M904 511v0h-338c-69 0 -126 55 -127 124v0h342c68 0 123 -56 123 -124z" />
    <glyph glyph-name="uni2105" unicode="&#x2105;" horiz-adv-x="1434" 
d="M494 1056h138l2 -6c3 -70 -21 -129 -71 -178c-50 -48 -117 -72 -201 -72c-86 0 -155 29 -206 86s-77 128 -77 213v77c0 85 25 156 76 214s120 87 205 87c84 0 151 -25 202 -74s75 -108 72 -177l-2 -6h-138c0 76 -47 135 -134 135c-43 0 -77 -18 -100 -53
s-35 -77 -35 -126v-77c0 -49 12 -91 35 -126c24 -34 58 -51 102 -51c84 0 132 62 132 134zM764 279v78c0 85 27 156 82 213c55 58 128 87 219 87s163 -29 218 -87c55 -57 83 -128 83 -213v-78c0 -85 -27 -157 -82 -214s-127 -86 -217 -86c-92 0 -166 29 -221 86
s-82 129 -82 214zM911 357v-78c0 -50 13 -92 40 -127c27 -34 65 -51 116 -51c49 0 86 17 113 51s40 76 40 127v78c0 49 -14 91 -41 126s-65 52 -114 52s-87 -17 -114 -52s-40 -77 -40 -126zM1142 1248l-711 -1138l-109 67l711 1138z" />
    <glyph glyph-name="uni2113" unicode="&#x2113;" horiz-adv-x="929" 
d="M677 140v-153l-6 -2c-133 -3 -233 36 -302 115c-69 80 -103 190 -103 331v12c-65 -16 -133 -24 -201 -24v180c73 0 140 9 201 26v473c0 118 26 211 79 278s126 101 219 101c81 0 148 -29 200 -86s78 -134 78 -230v-42c0 -105 -34 -214 -102 -327s-160 -203 -277 -270v-91
c0 -193 58 -291 214 -291zM645 1117v44c0 101 -33 154 -81 154c-68 0 -101 -73 -101 -217v-358l6 -1c57 43 100 98 130 166c31 69 46 139 46 212z" />
    <glyph glyph-name="uni2116" unicode="&#x2116;" horiz-adv-x="2290" 
d="M2161 506v-145h-559v145h559zM1536 1020v117c0 99 31 179 93 241c63 63 147 94 252 94s189 -31 252 -94c63 -62 94 -142 94 -241v-117c0 -99 -31 -180 -94 -242c-62 -61 -145 -92 -250 -92c-106 0 -190 31 -253 92c-63 62 -94 143 -94 242zM1708 1137v-117
c0 -116 60 -193 175 -193c111 0 172 77 172 193v117c0 112 -62 192 -174 192s-173 -80 -173 -192zM1301 1456h163v-127l-163 -28v-1301h-197l-700 1124l-6 -2v-968l163 -28v-126h-523v126l163 28v1147l-163 28v127h163h197l700 -1123l6 2v966l-163 28v127h360z" />
    <glyph glyph-name="trademark" unicode="&#x2122;" horiz-adv-x="1256" 
d="M1021 919v341l-6 2l-150 -343h-51l-155 357l-6 -1v-356h-93v537h116l160 -390h6l163 390h110v-537h-94zM482 1456v-82h-146v-455h-94v455h-144v82h384z" />
    <glyph glyph-name="estimated" unicode="&#x212e;" horiz-adv-x="1199" 
d="M989 198l2 -104c-116 -73 -243 -114 -370 -114c-145 0 -269 55 -371 164c-102 110 -153 242 -153 397c0 151 54 282 161 393c108 112 229 168 363 168c138 0 255 -52 351 -155s144 -232 144 -386v-47h-768v-328c73 -71 170 -110 273 -110c127 0 252 39 368 122zM621 1008
c-99 0 -196 -46 -273 -122v-277h540v286c-72 69 -168 113 -267 113z" />
    <glyph glyph-name="oneeighth" unicode="&#x215b;" horiz-adv-x="1645" 
d="M409 1458v-812h-174v655h-127v134zM1125 1248l-711 -1138l-109 67l711 1138zM1594 592c0 -79 -52 -141 -136 -177c97 -37 160 -106 160 -190c0 -75 -31 -133 -93 -174c-61 -41 -139 -62 -232 -62c-97 0 -178 21 -242 62s-96 99 -96 174c0 84 62 154 165 191
c-88 35 -140 97 -140 176c0 70 29 124 88 162c59 39 133 58 224 58c87 0 159 -19 216 -58c57 -38 86 -92 86 -162zM1447 232c0 34 -15 62 -46 84c-30 23 -66 34 -109 34c-47 0 -86 -11 -119 -33c-32 -22 -48 -50 -48 -85c0 -69 72 -113 168 -113c43 0 80 10 109 30
c30 21 45 48 45 83zM1421 583c0 60 -57 98 -129 98c-81 0 -141 -37 -141 -98s62 -103 142 -103c71 0 128 42 128 103z" />
    <glyph glyph-name="threeeighths" unicode="&#x215c;" horiz-adv-x="1792" 
d="M295 1131h133c89 0 131 40 131 109c0 59 -49 101 -141 101c-75 0 -126 -35 -126 -88h-162l-2 6c-4 63 22 114 78 153c57 40 127 60 212 60c193 0 313 -82 313 -229c0 -73 -50 -137 -133 -172c95 -32 146 -96 146 -187c0 -74 -30 -132 -90 -173s-139 -62 -236 -62
c-85 0 -157 19 -218 58s-89 95 -85 169l1 6h163c0 -61 54 -103 139 -103c96 0 155 43 155 107c0 84 -48 119 -145 119h-133v126zM1308 1248l-711 -1138l-109 67l711 1138zM1745 592c0 -79 -52 -141 -136 -177c97 -37 160 -106 160 -190c0 -75 -31 -133 -93 -174
c-61 -41 -139 -62 -232 -62c-97 0 -178 21 -242 62s-96 99 -96 174c0 84 62 154 165 191c-88 35 -140 97 -140 176c0 70 29 124 88 162c59 39 133 58 224 58c87 0 159 -19 216 -58c57 -38 86 -92 86 -162zM1598 232c0 34 -15 62 -46 84c-30 23 -66 34 -109 34
c-47 0 -86 -11 -119 -33c-32 -22 -48 -50 -48 -85c0 -69 72 -113 168 -113c43 0 80 10 109 30c30 21 45 48 45 83zM1572 583c0 60 -57 98 -129 98c-81 0 -141 -37 -141 -98s62 -103 142 -103c71 0 128 42 128 103z" />
    <glyph glyph-name="fiveeighths" unicode="&#x215d;" horiz-adv-x="1845" 
d="M291 991l-150 9l52 455h517v-133h-364l-25 -185c39 23 94 42 150 43c88 1 157 -22 207 -71c50 -48 75 -115 75 -200c0 -163 -104 -266 -325 -266c-91 0 -167 18 -228 55s-89 90 -85 161l1 6l162 10c0 -64 59 -102 150 -102c104 0 154 47 154 135s-55 147 -144 147
c-87 0 -127 -24 -147 -64zM1364 1248l-711 -1138l-109 67l711 1138zM1792 592c0 -79 -52 -141 -136 -177c97 -37 160 -106 160 -190c0 -75 -31 -133 -93 -174c-61 -41 -139 -62 -232 -62c-97 0 -178 21 -242 62s-96 99 -96 174c0 84 62 154 165 191c-88 35 -140 97 -140 176
c0 70 29 124 88 162c59 39 133 58 224 58c87 0 159 -19 216 -58c57 -38 86 -92 86 -162zM1645 232c0 34 -15 62 -46 84c-30 23 -66 34 -109 34c-47 0 -86 -11 -119 -33c-32 -22 -48 -50 -48 -85c0 -69 72 -113 168 -113c43 0 80 10 109 30c30 21 45 48 45 83zM1619 583
c0 60 -57 98 -129 98c-81 0 -141 -37 -141 -98s62 -103 142 -103c71 0 128 42 128 103z" />
    <glyph glyph-name="seveneighths" unicode="&#x215e;" horiz-adv-x="1675" 
d="M696 1455v-131c-89 -105 -153 -192 -190 -260c-37 -67 -55 -162 -55 -283v-127h-172v127c0 121 26 227 77 320c52 93 107 167 166 223h-415v131h589zM1172 1248l-711 -1138l-109 67l711 1138zM1626 592c0 -79 -52 -141 -136 -177c97 -37 160 -106 160 -190
c0 -75 -31 -133 -93 -174c-61 -41 -139 -62 -232 -62c-97 0 -178 21 -242 62s-96 99 -96 174c0 84 62 154 165 191c-88 35 -140 97 -140 176c0 70 29 124 88 162c59 39 133 58 224 58c87 0 159 -19 216 -58c57 -38 86 -92 86 -162zM1479 232c0 34 -15 62 -46 84
c-30 23 -66 34 -109 34c-47 0 -86 -11 -119 -33c-32 -22 -48 -50 -48 -85c0 -69 72 -113 168 -113c43 0 80 10 109 30c30 21 45 48 45 83zM1453 583c0 60 -57 98 -129 98c-81 0 -141 -37 -141 -98s62 -103 142 -103c71 0 128 42 128 103z" />
    <glyph glyph-name="partialdiff" unicode="&#x2202;" horiz-adv-x="1191" 
d="M431 1355l60 164c176 -43 318 -132 425 -268c108 -136 162 -304 162 -503v-213c0 -163 -48 -297 -144 -401c-96 -103 -216 -155 -359 -155c-145 0 -265 47 -358 140s-139 209 -139 347c0 155 42 279 125 372s198 140 343 140c127 0 244 -41 316 -110l3 5
c-15 129 -62 232 -141 311s-176 136 -293 171zM579 133c89 0 161 38 217 114c57 76 85 172 85 288v129c-48 89 -166 159 -335 159c-91 0 -159 -34 -204 -101s-67 -152 -67 -256c0 -88 27 -166 82 -233s129 -100 222 -100z" />
    <glyph glyph-name="product" unicode="&#x220f;" horiz-adv-x="1547" 
d="M1486 1456v-127l-163 -28v-1512h-197v1512h-706v-1512h-197v1512l-163 28v127h1426z" />
    <glyph glyph-name="summation" unicode="&#x2211;" horiz-adv-x="1239" 
d="M887 602v-25l-579 -686l2 -5h703l15 166h168v-321h-1127v146l609 713l-609 719v147h1049v-322h-169l-15 167h-625l-2 -5z" />
    <glyph glyph-name="minus" unicode="&#x2212;" horiz-adv-x="1143" 
d="M989 803v-155h-835v155h835z" />
    <glyph glyph-name="radical" unicode="&#x221a;" horiz-adv-x="1235" 
d="M389 784l163 -444l18 -83h6l19 83l399 1116h201l-549 -1456h-149l-248 628h-188v156h328z" />
    <glyph glyph-name="infinity" unicode="&#x221e;" horiz-adv-x="2101" 
d="M1981 573v-66c0 -150 -42 -276 -125 -377s-193 -151 -330 -151c-111 0 -206 36 -285 107c-79 72 -145 160 -198 264c-54 -104 -121 -192 -200 -264c-79 -71 -173 -107 -282 -107c-137 0 -248 50 -331 151s-124 227 -124 377v66c0 149 41 275 124 376
c83 102 192 153 329 153c109 0 204 -36 283 -108c80 -72 147 -160 201 -263c53 103 119 190 199 262c80 73 175 109 286 109c135 0 245 -51 328 -153s125 -227 125 -376zM303 573v-66c0 -113 22 -204 65 -272c44 -68 108 -102 193 -102c91 0 172 46 243 139s115 176 133 248
v42c-19 70 -64 152 -135 245s-152 140 -243 140c-84 0 -148 -35 -191 -104s-65 -159 -65 -270zM1783 507v66c0 111 -22 201 -66 270s-107 104 -189 104c-93 0 -175 -46 -246 -139s-115 -175 -134 -246v-42c18 -73 62 -155 133 -248s153 -139 245 -139c83 0 147 34 191 102
c44 69 66 159 66 272z" />
    <glyph glyph-name="integral" unicode="&#x222b;" horiz-adv-x="680" 
d="M347 1219v-1308c0 -223 -121 -348 -325 -348c-40 0 -72 6 -112 18l14 150c9 -3 25 -6 47 -9s39 -4 51 -4c79 0 128 73 128 193v1308c0 231 127 362 343 362c45 0 89 -8 145 -21l-25 -145c-25 7 -55 11 -88 11c-116 0 -178 -76 -178 -207z" />
    <glyph glyph-name="approxequal" unicode="&#x2248;" horiz-adv-x="1188" 
d="M149 700l-10 174c63 91 149 146 236 146c46 1 80 -3 101 -11s66 -29 133 -62c57 -29 97 -48 119 -57c22 -8 55 -12 99 -12c85 0 172 54 236 146l10 -174c-64 -92 -151 -146 -236 -146c-44 0 -77 4 -99 12c-22 9 -62 28 -119 57c-67 33 -112 54 -133 62s-55 12 -101 11
c-87 0 -173 -55 -236 -146zM139 272l-10 175c63 91 149 146 236 146c46 1 80 -3 101 -11s66 -29 133 -62c59 -31 100 -50 121 -58s54 -12 97 -12c85 0 172 54 236 147l10 -175c-64 -92 -151 -146 -236 -146c-44 0 -77 4 -99 12c-22 9 -62 28 -119 57c-70 35 -115 56 -136 63
c-20 8 -53 12 -98 11c-87 0 -173 -55 -236 -147z" />
    <glyph glyph-name="notequal" unicode="&#x2260;" horiz-adv-x="1043" 
d="M894 1189l-113 -202h200v-164h-291l-140 -252h431v-164h-522l-134 -242l-87 60l101 182h-192v164h283l140 252h-423v164h514l145 262z" />
    <glyph glyph-name="lessequal" unicode="&#x2264;" horiz-adv-x="1050" 
d="M984 296l-822 329v129l822 328v-1c0 -101 -70 -192 -175 -227l-480 -163v-5l480 -161c105 -35 175 -126 175 -229zM984 157v-155h-835v155h835z" />
    <glyph glyph-name="greaterequal" unicode="&#x2265;" horiz-adv-x="1072" 
d="M178 1080l822 -328v-129l-822 -328v1c0 101 70 192 175 227l480 163v5l-480 161c-105 35 -175 126 -175 228zM984 155v-155h-835v155h835z" />
    <glyph glyph-name="lozenge" unicode="&#x25ca;" horiz-adv-x="1051" 
d="M55 727l398 729h149l402 -729l-398 -727h-149zM554 216l249 511l-256 512l-18 52h-6l-18 -52l-249 -512l256 -511l17 -51h6z" />
    <glyph glyph-name="commaaccent" unicode="&#xf6c3;" horiz-adv-x="520" 
d="M348 243v-116c0 -68 -15 -137 -45 -207c-29 -70 -71 -128 -126 -174l-111 74c63 95 94 189 94 304v119h188z" />
    <glyph glyph-name="uniFEFF" unicode="&#xfeff;" horiz-adv-x="0" 
 />
    <glyph glyph-name="uniFFFC" unicode="&#xfffc;" horiz-adv-x="2226" 
d="M877 580v-112c0 -65 -21 -118 -64 -159c-43 -40 -98 -60 -165 -60c-69 0 -125 20 -168 60c-43 41 -64 94 -64 159v112c0 64 21 116 64 157s98 62 166 62s123 -21 166 -62s65 -93 65 -157zM1165 252h-221v549h188c135 0 212 -50 212 -150c0 -52 -31 -96 -84 -116
c64 -17 102 -68 102 -128c0 -101 -74 -155 -197 -155zM785 468v112c0 91 -54 147 -139 147s-138 -56 -138 -147v-112c0 -92 52 -147 140 -147c84 0 137 55 137 147zM1739 425v378h92v-378c0 -53 -18 -94 -53 -125s-80 -46 -134 -46c-121 0 -198 55 -190 158l2 6h84
c0 -61 37 -91 104 -91c53 0 95 39 95 98zM452 -398h-309v315h113v-202h196v-113zM2082 -398h-310v113h199v202h111v-315zM256 1169h-113v285h309v-116h-196v-169zM1971 1338h-199v116h310v-285h-111v169zM1165 496h-126v-169h126c67 0 103 30 103 83c0 51 -35 83 -98 86h-5z
M1651 1338h-278v116h278v-116zM1251 1338h-277v116h277v-116zM851 1338h-276v116h276v-116zM1651 -398h-278v113h278v-113zM1251 -398h-277v113h277v-113zM851 -398h-276v113h276v-113zM1039 717v-151h93c77 0 118 27 118 80c0 52 -37 71 -118 71h-93zM256 668v-252h-113
v252h113zM256 1044v-250h-113v250h113zM256 290v-249h-113v249h113zM2082 668v-252h-111v252h111zM2082 1044v-250h-111v250h111zM2082 290v-249h-111v249h111z" />
    <glyph glyph-name="uniFFFD" unicode="&#xfffd;" horiz-adv-x="1979" 
d="M35 643l956 975l959 -975l-959 -975zM872 402h202c0 71 13 105 66 140c96 52 166 144 166 248c0 85 -28 153 -85 203c-56 51 -133 76 -231 76c-91 0 -164 -22 -220 -65c-55 -43 -82 -108 -80 -195l3 -6h194c1 68 46 103 103 103c72 0 113 -45 113 -116
c0 -67 -37 -118 -93 -155c-53 -37 -89 -70 -109 -100c-19 -30 -29 -74 -29 -133zM1074 141v170h-202v-170h202zM999 -555v4h4v-4h-4zM997 2142v4h4v-4h-4z" />
    <glyph glyph-name="R.smcp" horiz-adv-x="1237" 
d="M194 1165h461c137 0 242 -30 317 -90s113 -144 113 -252c0 -119 -67 -202 -195 -254c139 -40 195 -139 195 -279v-118v-29l99 -17v-126h-278c-16 31 -18 104 -18 173v116c0 120 -72 190 -203 190h-294v-325l163 -28v-126h-523v126l163 28v856l-163 28v127h163zM391 1012
v-379h264c160 0 232 65 232 182c0 123 -73 197 -232 197h-264z" />
    <glyph glyph-name="four.smcp" horiz-adv-x="1129" 
d="M850 1165v-718h195v-154h-195v-139l163 -28v-126h-523v126l163 28v139h-578l-5 123l576 749h204zM288 447h365v452l-6 2z" />
    <glyph glyph-name="cyrillichookleft" horiz-adv-x="561" 
d="M155 0l91 67c140 -69 209 -170 209 -271c0 -66 -22 -117 -67 -154s-101 -55 -168 -55c-91 0 -151 19 -203 44l33 123c40 -15 74 -26 119 -26c81 0 115 34 115 90c0 65 -50 121 -129 182z" />
    <glyph glyph-name="cyrillictic" horiz-adv-x="402" 
d="M293 108v-467h-197v467h197z" />
    <glyph glyph-name="brevetildecomb" horiz-adv-x="931" 
d="M629 1786l-24 -70c-37 -112 -142 -187 -259 -187h-5l33 84c42 105 142 173 255 173zM711 1490h2l2 -6c3 -77 -23 -140 -77 -189s-127 -73 -218 -73c-92 0 -165 24 -219 73s-79 112 -76 189l2 6v0c70 0 136 -36 175 -94c22 -34 61 -54 118 -54c56 0 95 20 117 55
c39 58 104 93 174 93z" />
    <glyph glyph-name="brevehookcomb" horiz-adv-x="931" 
d="M713 1490l2 -6c3 -77 -23 -140 -77 -189s-127 -73 -218 -73c-92 0 -165 24 -219 73s-79 112 -76 189l2 6v0c70 0 136 -36 175 -94c22 -34 61 -54 118 -54c56 0 95 20 117 55c39 58 104 93 174 93h2zM341 1585v10c75 4 105 16 105 55c0 25 -19 41 -50 49
c-40 11 -65 47 -63 88v0c144 0 225 -55 225 -141c0 -69 -49 -104 -112 -112v-53v0c-58 0 -105 46 -105 104z" />
    <glyph glyph-name="breveacutecomb" horiz-adv-x="931" 
d="M727 1491h2l2 -6c3 -77 -23 -140 -77 -189s-127 -73 -218 -73c-92 0 -165 24 -219 73s-79 112 -76 189l2 6v0c70 0 136 -36 175 -94c22 -34 61 -54 118 -54c56 0 95 20 117 55c39 58 104 93 174 93zM638 1710l-21 -62c-33 -100 -127 -167 -231 -167h-4l29 75
c37 93 127 154 227 154z" />
    <glyph glyph-name="circumflextildecomb" horiz-adv-x="1036" 
d="M424 1327c-74 -72 -173 -111 -275 -111v0l266 290h118l253 -277h-4c-101 0 -197 38 -271 107l-36 35h-6zM585 1556c-86 0 -134 47 -170 81c-29 29 -42 39 -63 39c-59 0 -63 -79 -63 -80v0c-83 0 -130 100 -73 159c32 34 77 57 136 57c78 0 124 -45 158 -77
c30 -29 46 -43 75 -43c61 0 71 53 71 85v0c86 0 133 -105 72 -166c-33 -33 -81 -55 -143 -55z" />
    <glyph glyph-name="circumflexhookcomb" horiz-adv-x="1039" 
d="M469 1377l-45 -44c-74 -72 -173 -111 -275 -111v0l266 290h118l253 -277h-4c-101 0 -197 38 -271 107l-36 35h-6zM659 1483v10c75 4 105 16 105 55c0 25 -19 41 -50 49c-40 11 -65 47 -63 88v0c144 0 225 -55 225 -141c0 -69 -49 -104 -112 -112v-53v0
c-58 0 -105 46 -105 104z" />
    <glyph glyph-name="circumflexgravecomb" horiz-adv-x="1039" 
d="M469 1377l-45 -44c-74 -72 -173 -111 -275 -111v0l266 290h118l253 -277h-4c-101 0 -197 38 -271 107l-36 35h-6zM243 1734l-24 70c113 0 213 -68 255 -173l33 -84h-5c-117 0 -222 75 -259 187z" />
    <glyph glyph-name="circumflexacutecomb" horiz-adv-x="1039" 
d="M482 1385h-6l-36 -35c-74 -69 -170 -106 -271 -106h-4l253 276h118l266 -290c-102 0 -201 39 -275 111zM708 1742c-37 -112 -142 -187 -259 -187h-5l33 84c42 105 142 173 255 173z" />
    <glyph glyph-name="brevegravecomb" horiz-adv-x="932" 
d="M212 1799c113 0 213 -68 255 -173l33 -84h-5c-117 0 -222 75 -259 187l-24 70v0zM130 1504c70 0 135 -35 174 -93c22 -35 61 -56 117 -56c57 0 96 21 118 55c39 57 105 94 175 94l2 -7c3 -77 -22 -140 -76 -189s-127 -73 -219 -73c-91 0 -164 24 -218 73s-80 112 -77 189
l2 7h2z" />
    <glyph glyph-name="commaaccentrotate" horiz-adv-x="521" 
d="M160 1164v148l121 247h97l-21 -257v-138h-197z" />
    <glyph glyph-name="A.smcp" horiz-adv-x="1214" 
d="M16 0v126l81 14l413 1025h185l412 -1025l81 -14v-126h-391v126l107 18l-48 124h-508l-48 -124l108 -18v-126h-392zM598 921l-191 -499h390l-193 499h-6z" />
    <glyph glyph-name="B.smcp" horiz-adv-x="1186" 
d="M194 1165h397c284 0 450 -106 450 -318c0 -111 -66 -203 -182 -247c69 -17 122 -50 161 -100s58 -107 58 -171c0 -216 -155 -329 -418 -329h-629v126l163 28v856l-163 28v127h163zM660 521h-269v-369h269c145 0 220 65 220 182c0 112 -72 183 -209 187h-11zM391 992v-330
h212c157 3 241 63 241 174c0 115 -80 156 -253 156h-200z" />
    <glyph glyph-name="C.smcp" horiz-adv-x="1170" 
d="M865 381h190l2 -6c3 -126 -37 -223 -120 -291c-83 -67 -190 -101 -322 -101c-145 0 -266 51 -361 153s-142 242 -142 419v35c0 183 47 327 142 432c95 106 215 159 361 159c135 0 244 -34 325 -102c81 -67 121 -163 118 -288l-2 -6h-190c0 161 -94 243 -251 243
c-89 0 -163 -40 -220 -119s-86 -185 -86 -318v-36c0 -127 29 -229 86 -306c57 -76 131 -114 220 -114c157 0 250 81 250 246z" />
    <glyph glyph-name="D.smcp" horiz-adv-x="1235" 
d="M194 1165h421c141 0 259 -45 355 -135c96 -89 144 -204 144 -343v-210c0 -140 -48 -255 -144 -344s-214 -133 -355 -133h-584v126l163 28v856l-163 28v127h163zM615 1012h-224v-860h224c84 0 155 31 214 93s88 139 88 232v211c0 91 -29 168 -88 230
c-59 63 -130 94 -214 94z" />
    <glyph glyph-name="E.smcp" horiz-adv-x="1137" 
d="M863 684v-154h-472v-378h434l16 169h168v-321h-978v126l163 28v856l-163 28v127h163h815v-322h-169l-15 169h-434v-328h472z" />
    <glyph glyph-name="F.smcp" horiz-adv-x="1096" 
d="M31 0v126l163 28v856l-163 28v127h980v-322h-169l-15 169h-436v-357h474v-154h-474v-347l163 -28v-126h-523z" />
    <glyph glyph-name="G.smcp" horiz-adv-x="1235" 
d="M1099 608v-451c-31 -43 -86 -83 -167 -120c-81 -36 -181 -54 -301 -54c-154 0 -279 51 -375 153s-144 235 -144 400v92c0 163 46 295 139 398s211 155 356 155c154 0 273 -34 358 -101s125 -152 121 -257l-2 -6h-186c0 135 -111 211 -291 211c-87 0 -159 -38 -215 -114
c-55 -76 -83 -171 -83 -285v-93c0 -116 29 -212 88 -288c59 -75 137 -113 234 -113c140 0 232 33 273 69v250h-259v154h454z" />
    <glyph glyph-name="H.smcp" horiz-adv-x="1350" 
d="M194 1010l-163 28v127h523v-127l-163 -28v-366h566v366l-163 28v127h163h198h163v-127l-163 -28v-856l163 -28v-126h-524v126l163 28v337h-566v-337l163 -28v-126h-523v126l163 28v856z" />
    <glyph glyph-name="I.smcp" horiz-adv-x="585" 
d="M31 1165v0h521v0c0 -73 -52 -136 -125 -148l-38 -7v-856l39 -6c72 -13 124 -75 124 -148v0h-521v0c0 73 52 135 124 148l38 6v856l-37 7c-73 12 -125 75 -125 148z" />
    <glyph glyph-name="J.smcp" horiz-adv-x="1081" 
d="M1049 1165v-127l-163 -28v-656c0 -113 -38 -204 -113 -271s-172 -100 -289 -100c-130 0 -233 30 -308 89s-111 146 -107 259l2 6h188c0 -135 82 -202 225 -202c59 0 108 20 147 60c39 41 59 94 59 159v656l-163 28v127h522z" />
    <glyph glyph-name="K.smcp" horiz-adv-x="1169" 
d="M193 1010l-163 28v127h513v-127l-153 -28v-353h84l281 368l-95 13v127h415v-127l-104 -27l-331 -405l367 -454l121 -26v-126h-446v126l93 13l-286 361h-99v-346l153 -28v-126h-513v126l163 28v856z" />
    <glyph glyph-name="L.smcp" horiz-adv-x="1023" 
d="M965 0h-934v126l163 28v856l-163 28v127h163h197h163v-127l-163 -28v-858h390l16 169h168v-321z" />
    <glyph glyph-name="M.smcp" horiz-adv-x="1601" 
d="M448 1165l352 -906h6l354 906h246h163v-127l-163 -28v-856l163 -28v-126h-523v126l163 28v655l-6 2l-332 -811h-136l-338 829l-6 -2v-673l163 -28v-126h-523v126l163 28v856l-163 28v127h163h254z" />
    <glyph glyph-name="N.smcp" horiz-adv-x="1378" 
d="M1183 1165h163v-127l-163 -28v-1010h-196l-590 859l-6 -2v-703l163 -28v-126h-523v126l163 28v856l-163 28v127h163h197l590 -859l6 2v702l-163 28v127h359z" />
    <glyph glyph-name="O.smcp" horiz-adv-x="1227" 
d="M1135 609v-54c0 -171 -48 -309 -145 -414c-96 -105 -221 -158 -376 -158s-280 53 -377 158c-97 106 -145 244 -145 414v54c0 169 48 307 144 413s221 159 376 159s280 -53 377 -159s146 -244 146 -413zM938 555v55c0 131 -29 233 -88 307c-58 74 -137 111 -238 111
s-180 -37 -237 -111s-86 -176 -86 -307v-55c0 -132 29 -235 87 -309s137 -111 238 -111s180 37 237 111c58 74 87 177 87 309z" />
    <glyph glyph-name="Q.smcp" horiz-adv-x="1251" 
d="M1135 609v-54c0 -224 -92 -402 -245 -497l259 -145l-145 -126l-281 206c-37 -5 -73 -10 -109 -10c-155 0 -280 53 -377 158c-97 106 -145 244 -145 414v54c0 169 48 307 144 413s221 159 376 159s280 -53 377 -159s146 -244 146 -413zM938 555v55c0 131 -29 233 -88 307
c-58 74 -137 111 -238 111s-180 -37 -237 -111s-86 -176 -86 -307v-55c0 -132 29 -235 87 -309s137 -111 238 -111s180 37 237 111c58 74 87 177 87 309z" />
    <glyph glyph-name="largerighthook" horiz-adv-x="786" 
d="M-90 668v165h210c189 0 337 -51 442 -154c105 -102 158 -243 158 -424c0 -175 -41 -310 -122 -403s-197 -139 -348 -136l-6 2l-2 142c201 0 281 140 281 395c-3 269 -135 413 -403 413h-210z" />
    <glyph glyph-name="S.smcp" horiz-adv-x="1137" 
d="M844 304c0 47 -21 86 -62 115s-116 57 -225 84c-149 39 -257 83 -325 132c-67 50 -101 125 -101 225c0 98 41 176 122 234s191 87 328 87c139 0 248 -31 327 -93s116 -149 113 -261l-2 -6h-187c0 61 -22 111 -66 149c-44 39 -106 58 -185 58c-168 0 -252 -68 -252 -167
c0 -49 19 -87 57 -114s116 -54 235 -83c144 -39 250 -84 318 -136s102 -126 102 -223c0 -103 -43 -182 -128 -238s-199 -84 -344 -84c-135 0 -249 28 -340 85s-135 146 -131 269l1 6h189c0 -72 27 -125 81 -158c55 -33 121 -50 200 -50c175 0 275 69 275 169z" />
    <glyph glyph-name="T.smcp" horiz-adv-x="1175" 
d="M51 1165h1065v-322h-168l-15 169h-254v-858l163 -28v-126h-523v126l163 28v858h-248l-14 -169h-169v322z" />
    <glyph glyph-name="U.smcp" horiz-adv-x="1371" 
d="M183 1165h360v-127l-163 -28v-612c0 -82 28 -146 84 -193c57 -47 130 -70 221 -70s165 23 221 69c56 47 84 111 84 194v612l-163 28v127h522v-127l-163 -28v-612c0 -130 -47 -232 -140 -305s-213 -110 -361 -110s-269 37 -362 110s-140 175 -140 305v612l-163 28v127h163
z" />
    <glyph glyph-name="V.smcp" horiz-adv-x="1265" 
d="M448 1165v-127l-109 -19l267 -722l23 -82h6l23 80l267 724l-109 19v127h428v-127l-112 -16l-408 -1022h-185l-408 1022l-111 16v127h428z" />
    <glyph glyph-name="W.smcp" horiz-adv-x="1556" 
d="M448 1165v-127l-133 -23l151 -751v-3l1 5l221 899h183l221 -901v-3l1 5l149 749l-133 23v127h427v-127l-89 -13l-258 -1025h-182l-225 855h-6l-227 -855h-181l-259 1025l-89 13v127h428z" />
    <glyph glyph-name="X.smcp" horiz-adv-x="1162" 
d="M32 0v126l126 21l301 441l-292 428l-125 22v127h419v-127l-75 -13l186 -293l188 293l-73 13v127h421v-127l-126 -22l-291 -428l300 -441l126 -21v-126h-418v126l73 12l-197 304l-196 -304l74 -12v-126h-421z" />
    <glyph glyph-name="Y.smcp" horiz-adv-x="1195" 
d="M458 1165v-127l-89 -15l228 -434l228 434l-88 15v127h437v-127l-137 -20l-344 -608v-256l163 -28v-126h-523v126l163 28v265l-339 599l-137 20v127h438z" />
    <glyph glyph-name="Z.smcp" horiz-adv-x="1089" 
d="M318 152h482v2c9 94 88 167 184 167v0v-265c0 -31 -25 -56 -56 -56h-849v118l641 894h-424l-1 -2c-8 -94 -87 -167 -182 -167v0v266c0 31 25 56 56 56h792v-114z" />
    <glyph glyph-name="zero.smcp" horiz-adv-x="1145" 
d="M1018 754v-343c0 -131 -41 -236 -124 -313c-82 -77 -190 -115 -324 -115c-135 0 -243 38 -326 115s-124 182 -124 313v343c0 130 41 234 123 311s190 116 325 116c134 0 242 -39 325 -116s125 -181 125 -311zM821 411v344c0 82 -23 148 -69 198c-45 50 -107 75 -184 75
s-139 -25 -184 -75s-67 -116 -67 -198v-344c0 -83 23 -150 68 -201c46 -50 108 -75 185 -75s138 25 183 75c45 51 68 118 68 201z" />
    <glyph glyph-name="one.smcp" horiz-adv-x="608" 
d="M91 0v126l163 28v836l-175 -2v160l372 33v-1027l163 -28v-126h-523z" />
    <glyph glyph-name="two.smcp" horiz-adv-x="998" 
d="M883 0h-781v152l406 406c68 65 113 117 136 155s35 77 35 118c0 56 -15 103 -46 140c-31 38 -75 57 -133 57c-67 0 -120 -19 -158 -58c-38 -38 -57 -85 -57 -140h-188l-2 6c-4 96 31 177 106 244s174 101 299 101c117 0 208 -31 275 -92s101 -148 101 -260
c0 -73 -20 -135 -59 -186s-111 -129 -216 -236l-248 -249l3 -6h343l16 169h168v-321z" />
    <glyph glyph-name="three.smcp" horiz-adv-x="1047" 
d="M912 849c0 -108 -68 -200 -181 -251c128 -47 200 -140 200 -272c0 -107 -40 -191 -120 -252s-184 -91 -312 -91c-112 0 -208 28 -289 85s-119 140 -116 248l2 6h186c0 -51 20 -95 60 -132c41 -37 93 -55 157 -55c72 0 129 18 171 54c42 37 63 82 63 137
c0 131 -74 193 -221 193h-168v150h168c139 0 202 67 202 179c0 51 -18 93 -55 128s-90 52 -160 52c-56 0 -103 -16 -142 -48c-38 -32 -57 -72 -57 -119h-187l-2 6c-4 93 32 169 107 227s169 87 281 87c127 0 228 -29 302 -86s111 -139 111 -246z" />
    <glyph glyph-name="cyrillichook" horiz-adv-x="517" 
d="M174 148h197v-181c0 -208 -113 -326 -304 -326c-39 0 -68 6 -111 18l14 160c9 -3 25 -6 46 -8c21 -3 38 -4 51 -4c67 0 107 56 107 160v181z" />
    <glyph glyph-name="five.smcp" horiz-adv-x="1054" 
d="M882 1001h-506l-33 -310c25 17 56 31 94 43c38 13 76 20 113 21c121 2 215 -31 283 -98s102 -163 102 -286c0 -119 -35 -213 -105 -283s-178 -105 -324 -105c-119 0 -218 27 -298 80c-79 54 -117 133 -114 238l1 6l189 14c0 -55 20 -100 61 -135c41 -34 95 -51 161 -51
c157 0 232 87 232 234c0 143 -79 232 -212 232c-69 0 -120 -10 -153 -29s-57 -46 -72 -81l-167 13l70 661h525l22 81h168z" />
    <glyph glyph-name="six.smcp" horiz-adv-x="1071" 
d="M590 1181c88 0 191 -20 280 -51l-32 -148c-77 32 -147 46 -246 46c-80 0 -146 -27 -198 -82c-51 -54 -77 -123 -77 -206v-106c65 69 163 110 280 110c248 0 386 -138 386 -377c0 -114 -40 -207 -120 -278s-183 -106 -310 -106c-125 0 -228 41 -311 124
c-82 83 -123 189 -123 320v311c0 130 45 236 136 319s203 124 335 124zM554 590c-117 0 -200 -45 -237 -117v-46c0 -83 22 -153 66 -209c45 -55 101 -83 170 -83c70 0 126 22 169 67s64 100 64 165c0 139 -75 223 -232 223z" />
    <glyph glyph-name="seven.smcp" horiz-adv-x="958" 
d="M872 1165v-153c-126 -154 -216 -285 -271 -392s-82 -252 -82 -435v-185h-197v185c0 179 38 336 115 471s163 254 258 356h-441l-15 -169h-168v322h801z" />
    <glyph glyph-name="eight.smcp" horiz-adv-x="1072" 
d="M933 860c0 -116 -72 -207 -188 -256c136 -52 223 -152 223 -277c0 -108 -41 -192 -123 -253s-185 -91 -308 -91c-129 0 -237 30 -322 91s-127 145 -127 253c0 125 88 226 229 277c-121 49 -195 140 -195 256c0 102 39 181 116 237c78 56 177 84 297 84
c114 0 209 -28 284 -84c76 -56 114 -135 114 -237zM771 331c0 56 -23 102 -70 139c-46 37 -101 56 -166 56c-70 0 -129 -19 -178 -56c-48 -37 -72 -83 -72 -139c0 -58 24 -105 72 -142c49 -36 109 -54 180 -54c65 0 120 18 165 54c46 37 69 84 69 142zM736 856
c0 49 -20 90 -60 123c-39 33 -86 49 -141 49c-62 0 -114 -16 -155 -47s-61 -73 -61 -125c0 -51 21 -94 62 -127c42 -33 94 -49 156 -49c55 0 101 16 140 49s59 76 59 127z" />
    <glyph glyph-name="nine.smcp" horiz-adv-x="1064" 
d="M477 135c72 0 132 25 180 74c49 49 73 111 73 184v116c-60 -67 -147 -101 -243 -101c-130 0 -232 34 -306 103c-73 69 -110 162 -110 279c0 111 40 203 120 278s183 113 309 113c123 0 225 -42 306 -125s121 -189 121 -319v-343c0 -121 -43 -219 -128 -296
s-193 -115 -322 -115c-91 0 -194 18 -283 50l31 149c80 -35 152 -47 252 -47zM494 554c116 0 203 56 236 128v55c0 83 -22 152 -67 207c-44 56 -99 84 -165 84c-68 0 -123 -24 -166 -73s-64 -104 -64 -165c0 -68 19 -124 58 -169s95 -67 168 -67z" />
    <glyph glyph-name="one.sup" horiz-adv-x="558" 
d="M396 812v-812h-174v655h-127v134z" />
    <glyph glyph-name="two.sup" horiz-adv-x="860" 
d="M714 130v-130h-592v130l302 262c46 39 76 71 90 96c15 25 22 52 22 81c0 67 -37 112 -114 112c-89 0 -140 -47 -140 -114h-161l-2 6c-4 66 22 122 78 169s131 70 225 70c180 0 287 -89 287 -244c0 -53 -15 -99 -45 -136c-29 -37 -83 -91 -160 -161l-153 -135l2 -6h361z
" />
    <glyph glyph-name="three.sup" horiz-adv-x="875" 
d="M291 471h133c89 0 131 40 131 109c0 59 -49 101 -141 101c-75 0 -126 -35 -126 -88h-162l-2 6c-4 63 22 114 78 153c57 40 127 60 212 60c193 0 313 -82 313 -229c0 -73 -50 -137 -133 -172c95 -32 146 -96 146 -187c0 -74 -30 -132 -90 -173s-139 -62 -236 -62
c-85 0 -157 19 -218 58s-89 95 -85 169l1 6h163c0 -61 54 -103 139 -103c96 0 155 43 155 107c0 84 -48 119 -145 119h-133v126z" />
    <glyph glyph-name="four.sup" horiz-adv-x="916" 
d="M682 801v-519h126v-130h-126v-152h-170v152h-417l-8 102l421 547h174zM493 571l-224 -289h243v310l-6 1z" />
    <glyph glyph-name="five.sup" horiz-adv-x="891" 
d="M295 337l-150 9l52 455h517v-133h-364l-25 -185c39 23 94 42 150 43c88 1 157 -22 207 -71c50 -48 75 -115 75 -200c0 -163 -104 -266 -325 -266c-91 0 -167 18 -228 55s-89 90 -85 161l1 6l162 10c0 -64 59 -102 150 -102c104 0 154 47 154 135s-55 147 -144 147
c-87 0 -127 -24 -147 -64z" />
    <glyph glyph-name="six.sup" horiz-adv-x="892" 
d="M478 812c71 0 147 -14 204 -35l-30 -127c-52 21 -104 31 -172 31c-55 0 -101 -16 -136 -47s-53 -73 -53 -125v-66c48 45 116 72 200 72c176 0 280 -99 280 -262c0 -78 -30 -142 -91 -191c-60 -49 -138 -73 -234 -73c-94 0 -172 28 -234 85c-61 57 -92 130 -92 220v214
c0 90 34 163 102 219c69 57 154 85 256 85zM452 386c-85 0 -142 -31 -161 -82v-10c0 -52 14 -94 43 -127c29 -32 67 -48 112 -48c95 0 154 54 154 134c0 84 -49 133 -148 133z" />
    <glyph glyph-name="seven.sup" horiz-adv-x="785" 
d="M684 801v-131c-89 -105 -153 -192 -190 -260c-37 -67 -55 -162 -55 -283v-127h-172v127c0 121 26 227 77 320c52 93 107 167 166 223h-415v131h589z" />
    <glyph glyph-name="eight.sup" horiz-adv-x="900" 
d="M751 592c0 -79 -52 -141 -136 -177c97 -37 160 -106 160 -190c0 -75 -31 -133 -93 -174c-61 -41 -139 -62 -232 -62c-97 0 -178 21 -242 62s-96 99 -96 174c0 84 62 154 165 191c-88 35 -140 97 -140 176c0 70 29 124 88 162c59 39 133 58 224 58c87 0 159 -19 216 -58
c57 -38 86 -92 86 -162zM604 232c0 34 -15 62 -46 84c-30 23 -66 34 -109 34c-47 0 -86 -11 -119 -33c-32 -22 -48 -50 -48 -85c0 -69 72 -113 168 -113c43 0 80 10 109 30c30 21 45 48 45 83zM578 583c0 60 -57 98 -129 98c-81 0 -141 -37 -141 -98s62 -103 142 -103
c71 0 128 42 128 103z" />
    <glyph glyph-name="nine.sup" horiz-adv-x="876" 
d="M407 119c48 0 88 14 119 42c32 28 48 64 48 109v72c-41 -44 -100 -66 -161 -66c-97 0 -173 24 -228 72s-82 113 -82 195c0 76 30 140 90 191c61 52 139 78 234 78c91 0 167 -29 228 -86s92 -131 92 -220v-235c0 -83 -32 -151 -97 -204c-65 -52 -146 -78 -243 -78
c-68 0 -145 13 -212 34l29 127c57 -23 108 -31 183 -31zM422 398c79 0 133 35 152 82v26c0 51 -15 92 -44 125s-65 50 -109 50s-80 -14 -107 -42c-27 -27 -40 -59 -40 -96c0 -87 52 -145 148 -145z" />
    <glyph glyph-name="zero.sup" horiz-adv-x="933" 
d="M797 518v-235c0 -91 -31 -162 -93 -215s-144 -79 -245 -79s-183 26 -246 79c-62 53 -93 125 -93 215v235c0 89 31 161 93 214s143 80 244 80s183 -27 246 -80s94 -125 94 -214zM625 283v236c0 101 -64 162 -168 162s-166 -61 -166 -162v-236c0 -104 63 -164 168 -164
c103 0 166 60 166 164z" />
    <glyph glyph-name="crossbar" horiz-adv-x="931" 
d="M788 803v-155h-641v155h641z" />
    <glyph glyph-name="ringacute" horiz-adv-x="695" 
d="M285 1465l143 183h190l2 -6l-216 -177h-119zM154 1249c0 48 17 88 51 119c34 32 75 48 123 48c47 0 88 -16 121 -48c33 -31 50 -71 50 -119s-17 -87 -50 -118s-74 -46 -121 -46c-49 0 -90 15 -124 46c-33 31 -50 70 -50 118zM241 1249c0 -47 39 -84 87 -84
c45 0 83 36 83 84c0 49 -38 88 -83 88c-48 0 -87 -39 -87 -88z" />
    <glyph glyph-name="dasiaoxia" horiz-adv-x="845" 
d="M394 1137v17l113 323h208v-21l-228 -319h-93zM105 1135v85c0 115 65 212 182 275l77 -59c-56 -63 -81 -129 -81 -222v-79h-178z" />
    <glyph glyph-name="zero.lnum" horiz-adv-x="1246" 
d="M1106 900v-345c0 -186 -43 -329 -130 -428c-86 -99 -204 -148 -353 -148s-267 50 -354 149s-130 242 -130 427v345c0 185 43 327 129 427c87 100 204 150 353 150s267 -50 354 -150c87 -99 131 -242 131 -427zM908 515v427c0 252 -100 380 -287 380
c-185 0 -285 -129 -285 -380v-427c0 -252 102 -382 287 -382c187 0 285 129 285 382z" />
    <glyph glyph-name="one.lnum" horiz-adv-x="775" 
d="M195 0v125l163 29v1110l-298 -4v142l495 54v-1302l163 -29v-125h-523z" />
    <glyph glyph-name="two.lnum" horiz-adv-x="1150" 
d="M1060 154v-154h-944v135l477 530c85 95 143 171 173 227c31 56 46 113 46 172c0 73 -21 134 -64 183c-42 50 -98 75 -168 75c-201 0 -294 -108 -294 -295h-189l-2 6c-3 125 38 231 125 316s207 128 360 128c131 0 235 -38 312 -115c78 -76 117 -173 117 -291
c0 -159 -99 -312 -268 -495l-383 -417l2 -5h700z" />
    <glyph glyph-name="three.lnum" horiz-adv-x="1193" 
d="M408 665v154h172c95 0 162 22 201 65s59 104 59 183c0 167 -90 255 -265 255c-77 0 -138 -23 -185 -68c-46 -45 -69 -104 -69 -179h-189l-2 6c-3 110 37 203 120 280s192 116 325 116c141 0 253 -36 336 -108c84 -71 126 -173 126 -306c0 -60 -19 -120 -57 -180
c-38 -59 -95 -105 -171 -136c91 -29 156 -74 193 -135c38 -61 57 -130 57 -206c0 -133 -46 -237 -137 -313s-206 -114 -347 -114c-133 0 -243 36 -330 107c-87 72 -128 169 -125 292l3 6h188c0 -77 23 -138 70 -183s112 -68 194 -68c179 0 287 92 287 269
c0 180 -87 263 -282 263h-172z" />
    <glyph glyph-name="g.alt" horiz-adv-x="1082" 
d="M1044 1082l2 -149h-151c37 -56 58 -121 58 -190v-22c0 -101 -41 -186 -122 -255s-184 -104 -309 -104c-55 0 -105 7 -152 20c-31 -25 -49 -59 -49 -104c0 -59 48 -82 127 -82h171c267 0 415 -97 415 -293c0 -84 -50 -162 -150 -233c-99 -72 -229 -108 -390 -108
c-147 0 -262 27 -345 81c-83 53 -124 119 -124 196c0 120 71 208 175 261c-37 29 -56 69 -56 121c0 95 47 157 118 208c-111 65 -174 173 -174 292v22c0 104 40 190 120 257c81 68 185 102 312 102c53 0 105 -8 153 -20h371zM619 42h-210c-32 0 -57 1 -81 6
c-63 -31 -106 -94 -106 -171c0 -92 93 -161 272 -161c102 0 184 20 247 60c63 39 95 82 95 127c0 95 -57 139 -217 139zM285 743v-22c0 -54 22 -102 66 -143c45 -41 102 -62 171 -62c67 0 123 21 167 62c45 41 67 89 67 143v22c0 56 -22 104 -67 144c-44 40 -100 60 -169 60
s-125 -20 -169 -60s-66 -88 -66 -144z" />
    <glyph glyph-name="four.lnum" horiz-adv-x="1183" 
d="M920 1456v-966h201v-154h-201v-336h-197v336h-654v111l642 1009h209zM698 1143l-418 -653h443v699l-6 1z" />
    <glyph glyph-name="five.lnum" horiz-adv-x="1181" 
d="M351 640l-163 17l84 799h729v-175h-563l-47 -409c61 45 134 78 233 81c134 1 239 -42 316 -131s116 -208 116 -358c0 -146 -39 -263 -118 -352c-78 -89 -192 -133 -342 -133c-123 0 -226 34 -308 101s-121 166 -118 297l2 6h178c0 -79 23 -141 68 -185
c46 -43 105 -65 178 -65c83 0 148 29 194 88s69 139 69 241c0 93 -23 170 -70 230s-111 90 -193 90c-77 0 -133 -12 -168 -35s-60 -59 -77 -107z" />
    <glyph glyph-name="six.lnum" horiz-adv-x="1182" 
d="M689 1477c50 0 99 -6 148 -17s90 -26 121 -43l-41 -151c-65 33 -132 56 -228 56c-104 0 -188 -42 -252 -125c-63 -83 -95 -192 -95 -326v-22c85 73 196 118 323 118c130 0 234 -45 311 -135s116 -204 116 -342c0 -151 -41 -274 -124 -369c-82 -95 -191 -142 -328 -142
c-143 0 -261 52 -354 155s-140 249 -140 437v278c0 187 52 338 155 454c104 116 233 174 388 174zM622 820c-135 0 -231 -58 -280 -150v-118c0 -134 28 -237 85 -310s128 -109 213 -109c81 0 143 34 188 102c45 69 67 154 67 255c0 96 -24 175 -72 237s-115 93 -201 93z" />
    <glyph glyph-name="alpha.alt" horiz-adv-x="1223" 
d="M931 0l-36 227c-72 -161 -194 -248 -375 -248c-132 0 -235 48 -310 143c-75 96 -112 222 -112 378v21c0 174 37 314 111 421c75 107 179 160 313 160c177 0 298 -86 370 -242l32 222h188l-108 -542l115 -540h-188zM295 521v-21c0 -109 22 -198 67 -266
c45 -67 115 -101 208 -101c76 0 135 35 177 106c43 71 75 165 98 284v33c-17 112 -47 205 -92 279c-45 75 -105 112 -181 112c-94 0 -164 -40 -209 -120c-45 -79 -68 -181 -68 -306z" />
    <glyph glyph-name="NULL" horiz-adv-x="0" 
 />
    <glyph glyph-name="s.ss03" horiz-adv-x="1044" 
d="M752 287c0 43 -17 79 -50 107s-95 52 -187 73c-263 57 -397 149 -397 317c0 88 37 163 112 225s173 93 293 93c126 0 226 -32 300 -97c75 -65 110 -143 107 -236l-2 -6h-188c0 47 -20 90 -60 127c-39 38 -92 57 -157 57c-70 0 -122 -15 -156 -46s-51 -68 -51 -111
s15 -76 45 -101s91 -47 183 -66c273 -59 405 -153 405 -322c0 -96 -39 -174 -117 -233c-77 -59 -179 -89 -304 -89c-138 0 -247 35 -326 105s-117 152 -113 245l2 6h188c3 -70 29 -121 78 -154c49 -32 106 -48 171 -48c140 0 224 62 224 154z" />
    <glyph glyph-name="a.ss03" horiz-adv-x="1128" 
d="M1053 0h-258c-12 59 -18 102 -21 149c-38 -49 -86 -89 -143 -122c-57 -32 -117 -48 -182 -48c-224 0 -345 122 -345 325c0 103 42 184 125 242c84 59 198 88 341 88h203v107c0 127 -84 206 -227 206c-65 0 -119 -16 -161 -49c-41 -33 -62 -71 -62 -116h-187l-2 6
c-5 79 33 151 114 216s184 98 310 98c123 0 222 -31 298 -94s114 -152 114 -269v-521c0 -28 0 -54 3 -81l80 -11v-126zM478 144c65 0 125 16 179 47s93 69 116 113v197h-210c-80 0 -144 -20 -191 -60s-71 -87 -71 -141c0 -96 60 -156 177 -156z" />
    <glyph glyph-name="c.ss03" horiz-adv-x="1118" 
d="M589 133c65 0 123 20 172 60c50 41 75 90 75 149h177l2 -6c3 -93 -38 -176 -125 -249c-86 -72 -186 -108 -301 -108c-157 0 -278 51 -361 154s-124 232 -124 387v42c0 154 42 282 125 385s203 155 360 155c127 0 230 -37 310 -112c81 -75 120 -166 117 -275l-2 -6h-178
c0 66 -23 122 -70 168c-47 47 -106 70 -177 70c-103 0 -177 -37 -222 -112c-44 -74 -66 -165 -66 -273v-42c0 -111 22 -203 66 -277c44 -73 118 -110 222 -110z" />
    <glyph glyph-name="C.ss03" horiz-adv-x="1283" 
d="M1192 1268v-310h-158l-57 238c-59 73 -145 126 -266 126s-218 -44 -291 -133s-109 -199 -109 -330v-261c0 -133 33 -243 98 -332s153 -133 263 -133c123 0 230 47 285 108l57 255h138v-308c-41 -54 -104 -102 -188 -145s-181 -64 -292 -64c-165 0 -300 58 -403 174
c-103 117 -155 265 -155 445v259c0 179 54 327 161 444s246 176 417 176c115 0 216 -22 303 -65s153 -91 197 -144z" />
    <glyph glyph-name="G.ss03" horiz-adv-x="1385" 
d="M1228 687v-494c-35 -53 -95 -102 -181 -147c-85 -45 -196 -67 -332 -67c-174 0 -318 56 -431 167s-170 255 -170 432v300c0 177 55 321 164 432s251 167 424 167c225 0 395 -75 500 -204l1 -284h-158l-58 250c-56 49 -142 83 -265 83s-222 -42 -298 -125
c-75 -83 -113 -189 -113 -317v-302c0 -129 38 -236 114 -320c76 -83 173 -125 290 -125c165 0 271 52 316 108v291l-238 10v145h435z" />
    <glyph glyph-name="S.ss03" horiz-adv-x="1248" 
d="M954 367c0 67 -25 122 -75 167c-49 45 -138 83 -265 114c-154 37 -274 91 -361 162c-86 71 -129 161 -129 269c0 113 46 208 139 284s214 114 362 114c159 0 286 -44 380 -131c95 -87 140 -189 137 -304l-2 -6h-188c0 85 -28 154 -85 207c-56 53 -137 79 -242 79
c-98 0 -173 -22 -226 -67c-52 -44 -78 -102 -78 -173c0 -127 106 -206 361 -270c307 -76 470 -224 470 -443c0 -117 -48 -212 -144 -283s-221 -107 -376 -107c-145 0 -274 39 -386 118c-111 79 -165 184 -162 316l2 6h188c0 -93 34 -164 103 -213s154 -73 255 -73
c99 0 178 21 235 63c58 42 87 99 87 171z" />
    <glyph glyph-name="O.ss04" horiz-adv-x="1403" 
d="M1283 857v-259c0 -178 -55 -326 -166 -443c-110 -117 -253 -176 -429 -176c-170 0 -308 59 -415 176c-106 117 -159 265 -159 443v259c0 177 53 325 159 443c107 118 245 177 415 177c176 0 319 -59 429 -177c111 -117 166 -265 166 -443zM1086 598v261
c0 133 -36 243 -108 328s-169 128 -290 128c-115 0 -207 -43 -275 -128s-102 -195 -102 -328v-261c0 -135 34 -245 102 -330s160 -128 275 -128c122 0 219 42 290 127c72 85 108 196 108 331z" />
    <glyph glyph-name="C.ss04" horiz-adv-x="1283" 
d="M1015 466h189l2 -6c-13 -141 -65 -256 -158 -346s-218 -135 -376 -135c-165 0 -300 58 -403 174c-103 117 -155 265 -155 445v259c0 179 52 327 155 444c104 117 238 176 403 176c161 0 287 -43 378 -129c91 -85 143 -202 156 -351l-2 -6h-189c-32 215 -132 331 -343 331
c-110 0 -198 -44 -263 -133s-98 -199 -98 -330v-261c0 -133 33 -243 98 -332s153 -133 263 -133c212 0 311 114 343 333z" />
    <glyph glyph-name="G.ss04" horiz-adv-x="1385" 
d="M1228 687v-494c-35 -53 -95 -102 -181 -147c-85 -45 -196 -67 -332 -67c-174 0 -318 56 -431 167s-170 255 -170 432v300c0 177 53 321 158 432c106 111 243 167 410 167c163 0 290 -40 379 -120s143 -186 160 -319l-2 -6h-188c-17 88 -53 158 -107 211s-135 79 -242 79
c-111 0 -200 -42 -269 -125c-68 -83 -102 -189 -102 -317v-302c0 -129 38 -236 114 -320c76 -83 173 -125 290 -125c165 0 271 52 316 108v292l-238 9v145h435z" />
    <glyph glyph-name="seven.lnum" horiz-adv-x="1026" 
d="M975 1456v-155c-162 -210 -271 -396 -328 -558c-57 -161 -97 -357 -122 -586l-16 -157h-197l15 157c26 229 76 434 150 615c75 181 176 357 305 529h-752v155h945z" />
    <glyph glyph-name="eight.lnum" horiz-adv-x="1236" 
d="M1071 1076c0 -152 -96 -271 -248 -327c87 -30 157 -76 209 -139c53 -62 79 -134 79 -216c0 -135 -46 -238 -137 -309s-210 -106 -356 -106c-149 0 -268 35 -359 106c-90 71 -135 174 -135 309c0 83 25 155 76 217c51 63 121 109 209 138c-152 55 -244 175 -244 327
c0 128 41 227 124 296c83 70 192 105 327 105c134 0 243 -35 328 -105c85 -69 127 -168 127 -296zM915 398c0 79 -28 145 -85 196c-57 52 -128 78 -214 78c-87 0 -158 -26 -213 -77s-82 -116 -82 -197c0 -83 27 -148 81 -195s126 -70 216 -70c88 0 159 24 214 71
s83 112 83 194zM874 1072c0 72 -24 132 -73 179s-110 71 -185 71c-76 0 -137 -23 -184 -69c-47 -45 -70 -106 -70 -181c0 -74 23 -133 70 -178s109 -67 186 -67c75 0 137 22 184 67c48 45 72 104 72 178z" />
    <glyph glyph-name="nine.lnum" horiz-adv-x="1182" 
d="M525 133c96 0 173 36 231 109s87 181 87 324v68c-65 -96 -167 -146 -287 -146c-141 0 -252 43 -335 130s-124 207 -124 360c0 146 44 266 132 359s195 140 320 140c152 0 272 -48 359 -143c88 -95 132 -234 132 -419v-347c0 -190 -48 -336 -143 -437s-219 -152 -372 -152
c-101 0 -214 19 -298 59l29 151c80 -41 160 -56 269 -56zM556 642c145 0 244 70 287 167v126c0 255 -100 387 -288 387c-73 0 -134 -32 -185 -97c-51 -64 -76 -146 -76 -247c0 -100 23 -181 70 -243s111 -93 192 -93z" />
    <glyph glyph-name="P.smcp" horiz-adv-x="1146" 
d="M154 1165h467c135 0 241 -35 319 -104s117 -159 117 -269s-39 -200 -117 -269s-184 -103 -319 -103h-269v-266l163 -28v-126h-523v126l162 28v856l-162 28v127h162zM352 1012v-438h269c78 0 137 21 177 63s60 93 60 153c0 61 -20 114 -60 157s-99 65 -177 65h-269z" />
    <glyph glyph-name="cyrillicbreve" horiz-adv-x="836" 
d="M707 1457l2 -6c3 -77 -23 -140 -77 -189s-127 -73 -218 -73c-92 0 -165 24 -219 73s-79 112 -76 189l2 6v0c70 0 136 -36 175 -94c22 -34 61 -54 118 -54c56 0 95 20 117 55c39 58 104 93 174 93h2z" />
    <glyph glyph-name="nbspace" unicode="&#xa0;" horiz-adv-x="509" 
 />
    <glyph glyph-name="uni00AD" unicode="&#xad;" horiz-adv-x="797" 
d="M642 539h-335c-85 0 -154 69 -154 154v0h335c85 0 154 -69 154 -154v0z" />
    <glyph glyph-name="Dcroat" unicode="&#x110;" horiz-adv-x="1408" 
d="M1143 1282c116 -117 173 -268 173 -454v-199c0 -186 -57 -338 -173 -454c-116 -117 -269 -175 -459 -175h-611c0 73 52 135 124 147l39 7v464h96c56 0 101 -45 101 -101v-363h251c134 0 241 45 318 134c78 88 117 202 117 341v201c0 138 -39 251 -117 340
c-77 88 -184 133 -318 133h-251v-491h151c0 -92 -74 -166 -165 -166h-311c0 79 55 144 128 161v496l-38 6c-73 13 -125 76 -125 149h163h448c190 0 343 -58 459 -176z" />
    <glyph glyph-name="Eth" unicode="&#xd0;" horiz-adv-x="1449" 
d="M101 1456h610c190 0 343 -59 458 -176c116 -117 174 -268 174 -453v-199c0 -186 -58 -337 -174 -454c-115 -116 -268 -174 -458 -174h-610v126l163 28v509h-198v155h198v483l-163 28v127zM707 818v-155h-246v-509h250c135 0 241 44 318 133c78 89 117 202 117 341v201
c0 137 -39 250 -117 339c-77 89 -183 133 -318 133h-250v-483h246z" />
    <glyph glyph-name="hbar" unicode="&#x127;" horiz-adv-x="1352" 
d="M92 0v126l163 28v1000h-204v155h204v96l-163 28v127h360v-251h240v-155h-240v-216c75 104 185 164 317 164c232 0 366 -136 366 -424v-524l163 -28v-126h-523v126l163 28v526c0 179 -77 262 -229 262c-108 0 -200 -55 -257 -143v-645l163 -28v-126h-523z" />
    <glyph glyph-name="Tbar" unicode="&#x166;" horiz-adv-x="1284" 
d="M37 1456h1210v-322h-168l-15 167h-323v-402h230v-155h-230v-590l163 -28v-126h-523v126l163 28v590h-214v155h214v402h-324l-14 -167h-169v322z" />
    <glyph glyph-name="tbar" unicode="&#x167;" horiz-adv-x="750" 
d="M236 1343h197v-261h205v-146h-205v-181h206v-155h-206v-321c0 -101 46 -138 115 -138c35 0 84 7 113 14l27 -135c-19 -12 -46 -22 -82 -29c-36 -8 -72 -12 -108 -12c-160 0 -262 93 -262 300v321h-238v155h238v181h-171v146h171v261z" />
    <glyph glyph-name="Agrave" unicode="&#xc0;" 
d="M1344 140c61 -8 107 -60 107 -122v-18h-417v21c0 61 44 112 103 122l7 2l-96 267h-516v0c33 98 124 164 228 164h228l-225 623h-6l-388 -1054l6 -2c59 -10 103 -62 103 -123v-20h-415v17c0 62 45 115 107 123l507 1311h169zM510 1851c100 0 191 -64 224 -157l59 -154h-8
c-103 0 -195 67 -229 165l-46 146v0z" />
    <glyph glyph-name="Aacute" unicode="&#xc1;" 
d="M1344 140c61 -8 107 -60 107 -122v-18h-417v21c0 61 44 112 103 122l7 2l-96 267h-516v0c33 98 124 164 228 164h228l-225 623h-6l-388 -1054l6 -2c59 -10 103 -62 103 -123v-20h-415v17c0 62 45 115 107 123l507 1311h169zM992 1832c0 -100 -64 -191 -157 -224l-154 -59
v8c0 103 67 195 165 229z" />
    <glyph glyph-name="Acircumflex" unicode="&#xc2;" 
d="M1344 140c61 -8 107 -60 107 -122v-18h-417v21c0 61 44 112 103 122l7 2l-96 267h-516v0c33 98 124 164 228 164h228l-225 623h-6l-388 -1054l6 -2c59 -10 103 -62 103 -123v-20h-415v17c0 62 45 115 107 123l507 1311h169zM1069 1592h-3c-101 0 -199 41 -270 113l-35 35
l-34 -33c-71 -73 -169 -115 -272 -115v0v0c0 17 7 33 19 44l228 219h119l230 -220c11 -11 18 -27 18 -43z" />
    <glyph glyph-name="Atilde" unicode="&#xc3;" 
d="M1344 140c61 -8 107 -60 107 -122v-18h-417v21c0 61 44 112 103 122l7 2l-96 267h-516v0c33 98 124 164 228 164h228l-225 623h-6l-388 -1054l6 -2c59 -10 103 -62 103 -123v-20h-415v17c0 62 45 115 107 123l507 1311h169zM846 1617c-86 0 -134 47 -170 81
c-29 29 -42 39 -63 39c-59 0 -63 -79 -63 -80v0c-83 0 -130 100 -73 159c32 34 77 57 136 57c78 0 124 -45 158 -77c30 -29 46 -43 75 -43c61 0 71 53 71 85v0c86 0 133 -105 72 -166c-33 -33 -81 -55 -143 -55z" />
    <glyph glyph-name="Adieresis" unicode="&#xc4;" 
d="M1344 140c61 -8 107 -60 107 -122v-18h-417v21c0 61 44 112 103 122l7 2l-96 267h-516v0c33 98 124 164 228 164h228l-225 623h-6l-388 -1054l6 -2c59 -10 103 -62 103 -123v-20h-415v17c0 62 45 115 107 123l507 1311h169zM996 1601h-19c-58 0 -106 47 -106 105v0
c0 58 48 106 106 106h19c58 0 105 -48 105 -106v0c0 -58 -47 -105 -105 -105zM500 1601h-19c-58 0 -106 47 -106 105v0c0 58 48 106 106 106h19c58 0 105 -48 105 -106v0c0 -58 -47 -105 -105 -105z" />
    <glyph glyph-name="Aring" unicode="&#xc5;" 
d="M1344 140c61 -8 107 -60 107 -122v-18h-417v21c0 61 44 112 103 122l7 2l-96 267h-516c33 98 124 164 228 164h228l-225 623h-6l-388 -1054l6 -2c59 -10 103 -62 103 -123v-20h-415v17c0 62 45 115 107 123l507 1311h169zM555 1735c0 56 20 103 60 141
c41 38 90 57 148 57c57 0 105 -19 145 -57c40 -37 60 -84 60 -141s-20 -104 -60 -140s-88 -54 -145 -54c-58 0 -107 18 -148 54c-40 36 -60 83 -60 140zM658 1735c0 -57 48 -104 105 -104c56 0 102 44 102 104s-46 107 -102 107c-59 0 -105 -47 -105 -107z" />
    <glyph glyph-name="Aringacute" unicode="&#x1fa;" 
d="M1344 140c61 -8 107 -60 107 -122v-18h-417v21c0 61 44 112 103 122l7 2l-96 267h-516c33 98 124 164 228 164h228l-225 623h-6l-388 -1054l6 -2c59 -10 103 -62 103 -123v-20h-415v17c0 62 45 115 107 123l507 1311h169zM718 1769l143 183h190l2 -6l-216 -177h-119z
M587 1553c0 48 17 88 51 119c34 32 75 48 123 48c47 0 88 -16 121 -48c33 -31 50 -71 50 -119s-17 -87 -50 -118s-74 -46 -121 -46c-49 0 -90 15 -124 46c-33 31 -50 70 -50 118zM674 1553c0 -47 39 -84 87 -84c45 0 83 36 83 84c0 49 -38 88 -83 88c-48 0 -87 -39 -87 -88z
" />
    <glyph glyph-name="Ccedilla" unicode="&#xc7;" horiz-adv-x="1321" 
d="M1192 1003h-23c-67 0 -124 47 -137 114v0c-13 74 -62 137 -131 167l-2 1c-47 19 -102 29 -167 29c-151 0 -266 -54 -348 -164c-80 -109 -121 -248 -121 -416v-23c0 -168 40 -307 119 -417c80 -110 189 -165 330 -165c67 0 126 10 180 31v0c74 28 127 94 141 171v0
c13 64 67 110 131 110h28v-96c0 -129 -73 -247 -189 -306v0c-83 -42 -180 -63 -291 -63c-188 0 -343 69 -464 209c-121 139 -181 315 -181 526v21c0 212 59 389 178 528c119 140 275 209 467 209c111 0 208 -21 291 -64c1 0 2 -1 3 -1c116 -61 186 -184 186 -314v-87z
M774 -8l-13 -52c88 -15 152 -66 152 -173c0 -128 -110 -210 -306 -210v1c-3 54 31 103 82 120c44 15 71 44 71 86c0 64 -43 84 -159 93l32 135h141z" />
    <glyph glyph-name="Egrave" unicode="&#xc8;" horiz-adv-x="1306" 
d="M75 0h1130v349v0c-95 0 -174 -73 -182 -167l-2 -28h-586v522h402c86 0 155 69 155 155v0h-557v471h573l3 -27c7 -95 87 -168 182 -168h1v350h-1119v-1c0 -72 52 -135 124 -147l39 -7v-1148l-39 -7c-72 -12 -124 -74 -124 -147v0zM404 1852c100 0 191 -64 224 -157
l59 -154h-8c-103 0 -195 67 -229 165l-46 146v0z" />
    <glyph glyph-name="Eacute" unicode="&#xc9;" horiz-adv-x="1306" 
d="M75 0h1130v349v0c-95 0 -174 -73 -182 -167l-2 -28h-586v522h402c86 0 155 69 155 155v0h-557v471h573l3 -27c7 -95 87 -168 182 -168h1v350h-1119v-1c0 -72 52 -135 124 -147l39 -7v-1148l-39 -7c-72 -12 -124 -74 -124 -147v0zM886 1833c0 -100 -64 -191 -157 -224
l-154 -59v8c0 103 67 195 165 229z" />
    <glyph glyph-name="Ecircumflex" unicode="&#xca;" horiz-adv-x="1306" 
d="M75 0c0 73 52 135 124 147l39 7v1148l-39 7c-72 12 -124 75 -124 147v1h1119v-350h-1c-95 0 -175 73 -182 168l-3 27h-573v-471h557v0c0 -86 -69 -155 -155 -155h-402v-522h586l2 28c8 94 87 167 182 167v0v-349h-1130zM963 1593h-3c-101 0 -199 41 -270 113l-35 35
l-34 -33c-71 -73 -169 -115 -272 -115v0v0c0 17 7 33 19 44l228 219h119l230 -220c11 -11 18 -27 18 -43z" />
    <glyph glyph-name="Edieresis" unicode="&#xcb;" horiz-adv-x="1306" 
d="M75 0c0 73 52 135 124 147l39 7v1148l-39 7c-72 12 -124 75 -124 147v1h1119v-350h-1c-95 0 -175 73 -182 168l-3 27h-573v-471h557v0c0 -86 -69 -155 -155 -155h-402v-522h586l2 28c8 94 87 167 182 167v0v-349h-1130zM890 1602h-19c-58 0 -106 47 -106 105v0
c0 58 48 106 106 106h19c58 0 105 -48 105 -106v0c0 -58 -47 -105 -105 -105zM394 1602h-19c-58 0 -106 47 -106 105v0c0 58 48 106 106 106h19c58 0 105 -48 105 -106v0c0 -58 -47 -105 -105 -105z" />
    <glyph glyph-name="Igrave" unicode="&#xcc;" horiz-adv-x="662" 
d="M64 1454c0 -73 53 -136 125 -148l38 -7v-1145l-39 -7c-72 -12 -124 -74 -124 -147v0h522v0c0 73 -52 135 -124 147l-39 7v1145l38 7c72 12 125 75 125 148v0h-522v0zM91 1850c100 0 191 -64 224 -157l59 -154h-8c-103 0 -195 67 -229 165l-46 146v0z" />
    <glyph glyph-name="Iacute" unicode="&#xcd;" horiz-adv-x="662" 
d="M64 1454c0 -73 53 -136 125 -148l38 -7v-1145l-39 -7c-72 -12 -124 -74 -124 -147v0h522v0c0 73 -52 135 -124 147l-39 7v1145l38 7c72 12 125 75 125 148v0h-522v0zM572 1831c0 -100 -64 -191 -157 -224l-154 -59v8c0 103 67 195 165 229z" />
    <glyph glyph-name="Icircumflex" unicode="&#xce;" horiz-adv-x="662" 
d="M64 1454h522v0c0 -73 -53 -136 -125 -148l-38 -7v-1145l39 -7c72 -12 124 -74 124 -147v0h-522v0c0 73 52 135 124 147l39 7v1145l-38 7c-72 12 -125 75 -125 148zM650 1591h-3c-101 0 -199 41 -270 113l-35 35l-34 -33c-71 -73 -169 -115 -272 -115v0v0c0 17 7 33 19 44
l228 219h119l230 -220c11 -11 18 -27 18 -43z" />
    <glyph glyph-name="Idieresis" unicode="&#xcf;" horiz-adv-x="662" 
d="M64 1454h522v0c0 -73 -53 -136 -125 -148l-38 -7v-1145l39 -7c72 -12 124 -74 124 -147v0h-522v0c0 73 52 135 124 147l39 7v1145l-38 7c-72 12 -125 75 -125 148zM577 1600h-19c-58 0 -106 47 -106 105v0c0 58 48 106 106 106h19c58 0 105 -48 105 -106v0
c0 -58 -47 -105 -105 -105zM81 1600h-19c-58 0 -106 47 -106 105v0c0 58 48 106 106 106h19c58 0 105 -48 105 -106v0c0 -58 -47 -105 -105 -105z" />
    <glyph glyph-name="Ntilde" unicode="&#xd1;" horiz-adv-x="1560" 
d="M1492 1454c0 -73 -53 -136 -125 -148l-38 -7v-1299h-197l-699 1123l-6 -3v-966l39 -7c71 -12 124 -74 124 -147v0h-522v0c0 73 52 135 123 147l39 7v1145l-37 7c-73 12 -125 75 -125 148v0h162h197l699 -1121l6 1v965l-38 7c-72 12 -125 75 -125 148v0h360h163zM840 1618
c-86 0 -134 47 -170 81c-29 29 -42 39 -63 39c-59 0 -63 -79 -63 -80v0c-83 0 -130 100 -73 159c32 34 77 57 136 57c78 0 124 -45 158 -77c30 -29 46 -43 75 -43c61 0 71 53 71 85v0c86 0 133 -105 72 -166c-33 -33 -81 -55 -143 -55z" />
    <glyph glyph-name="Ograve" unicode="&#xd2;" horiz-adv-x="1445" 
d="M1368 717v21c0 211 -61 387 -183 528c-121 141 -279 211 -472 211c-188 0 -341 -70 -458 -211s-176 -317 -176 -528v-21c0 -212 59 -388 176 -528s270 -210 458 -210c193 0 351 70 472 210c122 140 183 316 183 528zM1171 740v-23c0 -171 -40 -310 -120 -417
s-193 -160 -338 -160c-137 0 -245 53 -322 160s-115 246 -115 417v23c0 169 38 307 115 414s185 161 322 161c143 0 255 -54 336 -161s122 -245 122 -414zM472 1851c100 0 191 -64 224 -157l59 -154h-8c-103 0 -195 67 -229 165z" />
    <glyph glyph-name="Oacute" unicode="&#xd3;" horiz-adv-x="1445" 
d="M1368 717v21c0 211 -61 387 -183 528c-121 141 -279 211 -472 211c-188 0 -341 -70 -458 -211s-176 -317 -176 -528v-21c0 -212 59 -388 176 -528s270 -210 458 -210c193 0 351 70 472 210c122 140 183 316 183 528zM1171 740v-23c0 -171 -40 -310 -120 -417
s-193 -160 -338 -160c-137 0 -245 53 -322 160s-115 246 -115 417v23c0 169 38 307 115 414s185 161 322 161c143 0 255 -54 336 -161s122 -245 122 -414zM954 1832c0 -100 -64 -191 -157 -224l-154 -59v8c0 103 67 195 165 229z" />
    <glyph glyph-name="Ocircumflex" unicode="&#xd4;" horiz-adv-x="1445" 
d="M1368 738v-21c0 -212 -61 -388 -183 -528c-121 -140 -279 -210 -472 -210c-188 0 -341 70 -458 210s-176 316 -176 528v21c0 211 59 387 176 528s270 211 458 211c193 0 351 -70 472 -211c122 -141 183 -317 183 -528zM1171 717v23c0 169 -41 307 -122 414
s-193 161 -336 161c-137 0 -245 -54 -322 -161s-115 -245 -115 -414v-23c0 -171 38 -310 115 -417s185 -160 322 -160c145 0 258 53 338 160s120 246 120 417zM1031 1592h-3c-101 0 -199 41 -270 113l-35 35l-34 -33c-71 -73 -169 -115 -272 -115c0 17 7 33 19 44l228 219
h119l230 -220c11 -11 18 -27 18 -43z" />
    <glyph glyph-name="Otilde" unicode="&#xd5;" horiz-adv-x="1445" 
d="M1368 738v-21c0 -212 -61 -388 -183 -528c-121 -140 -279 -210 -472 -210c-188 0 -341 70 -458 210s-176 316 -176 528v21c0 211 59 387 176 528s270 211 458 211c193 0 351 -70 472 -211c122 -141 183 -317 183 -528zM1171 717v23c0 169 -41 307 -122 414
s-193 161 -336 161c-137 0 -245 -54 -322 -161s-115 -245 -115 -414v-23c0 -171 38 -310 115 -417s185 -160 322 -160c145 0 258 53 338 160s120 246 120 417zM808 1617c-86 0 -134 47 -170 81c-29 29 -42 39 -63 39c-59 0 -63 -79 -63 -80c-83 0 -130 100 -73 159
c32 34 77 57 136 57c78 0 124 -45 158 -77c30 -29 46 -43 75 -43c61 0 71 53 71 85c86 0 133 -105 72 -166c-33 -33 -81 -55 -143 -55z" />
    <glyph glyph-name="Odieresis" unicode="&#xd6;" horiz-adv-x="1445" 
d="M1368 738v-21c0 -212 -61 -388 -183 -528c-121 -140 -279 -210 -472 -210c-188 0 -341 70 -458 210s-176 316 -176 528v21c0 211 59 387 176 528s270 211 458 211c193 0 351 -70 472 -211c122 -141 183 -317 183 -528zM1171 717v23c0 169 -41 307 -122 414
s-193 161 -336 161c-137 0 -245 -54 -322 -161s-115 -245 -115 -414v-23c0 -171 38 -310 115 -417s185 -160 322 -160c145 0 258 53 338 160s120 246 120 417zM958 1601h-19c-58 0 -106 47 -106 105s48 106 106 106h19c58 0 105 -48 105 -106s-47 -105 -105 -105zM462 1601
h-19c-58 0 -106 47 -106 105s48 106 106 106h19c58 0 105 -48 105 -106s-47 -105 -105 -105z" />
    <glyph glyph-name="Ugrave" unicode="&#xd9;" horiz-adv-x="1541" 
d="M586 1454h-360h-162v0c0 -73 53 -136 125 -148l37 -6v-833c0 -157 50 -279 150 -362c98 -84 228 -127 389 -127c165 0 299 43 402 127c103 83 155 205 155 362v833l37 6c72 12 125 75 125 148v0h-162h-360v0c0 -73 53 -136 125 -148l38 -6v-833c0 -110 -33 -193 -99 -250
s-153 -85 -261 -85c-102 0 -185 29 -248 86c-62 57 -94 140 -94 249v833l38 6c72 12 125 75 125 148v0zM505 1851c100 0 191 -64 224 -157l59 -154h-8c-103 0 -195 67 -229 165l-46 146v0z" />
    <glyph glyph-name="Uacute" unicode="&#xda;" horiz-adv-x="1541" 
d="M586 1454h-360h-162v0c0 -73 53 -136 125 -148l37 -6v-833c0 -157 50 -279 150 -362c98 -84 228 -127 389 -127c165 0 299 43 402 127c103 83 155 205 155 362v833l37 6c72 12 125 75 125 148v0h-162h-360v0c0 -73 53 -136 125 -148l38 -6v-833c0 -110 -33 -193 -99 -250
s-153 -85 -261 -85c-102 0 -185 29 -248 86c-62 57 -94 140 -94 249v833l38 6c72 12 125 75 125 148v0zM987 1832c0 -100 -64 -191 -157 -224l-154 -59v8c0 103 67 195 165 229z" />
    <glyph glyph-name="Ucircumflex" unicode="&#xdb;" horiz-adv-x="1541" 
d="M586 1454c0 -73 -53 -136 -125 -148l-38 -6v-833c0 -109 32 -192 94 -249c63 -57 146 -86 248 -86c108 0 195 28 261 85s99 140 99 250v833l-38 6c-72 12 -125 75 -125 148v0h360h162v0c0 -73 -53 -136 -125 -148l-37 -6v-833c0 -157 -52 -279 -155 -362
c-103 -84 -237 -127 -402 -127c-161 0 -291 43 -389 127c-100 83 -150 205 -150 362v833l-37 6c-72 12 -125 75 -125 148v0h162h360zM1064 1592h-3c-101 0 -199 41 -270 113l-35 35l-34 -33c-71 -73 -169 -115 -272 -115v0v0c0 17 7 33 19 44l228 219h119l230 -220
c11 -11 18 -27 18 -43z" />
    <glyph glyph-name="Udieresis" unicode="&#xdc;" horiz-adv-x="1541" 
d="M586 1454c0 -73 -53 -136 -125 -148l-38 -6v-833c0 -109 32 -192 94 -249c63 -57 146 -86 248 -86c108 0 195 28 261 85s99 140 99 250v833l-38 6c-72 12 -125 75 -125 148v0h360h162v0c0 -73 -53 -136 -125 -148l-37 -6v-833c0 -157 -52 -279 -155 -362
c-103 -84 -237 -127 -402 -127c-161 0 -291 43 -389 127c-100 83 -150 205 -150 362v833l-37 6c-72 12 -125 75 -125 148v0h162h360zM991 1601h-19c-58 0 -106 47 -106 105v0c0 58 48 106 106 106h19c58 0 105 -48 105 -106v0c0 -58 -47 -105 -105 -105zM495 1601h-19
c-58 0 -106 47 -106 105v0c0 58 48 106 106 106h19c58 0 105 -48 105 -106v0c0 -58 -47 -105 -105 -105z" />
    <glyph glyph-name="Yacute" unicode="&#xdd;" horiz-adv-x="1416" 
d="M837 147c72 -12 125 -74 125 -147h-523v0c0 73 53 135 124 147l39 7v374l-424 783l-1 1c-70 11 -121 71 -121 141v5h500c0 -73 -54 -134 -126 -143l-31 -4l305 -594l94 -204v-359zM853 1458h501v-4c0 -71 -52 -132 -122 -142l-1 -1l-403 -744l-31 60
c-44 84 -44 184 -1 268l214 416l-30 4c-72 9 -127 70 -127 143zM934 1832c0 -100 -64 -191 -157 -224l-154 -59v8c0 103 67 195 165 229z" />
    <glyph glyph-name="agrave" unicode="&#xe0;" horiz-adv-x="1128" 
d="M1027 132l28 -5c0 -69 -55 -125 -126 -125h-55c-45 0 -84 33 -91 78v1c-3 24 -5 46 -6 70l-2 155v178h-210c-82 0 -145 -18 -193 -56c-46 -37 -70 -82 -70 -135c0 -48 15 -84 44 -109c30 -25 74 -39 134 -39c64 0 124 16 179 48c30 18 56 38 78 61v-49
c0 -72 -40 -139 -102 -175l-1 -1c-58 -32 -119 -49 -184 -49c-113 0 -199 28 -258 83c-58 55 -87 133 -87 233c0 103 41 182 125 238c82 56 197 84 342 84h203v126c0 64 -20 114 -60 151s-96 56 -167 56c-50 0 -93 -6 -132 -20c-20 -7 -39 -16 -56 -25
c-23 -13 -38 -37 -42 -64c-8 -45 -52 -77 -100 -77h-67v50c0 113 71 218 178 254c0 0 1 2 2 2c71 23 147 35 228 35c124 0 223 -31 299 -94s114 -153 114 -270v-522v-27c2 -32 24 -57 55 -61zM308 1527c100 0 191 -64 224 -157l59 -154h-8c-103 0 -195 67 -229 165l-46 146
v0z" />
    <glyph glyph-name="aacute" unicode="&#xe1;" horiz-adv-x="1128" 
d="M1027 132l28 -5c0 -69 -55 -125 -126 -125h-55c-45 0 -84 33 -91 78v1c-3 24 -5 46 -6 70l-2 155v178h-210c-82 0 -145 -18 -193 -56c-46 -37 -70 -82 -70 -135c0 -48 15 -84 44 -109c30 -25 74 -39 134 -39c64 0 124 16 179 48c30 18 56 38 78 61v-49
c0 -72 -40 -139 -102 -175l-1 -1c-58 -32 -119 -49 -184 -49c-113 0 -199 28 -258 83c-58 55 -87 133 -87 233c0 103 41 182 125 238c82 56 197 84 342 84h203v126c0 64 -20 114 -60 151s-96 56 -167 56c-50 0 -93 -6 -132 -20c-20 -7 -39 -16 -56 -25
c-23 -13 -38 -37 -42 -64c-8 -45 -52 -77 -100 -77h-67v50c0 113 71 218 178 254c0 0 1 2 2 2c71 23 147 35 228 35c124 0 223 -31 299 -94s114 -153 114 -270v-522v-27c2 -32 24 -57 55 -61zM790 1508c0 -100 -64 -191 -157 -224l-154 -59v8c0 103 67 195 165 229z" />
    <glyph glyph-name="acircumflex" unicode="&#xe2;" horiz-adv-x="1128" 
d="M1027 132l28 -5c0 -69 -55 -125 -126 -125h-55c-45 0 -84 33 -91 78v1c-3 24 -5 46 -6 70l-2 155v178h-210c-82 0 -145 -18 -193 -56c-46 -37 -70 -82 -70 -135c0 -48 15 -84 44 -109c30 -25 74 -39 134 -39c64 0 124 16 179 48c30 18 56 38 78 61v-49
c0 -72 -40 -139 -102 -175l-1 -1c-58 -32 -119 -49 -184 -49c-113 0 -199 28 -258 83c-58 55 -87 133 -87 233c0 103 41 182 125 238c82 56 197 84 342 84h203v126c0 64 -20 114 -60 151s-96 56 -167 56c-50 0 -93 -6 -132 -20c-20 -7 -39 -16 -56 -25
c-23 -13 -38 -37 -42 -64c-8 -45 -52 -77 -100 -77h-67v50c0 113 71 218 178 254c0 0 1 2 2 2c71 23 147 35 228 35c124 0 223 -31 299 -94s114 -153 114 -270v-522v-27c2 -32 24 -57 55 -61zM867 1268h-3c-101 0 -199 41 -270 113l-35 35l-34 -33
c-71 -73 -169 -115 -272 -115v0v0c0 17 7 33 19 44l228 219h119l230 -220c11 -11 18 -27 18 -43z" />
    <glyph glyph-name="atilde" unicode="&#xe3;" horiz-adv-x="1128" 
d="M1027 132l28 -5c0 -69 -55 -125 -126 -125h-55c-45 0 -84 33 -91 78v1c-3 24 -5 46 -6 70l-2 155v178h-210c-82 0 -145 -18 -193 -56c-46 -37 -70 -82 -70 -135c0 -48 15 -84 44 -109c30 -25 74 -39 134 -39c64 0 124 16 179 48c30 18 56 38 78 61v-49
c0 -72 -40 -139 -102 -175l-1 -1c-58 -32 -119 -49 -184 -49c-113 0 -199 28 -258 83c-58 55 -87 133 -87 233c0 103 41 182 125 238c82 56 197 84 342 84h203v126c0 64 -20 114 -60 151s-96 56 -167 56c-50 0 -93 -6 -132 -20c-20 -7 -39 -16 -56 -25
c-23 -13 -38 -37 -42 -64c-8 -45 -52 -77 -100 -77h-67v50c0 113 71 218 178 254c0 0 1 2 2 2c71 23 147 35 228 35c124 0 223 -31 299 -94s114 -153 114 -270v-522v-27c2 -32 24 -57 55 -61zM644 1293c-86 0 -134 47 -170 81c-29 29 -42 39 -63 39c-59 0 -63 -79 -63 -80v0
c-83 0 -130 100 -73 159c32 34 77 57 136 57c78 0 124 -45 158 -77c30 -29 46 -43 75 -43c61 0 71 53 71 85v0c86 0 133 -105 72 -166c-33 -33 -81 -55 -143 -55z" />
    </font>
</defs>
</svg>
